<?xml version="1.0" encoding="utf-8"?>
<!-- Generator: Adobe Illustrator 18.0.0, SVG Export Plug-In . SVG Version: 6.00 Build 0)  -->
<!DOCTYPE svg PUBLIC "-//W3C//DTD SVG 1.1//EN" "http://www.w3.org/Graphics/SVG/1.1/DTD/svg11.dtd">
<svg version="1.1" id="Layer_1" xmlns="http://www.w3.org/2000/svg" xmlns:xlink="http://www.w3.org/1999/xlink" x="0px" y="0px"
	 width="48px" height="48px" viewBox="0 0 48 48" enable-background="new 0 0 48 48" xml:space="preserve">
<g>
	<path fill-rule="evenodd" clip-rule="evenodd" d="M47,22.2c0,1.2,0,2.4,0,3.6c-0.1,0.6-0.2,1.3-0.3,1.9c-1,5.8-3.8,10.6-8.4,14.3
		c-3,2.4-6.4,4-10.3,4.7c-0.8,0.1-1.6,0.2-2.4,0.4c-1.1,0-2.2,0-3.3,0c-0.1,0-0.3-0.1-0.4-0.1c-0.8-0.1-1.7-0.2-2.5-0.3
		c-5.4-1.1-9.9-3.8-13.4-8.1c-2.5-3-4.1-6.5-4.8-10.3c-0.1-0.8-0.2-1.6-0.4-2.4c0-1.1,0-2.3,0-3.5c0-0.1,0.1-0.2,0.1-0.4
		c0.1-0.8,0.2-1.6,0.3-2.4c1.3-6.2,4.6-11,9.8-14.6c3.1-2.1,6.6-3.4,10.4-3.7c0.7-0.1,1.3-0.1,2-0.2c0.3,0,0.5,0,0.8,0
		c0.2,0,0.4,0.1,0.6,0.1c1,0.1,1.9,0.1,2.9,0.3c5.8,1,10.5,3.9,14.2,8.4c2.4,3,3.9,6.3,4.6,10C46.8,20.6,46.9,21.4,47,22.2z M24,2.1
		C11.9,2.1,2.1,11.9,2.1,24c0,12.1,9.9,21.9,22,21.9c12,0,21.8-9.7,21.9-21.6C46.1,12,36,2.1,24,2.1z"/>
</g>
<g>
	<path fill-rule="evenodd" clip-rule="evenodd" d="M24.6,19.6c0-0.3,0.1-0.6,0.1-0.9c0-1.1,0-2.2,0.2-3.2c0.2-1,0.8-1.1,1.7-0.6
		c1.3,0.8,2.3,1.9,2.9,3.3c0.5,1.2,0.8,1.5,2.1,1.4c1-0.1,1.5,0.3,2.1,1c0.8,1.1,1.1,2,0.6,3.3C34,24.5,34,25.2,34,25.8
		c0,2.7,0,5.5,0,8.2c0,0.7-0.2,1.2-0.9,1.4c-0.2,0.1-0.4,0.2-0.7,0.4c0-0.8,0-1.6,0-2.3c0-2.4,0-4.8,0-7.1c0-0.2,0-0.4,0-0.7
		c-0.1-0.4-0.3-0.8-0.7-0.7c-0.3,0.1-0.6,0.4-0.8,0.7c-0.1,0.1,0,0.4,0,0.6c0,3,0,6,0,9.1c0,1.2,0,1.2-1.3,1.5c0-0.2,0-0.5,0-0.7
		c0-3.2,0-6.4,0-9.5c0-0.2,0-0.5-0.1-0.7c-0.1-0.2-0.4-0.6-0.7-0.6c-0.3,0-0.6,0.3-0.8,0.5c-0.1,0.2-0.1,0.6-0.1,0.8
		c0,3.2,0,6.5,0,9.7c0,1.2,0,1.2-1.3,1.4c0-0.4,0-0.7,0-1.1c0-3.3,0-6.6,0-9.9c0-0.2,0-0.4,0-0.6c0-0.5-0.2-0.9-0.8-0.9
		c-0.6,0-0.8,0.4-0.8,0.8c0,0.2,0,0.4,0,0.6c0,3.5,0,7,0,10.5c0,0.3,0,0.6,0,0.9c-0.5,0-1,0-1.5,0c0-0.2,0-0.5,0-0.7
		c0-3.5,0-6.9,0-10.4c0-0.1,0-0.3,0-0.4c0-0.8-0.3-1.3-0.8-1.3c-0.5,0-0.8,0.4-0.8,1.2c0,3.6,0,7.1,0,10.7c0,0.2,0,0.4,0,0.7
		c-0.6-0.2-1-0.3-1.6-0.5c0-0.6,0-1.3,0-1.9c0-3,0-6,0-9c0-0.2,0-0.5-0.1-0.7c-0.2-0.2-0.5-0.5-0.8-0.5c-0.2,0-0.5,0.3-0.7,0.6
		c-0.1,0.2-0.1,0.5-0.1,0.7c0,3.2,0,6.3,0,9.5c0,0.2,0,0.5,0,0.8c-0.5-0.1-1-0.3-1.5-0.4c0-1.7,0-3.5,0-5.2c0-1.7,0-3.3,0-5
		c0-0.9-0.3-1.3-0.8-1.3c-0.5,0-0.8,0.5-0.8,1.3c0,2.8,0,5.6,0,8.5c0,0.2,0,0.5,0,0.7c-1.2-0.3-1.5-0.7-1.5-1.8c0-2.4,0-4.8,0-7.2
		c0-1.3-0.2-2.7-0.4-4c-0.1-0.4,0-0.8,0.3-1.1c0.2-0.2,0.4-0.5,0.7-0.8c1-1.3,1-1.3,2.7-1.1c0.2,0,0.3,0.1,0.5,0.1
		c1.5,0.2,2.4-0.8,2.1-2.4c-0.1-0.3-0.2-0.7-0.2-1c-0.1-1.2,0.9-1.9,2-1.3c0.4,0.2,0.9,0.7,1.1,1.1c0.6,0.9,1,1.9,1.5,2.9
		c0.1,0.2,0.2,0.4,0.2,0.6C24.5,19.6,24.5,19.6,24.6,19.6z"/>
</g>
<g>
	<path fill-rule="evenodd" clip-rule="evenodd" d="M42.3,17.8c-0.3-0.2-0.6-0.4-0.9-0.7c-0.3-0.2-0.6-0.4-0.8-0.7
		c-0.1,0.1-0.1,0.1-0.2,0.2c0.3,0.5,0.5,0.9,0.8,1.4c0.4,0.7,1,1.4,0.9,2.4c0,0.3-0.1,0.5-0.2,1c-0.5-0.7-0.9-1.2-1.3-1.7
		c-0.1,0.4-0.2,0.6-0.3,0.9c-0.2-0.2-0.5-0.4-0.6-0.6c-2.4-3.8-4.8-7.5-7.2-11.3c-0.2-0.3-0.4-0.7-0.6-1C31.5,7.1,31.1,7,30.6,7
		c-0.5,0-0.8,0.2-0.9,0.7c-0.4,1.8-1.5,3.2-3,4.2c-0.4,0.3-0.5,0.6-0.3,0.9c0.4,0.6,0.7,1.2,1.5,1.3c0.2,0,0.5,0.4,0.6,0.7
		c0.6,1.1,0.9,1.2,1.9,0.5c1.1-0.8,2.3-1.6,3.4-2.5c0.4-0.3,0.6-0.1,0.8,0.2c0.8,1.2,1.5,2.4,2.2,3.7c0.2,0.4,0.1,0.6-0.3,0.6
		c-0.1,0-0.3,0-0.5,0c-1.7-0.3-3.4-0.1-5.1,0.3c-0.6,0.1-0.9-0.1-1.3-0.5c-0.6-0.8-1.1-1.5-1.8-2.2c-0.5-0.4-1.1-0.8-1.7-1
		c-1.3-0.4-2.2,0.5-2,1.8c0,0.3,0,0.7-0.2,1.1c-0.7-1-1.5-2.1-2.2-3.1c-0.4-0.5-0.7-1.1-0.9-1.7c-0.2-0.8,0.3-1.5,0.8-2.2
		c0.1-0.2,0.6-0.2,0.8-0.1c0.4,0.3,0.8,0.2,1.2,0c0.2-0.1,0.6-0.1,0.8,0c0.4,0.2,0.8,0.2,1.2,0c0.5-0.2,1.1-0.3,1.6-0.4
		c0.2-0.1,0.7-0.1,0.7-0.2c0.1-0.2,0-0.6-0.2-0.8c-0.7-1-0.6-1.3,0.5-1.7c2.8-1.1,4.9,0.2,6.9,1.9c2.2,1.9,3.8,4.4,5.5,6.7
		c0.6,0.8,1.1,1.6,1.7,2.3C42.4,17.6,42.4,17.7,42.3,17.8z"/>
</g>
<g>
	<path fill-rule="evenodd" clip-rule="evenodd" d="M5,22c0.4-0.6,0.7-1.1,1-1.6c0.4-0.7,0.4-0.8-0.4-0.9c0.2-0.7,0.5-1.5,0.8-2.2
		c0.1-0.2,0.3-0.4,0.5-0.5c0.3-0.2,0.6-0.4,0.9-0.7c0.4-0.4,0.8-0.8,1.4-0.7c0.2,0,0.5-0.2,0.7-0.4c0.1-0.1,0.2-0.3,0.3-0.4
		c0.8-1,0.7-0.9,2-0.5c2,0.8,4,1.4,6,2.1c0.5,0.2,0.7,0.3,0.8,0.8c0.2,1.3,0.3,1.3-1.1,1.2c-1.9-0.2-3.7-0.3-5.6-0.4
		c-0.3,0-0.6,0.2-0.8,0.4c-0.6,0.6-1.1,1.3-2.1,1.1c-0.1,0-0.3,0.1-0.4,0.3c-0.3,0.6-0.8,0.9-1.5,1.1c-0.2,0-0.4,0.2-0.4,0.4
		c-0.3,0.9-0.5,1-1.4,1C5.5,22,5.3,22,5,22z"/>
</g>
<g>
	<path fill-rule="evenodd" clip-rule="evenodd" d="M25.2,41.1c0.4,0.5,0.8,1,1.3,1.6c-0.3,0.3-0.6,0.4-0.7-0.1
		c-0.3-0.7-0.8-1.4-1.5-1.3c-0.8,0-1.6,0.6-2,1.3c-0.1,0.2-0.1,0.3-0.3,0.5c-0.1,0.1-0.3,0.1-0.5,0.2c-0.1-0.1-0.1-0.2-0.2-0.3
		c0.6-0.7,1.3-1.3,2-2.1c-0.4-0.1-0.9-0.2-1.3-0.3c-1.2-0.1-2.4-0.4-3.2-1.4c-0.1-0.1-0.1-0.1-0.2-0.3c0.9-0.4,1.8-0.2,2.6,0.2
		c0.8,0.4,1.6,0.9,2.4,1.4c0.4,0.3,0.8,0.3,1.2,0.1c0.7-0.5,1.4-0.9,2-1.4c0.4-0.4,0.7-0.4,1.1-0.2c0.5,0.2,0.9,0.1,1.2-0.3
		c0.3-0.5,0.7-0.4,1,0c0.3,0.4,0.6,0.3,1,0.2c0.2-0.1,0.7,0,0.8,0.2c0.4,0.8,0.9,0.6,1.5,0.3c-0.5-0.6-0.6-1.1,0.2-1.3
		c0.4,0.2,0.8,0.3,0.9,0.5c0.2,0.3,0.2,0.7,0.1,1.1c-0.1,0.5-0.5,0.4-0.9,0.3c-0.2-0.1-0.3-0.2-0.4-0.4c-0.3,0.3-0.5,0.7-0.8,0.9
		c-0.2,0.2-0.5,0.4-0.7,0.5c-0.1,0.1-0.3,0.2-0.3,0.3c-0.1,0.5-0.4,0.5-0.7,0.2c-0.4-0.3-0.6-0.3-0.9,0.1c-0.4,0.4-0.8,0.5-1.2,0
		c-0.3-0.3-0.4-0.5-0.9-0.2c-0.3,0.2-0.9-0.2-1.4-0.3c-0.3-0.1-0.6-0.1-0.9-0.2C25.3,40.9,25.3,41,25.2,41.1z"/>
</g>
<g>
	<path fill-rule="evenodd" clip-rule="evenodd" d="M8.6,14.6c-1.3,1.4-1.5,1.5-2.4,1.2c0.9-1,1.7-2.1,2.7-3c1.8-1.9,3.6-3.7,5.5-5.6
		c1.1-1,2.4-1.3,3.8-1c0.9,0.2,1.1,0.9,0.6,1.6c-0.2,0.3-0.5,0.7-0.4,0.8c0.3,0.4,0.6,0.8,1.1,1c0.4,0.2,0.9,0.1,1.4,0.2
		c0,0,0,0,0,0c-0.3,1.5-0.5,1.7-1.7,0.7c-0.6-0.5-1.2-1-1.8-1.4c-0.4-0.3-0.4-0.5-0.1-0.8c0.1-0.1,0.2-0.2,0.3-0.4
		c0.2-0.7-0.2-1.3-0.9-1C16,7.2,15.5,7.6,15,8c-2,1.7-3.7,3.7-4.9,6.1C9.7,14.9,9.4,15,8.6,14.6z"/>
</g>
<g>
	<path fill-rule="evenodd" clip-rule="evenodd" d="M38.2,32.2c-0.6-0.3-1.4-0.7-2.2-1.1c-0.1,0-0.1-0.4,0-0.5
		c0.1-0.2,0.3-0.4,0.5-0.6c-0.2-0.1-0.3-0.2-0.4-0.3c-0.6-0.1-0.8-0.5-0.6-1.1c0.1-0.4,0.1-0.7-0.2-1.1c-0.1-0.1-0.1-0.5,0-0.8
		c0.1-0.4,0.4-0.8,0.6-1.1c0.1-0.2,0.2-0.5,0.4-0.5c0.1,0,0.4,0.1,0.5,0.3c0.3,0.3,0.6,0.5,1,0.5c0.7-0.1,1,0.3,0.6,1
		c-0.3,0.5-0.3,0.9,0.4,1c0.4,0.1,0.5,0.3,0.2,0.7c-0.5,0.7-0.5,0.9,0.3,1.4c0.6,0.4,0.6,0.8,0,1.2C38.9,31.4,38.6,31.8,38.2,32.2z"
		/>
</g>
<g>
	<path fill-rule="evenodd" clip-rule="evenodd" d="M21.5,14.4c-1.8-0.3-2.4,0.2-2.5,1.5c-2.5-0.9-4.9-1.7-7.5-2.7
		c0.8-1,1.4-1.8,2.1-2.7c0.6,0.4,1.1,0.8,1.6,1.2c1.7,1.2,3.5,2.1,5.6,2.2C21,13.9,21.2,14.2,21.5,14.4z"/>
</g>
<g>
	<path fill-rule="evenodd" clip-rule="evenodd" d="M35.2,38.4c-0.3-0.4-0.6-0.8-1-1.2c-0.3-0.3-0.3-0.6,0-0.9
		c0.1-0.1,0.4-0.2,0.4-0.4c0-0.7,0.2-1.2,0.9-1.5c0.1,0,0-0.4,0-0.5c0-0.2,0-0.5,0-0.6c0.5-0.2,0.7-0.6,0.8-1.1
		c0-0.1,0.2-0.2,0.4-0.3c0.2,0.3,0.4,0.6,0.6,0.9c0.2,0.2,0.5,0.5,0.8,0.6c0.6,0.3,0.8,0.6,0.4,1.1c-0.2,0.4-0.2,0.6,0,1
		c0.3,0.5,0.2,0.8-0.4,0.8c-0.5,0.1-0.7,0.3-0.6,0.8c0.1,0.7-0.1,0.9-0.8,1C36.1,38.1,35.7,38.3,35.2,38.4z"/>
</g>
<g>
	<path fill-rule="evenodd" clip-rule="evenodd" d="M22.6,9c0.1-0.6,0.3-1.2,0.1-1.5c-0.2-0.5-1.1-0.5-2-0.1
		c-0.5-0.6,0.2-1.5,1.1-1.7c0.2,0,0.4-0.2,0.6-0.4c0.1,0,0.1-0.1,0.2-0.2c0.4-0.3,2.7-0.3,3,0C25.8,5.4,26,5.7,26,6
		C26,6.9,26,7.7,26,8.6c0,0.3-0.2,0.6-0.5,0.9c-0.1,0.1-0.5-0.1-0.7-0.3c-0.3-0.2-0.6-0.3-1-0.1C23.3,9.4,23,9.3,22.6,9z"/>
</g>
<g>
	<path fill-rule="evenodd" clip-rule="evenodd" d="M40.9,30c-0.4-0.3-0.7-0.6-1-0.9c-0.1-0.2-0.2-0.6-0.2-0.7c0.2-0.4,0.1-0.7-0.2-1
		c-0.4-0.5-0.4-0.9,0-1.4c0.1-0.1,0.1-0.4,0.1-0.7c0-0.4,0.2-0.7,0.6-0.7c0.4,0,0.7,0,0.7-0.6c0-0.2,0.3-0.5,0.6-0.5
		c0.1,0,0.4,0.2,0.6,0.4c0.2,0.3,0.4,0.6,0.6,1c0.1,0.2,0.1,0.6,0,0.7c-0.4,0.4-0.3,0.7-0.1,1.1c0.2,0.4,0.3,0.8-0.3,0.9
		C42,27.7,41.8,28,42,28.4c0.3,0.5,0.1,0.9-0.4,1.1C41.3,29.6,41.1,29.9,40.9,30z"/>
</g>
<g>
	<path fill-rule="evenodd" clip-rule="evenodd" d="M20.7,13.3c-0.6-0.2-1.3-0.2-1.8-0.5c-1.5-0.8-3-1.7-4.5-2.5
		c-0.4-0.2-0.4-0.5-0.1-0.8c0.5-0.5,0.9-0.9,1.4-1.4c0.1-0.1,0.3-0.2,0.4-0.2c0.2,0,0.4,0,0.5,0.1c0.1,0.1,0,0.4,0,0.5
		C16,9.2,16.4,9.6,17,10c1,0.6,2.1,1.1,3,1.8c0.4,0.3,0.6,0.8,0.9,1.3C20.8,13.2,20.8,13.3,20.7,13.3z"/>
</g>
<g>
	<path fill-rule="evenodd" clip-rule="evenodd" d="M32.6,9.8c0.4,0.7,0.7,1.3,1,1.9c0.1,0.1-0.1,0.5-0.3,0.6c-1,0.8-2,1.6-3,2.4
		c-0.6,0.5-0.8,0.4-1.4-0.3c-0.4-0.6-0.4-0.8,0.1-1.3c1-0.9,1.9-1.7,2.9-2.6C32.2,10.4,32.3,10.2,32.6,9.8z"/>
</g>
<g>
	<path fill-rule="evenodd" clip-rule="evenodd" d="M38.9,25.1c-0.3,0-0.6-0.1-0.9-0.1c-0.8-0.1-0.9-0.4-0.7-1.1
		c0-0.2-0.2-0.6-0.4-0.7c-0.7-0.4-0.7-0.4-0.2-1c0.1-0.2,0.2-0.5,0.2-0.7c0-0.2-0.1-0.4-0.1-0.5c0-0.2,0.1-0.5,0.3-0.6
		c0.1-0.1,0.5,0.1,0.6,0.2c0.4,0.5,0.7,0.8,1.3,0.4c0.1,0,0.5,0.3,0.5,0.5c0,0.5,0.1,0.8,0.7,0.9c0.4,0.1,0.5,0.4,0.2,0.7
		c-0.1,0.1-0.2,0.3-0.4,0.4c-0.4,0.5-0.9,1-1.3,1.5C38.9,25,38.9,25.1,38.9,25.1z"/>
</g>
<g>
	<path fill-rule="evenodd" clip-rule="evenodd" d="M26.9,12.6c0.8-0.9,1.6-1.6,2.3-2.5c0.4-0.5,0.6-1.2,0.9-1.9
		c0.1-0.3,0.3-0.6,0.6-0.6c0.2-0.1,0.5,0.1,0.7,0.3c0.3,0.3,0.5,0.6,0.6,1c0.1,0.3,0,0.7-0.2,0.9c-1.2,1.2-2.5,2.4-3.7,3.5
		c-0.1,0.1-0.5,0.1-0.6,0C27.2,13.1,27.1,12.8,26.9,12.6z"/>
</g>
<g>
	<path fill-rule="evenodd" clip-rule="evenodd" d="M6.3,31.7c0.7,0.3,1.4,0.5,2.1,0.7c1.1,0.5,2.1,1.2,2.4,2.4c0,0.1,0,0.3,0,0.4
		C8.6,35.3,6.6,33.7,6.3,31.7z"/>
</g>
<g>
	<path fill-rule="evenodd" clip-rule="evenodd" d="M9.3,28.1c-0.2-1.3-0.1-3,1-3.6c0.6-0.3,1-0.9,1.4-1.3c0.6,1.2,0.2,2.6-0.8,3.5
		C10.4,27.1,9.9,27.6,9.3,28.1z"/>
</g>
<g>
	<path fill-rule="evenodd" clip-rule="evenodd" d="M8.3,26.1c-0.1-0.6-0.3-1.2-0.4-1.8c0-0.1-0.1-0.3-0.1-0.4
		c0.1-1.1,1.3-2.6,2.4-2.9C10.4,23.1,9.7,24.8,8.3,26.1z"/>
</g>
<g>
	<path fill-rule="evenodd" clip-rule="evenodd" d="M7.9,28.3c-2.4-1.2-2.8-2.8-1.4-5.1C7,24.1,7.6,24.9,7.6,26
		C7.6,26.8,7.8,27.5,7.9,28.3z"/>
</g>
<g>
	<path fill-rule="evenodd" clip-rule="evenodd" d="M5.3,27.5c1.7,0.9,3.5,1.8,3.6,4.1c-1-0.6-2.3-0.7-3-1.9
		C5.5,28.9,5.2,28.2,5.3,27.5z"/>
</g>
<g>
	<path fill-rule="evenodd" clip-rule="evenodd" d="M9.7,31.3c0.1-0.9,0.1-2,0.5-2.8c0.4-0.8,1.3-1.3,2.1-2.1c0,1.2,0.2,2.3-0.7,3.1
		c-0.6,0.5-1.1,1.2-1.6,1.8C9.9,31.3,9.8,31.3,9.7,31.3z"/>
</g>
<g>
	<path fill-rule="evenodd" clip-rule="evenodd" d="M14.5,37.1c1.8-0.2,3.3,0.9,4.1,3c-1.1-0.2-2.3-0.1-2.9-1.3
		C15.4,38.2,14.9,37.7,14.5,37.1z"/>
</g>
<g>
	<path fill-rule="evenodd" clip-rule="evenodd" d="M12.1,29.9c0.8,2,0.5,4.1-0.7,5.1c0-1.4-1-2.7-0.1-4
		C11.5,30.7,11.8,30.3,12.1,29.9z"/>
</g>
<g>
	<path fill-rule="evenodd" clip-rule="evenodd" d="M12.6,39.5c1.1-0.1,2.2-0.3,3.3,0.4c0.5,0.4,1.3,0.4,1.9,0.7
		C15.1,41.6,14,41.4,12.6,39.5z"/>
</g>
<g>
	<path fill-rule="evenodd" clip-rule="evenodd" d="M12.9,38.8c-0.8-0.3-1.6-0.5-2.4-0.8c-0.9-0.3-1.3-1.1-1.6-1.9
		c0.7,0.1,1.5,0.3,2.2,0.4c0.2,0.1,0.4,0.2,0.6,0.4c0.5,0.6,0.9,1.1,1.3,1.7C12.9,38.7,12.9,38.7,12.9,38.8z"/>
</g>
<g>
	<path fill-rule="evenodd" clip-rule="evenodd" d="M21.4,40.9c-0.5,0.4-0.9,1-1.3,1c-1.2,0.2-2.4,0.6-3.7,0.2
		C17.7,40.4,19.5,40.8,21.4,40.9z"/>
</g>
<g>
	<path fill-rule="evenodd" clip-rule="evenodd" d="M12.7,33.9c0.8,1.5,1.9,2.7,1.1,4.5c-0.5-0.5-1.3-0.9-1.3-1.7
		C12.5,35.8,12.3,34.9,12.7,33.9z"/>
</g>
<g>
	<path fill-rule="evenodd" clip-rule="evenodd" d="M39.4,32.5c0.3-1,0.5-1.3,1.2-0.9c0.2,0.1,0.4,0.4,0.3,0.5
		c-0.1,0.5-0.3,1.1-0.4,1.6c0,0.1-0.2,0.1-0.3,0.2c-0.7,0.1-1.4-0.6-1.4-1.3C39.1,32.6,39.3,32.6,39.4,32.5z"/>
</g>
</svg>
