<?xml version="1.0" encoding="utf-8"?>
<!-- Generator: Adobe Illustrator 18.0.0, SVG Export Plug-In . SVG Version: 6.00 Build 0)  -->
<!DOCTYPE svg PUBLIC "-//W3C//DTD SVG 1.1//EN" "http://www.w3.org/Graphics/SVG/1.1/DTD/svg11.dtd">
<svg version="1.1" id="Layer_1" xmlns="http://www.w3.org/2000/svg" xmlns:xlink="http://www.w3.org/1999/xlink" x="0px" y="0px"
	 width="48px" height="48px" viewBox="0 0 48 48" enable-background="new 0 0 48 48" xml:space="preserve">
<path fill-rule="evenodd" clip-rule="evenodd" d="M47,22.9c0,0.7,0,1.4,0,2.2c0,0.1,0,0.2,0,0.3c-0.1,1.5-0.3,2.9-0.7,4.3
	c-1,3.8-2.8,7.2-5.6,10.1c-2.7,2.9-5.9,4.9-9.6,6.1c-1.7,0.5-3.4,0.9-5.1,1c-0.3,0-0.6,0.1-0.9,0.1c-0.7,0-1.4,0-2.1,0
	c-0.1,0-0.2,0-0.3,0c-1.8-0.1-3.5-0.4-5.3-0.9c-3.2-0.9-6-2.5-8.5-4.7c-2.7-2.3-4.7-5.1-6.1-8.3C2,31,1.4,28.8,1.1,26.5
	C1.1,26,1,25.5,1,25.1c0-0.7,0-1.4,0-2.2c0-0.1,0-0.2,0-0.3c0.1-1.6,0.3-3.2,0.8-4.8C3.8,11.1,8,6.2,14.3,3.2
	C16.7,2,19.3,1.3,22,1.1c0.3,0,0.6-0.1,0.8-0.1c0.7,0,1.5,0,2.2,0c0.3,0,0.6,0.1,0.8,0.1c1.9,0.1,3.8,0.5,5.6,1.2
	c6.7,2.4,11.4,7,14,13.6c0.8,2,1.2,4.1,1.4,6.2C46.9,22.3,47,22.6,47,22.9z M24,2.1C11.9,2.1,2.1,11.9,2.1,24
	c0,12,9.8,21.9,21.9,21.9c12.1,0,22-9.8,21.9-21.9C45.9,11.9,36.1,2.1,24,2.1z"/>
<path fill-rule="evenodd" clip-rule="evenodd" d="M13.2,27.1c-0.2-0.4-0.4-0.7-0.5-1c-0.1-0.3-0.2-0.6-0.3-0.9
	c0-0.2-0.1-0.2-0.3-0.3c-1.4-0.4-2.7-0.1-3.9,0.7c-1.2,0.8-1.9,2-2.3,3.3c-0.6,1.7-0.7,3.3-0.3,5c0,0,0,0.1,0,0.1
	c0-0.1-0.1-0.1-0.1-0.1c-1.2-2.3-2-4.7-2.3-7.2c-0.7-6,0.8-11.4,4.6-16.1c3.1-3.8,7-6.2,11.8-7.2C21.3,3,23.2,2.9,25.1,3
	c9.3,0.5,17,7,19.3,15.8c0.5,2.1,0.7,4.2,0.6,6.3c-0.2,4.1-1.5,7.8-3.9,11.1c-0.1,0.1-0.2,0.2-0.4,0.2c-0.4,0-0.9,0-1.3,0.3
	c-0.6,0.4-0.7,1,0,1.4c0,0,0.1,0,0.1,0.1c-7.2,8.2-20.1,9.4-28.8,2.3c0.4,0,0.8,0.1,1.2,0.1c1.2-0.1,2.2-0.6,3-1.4
	c1.1-1.1,1.7-2.4,2-3.9c0.1-0.4,0.1-0.7,0-1.1c-0.2-0.6-0.3-1.2-0.5-1.8c-0.1-0.4-0.4-0.6-0.7-0.8c0,0.5,0.1,0.9,0.1,1.4
	c0,1.6-0.3,3.2-1.3,4.5c-0.8,1.1-1.9,1.6-3.3,1.6c-0.9,0-1.6-0.4-2.3-1c-1.4-1.1-2.2-2.6-2.5-4.3c-0.3-1.7-0.1-3.3,0.6-4.8
	c0.3-0.7,0.8-1.3,1.4-1.8c1.3-1,2.7-1,4.1-0.3c0.1,0,0.1,0.1,0.2,0.1C13,27,13.1,27.1,13.2,27.1z M30,38.4C30,38.4,30,38.4,30,38.4
	c-0.1,0.3-0.2,0.5-0.4,0.7c0.6,0,1.2-0.1,1.7-0.5c0.4-0.3,0.8-0.8,1.3-1.2c-0.3-0.5-0.7-1.1-1-1.6c0.2-0.2,0.1-0.3-0.1-0.5
	c-0.2-0.1-0.3-0.3-0.2-0.5c0.1-0.2,0-0.3-0.2-0.4c-0.3-0.1-0.5-0.1-0.8-0.1c-0.6,0-1-0.4-1.4-0.9c0.5,0.2,1,0.6,1.6,0.4
	c-0.2-0.7-0.5-1.4-0.7-2.1c-0.4-1.3-0.8-2.6-1.2-4c-0.1-0.5-0.4-0.7-0.9-0.7c-0.2,0-0.3,0-0.5,0c-0.2,0-0.5,0.1-0.8,0.2
	c0.3-0.3,0.7-0.4,1.1-0.6c-0.5-0.1-1.1-0.2-1.6-0.2c-0.9-0.1-1.8-0.1-2.7,0.2c-1,0.3-1.8,0.9-2.1,1.9c-0.2,0.6,0,1.1,0.6,1.3
	c0.2,0.1,0.3,0.1,0.5,0.1c0.6,0,1.1-0.1,1.6-0.3c0.1,0,0.3,0,0.3,0.1c0,0.1,0,0.2,0,0.3c0,0.1-0.1,0.1-0.2,0.2
	c-0.3,0.2-0.6,0.4-0.9,0.6c-0.7,0.4-1.5,0.5-2.3,0.1c0,0,0,0-0.1,0c0.3,0.3,0.8,0.5,1.2,0.6c1.4,0.3,2.7-0.1,3.3-1.5
	c0-0.1,0.1-0.1,0.2-0.1c0.3-0.1,0.6-0.2,0.9-0.3c0.3-0.1,0.5-0.4,0.7-0.6c-0.1,0.6-0.3,1.3-0.8,1.8c-0.3,0.2-0.4,0.5-0.6,0.8
	c-0.6,1.1-1.6,1.7-3,1.7c-0.5,0-0.9,0-1.3-0.3c0.1,0.1,0.1,0.2,0.2,0.2c1.4,1.4,3.1,2.5,5.1,3.1c1.5,0.4,3,0.5,4.4-0.2
	c0.1,0,0.1,0,0.2-0.1c-0.2,0.3-0.5,0.6-0.9,0.8c-0.3,0.1-0.6,0.3-0.9,0.5c-0.9,0.6-1.9,1-3,1.2c-0.3,0-0.7,0.1-1,0.1
	c0,0.3,0.2,0.5,0.5,0.6c0.5,0.2,1,0.2,1.5,0c-0.3-0.1-0.7-0.1-0.9-0.4C27.5,39.1,28.8,38.9,30,38.4z M16.2,17.4
	c0.2,0.8-0.1,1.5-0.3,2.2c-0.2,0.4-0.2,0.9-0.3,1.3c-0.1,0.3-0.1,0.6,0.2,0.9c0.4,0.5,0.8,0.9,1.2,1.4c0.2,0.2,0.4,0.3,0.6,0.2
	c0.2-0.1,0.1-0.4,0.1-0.6c0.4-0.1,0.5,0.1,0.7,0.6c0.2,0,0.4-0.2,0.4-0.4c0.3-0.6,0.5-1.2,0.8-1.7c0-0.1,0.1-0.1,0.1-0.3
	c0.3,1,0,1.8-0.3,2.6c0.7-0.2,1.1-0.9,1.6-1.4c0,0.3-0.1,0.6-0.1,0.9c0.2,0,0.3-0.1,0.4-0.2c0.1-0.3,0.3-0.6,0.3-1
	c0.1-0.6,0.2-1.1,0.6-1.6c0.2-0.3,0.3-0.7,0.2-1c0-0.2-0.1-0.3-0.1-0.5c0-0.2,0-0.3-0.1-0.5c0.5,0.2,1,0.5,1.5,0.7
	c1,0.3,2.1,0.6,3.1,0.9c0.1,0,0.2,0,0.3,0c0.7,0,1.3-0.2,1.9-0.5c0.9-0.4,1.7-0.9,2.5-1.4c0.2-0.1,0.5-0.3,0.7-0.4
	c0.1,0,0.3-0.1,0.4,0c0.4,0.1,0.7,0.3,1,0.4c-0.4,0.5-0.8,1.1-1.2,1.7c0.1,0.1,0.2,0.1,0.3,0.2c0.5-0.7,1-1.4,1.5-2.1
	c0,0-0.1-0.1-0.1-0.2c0.4,0.1,0.9,0.3,1.1-0.3c-0.2,0-0.5-0.1-0.7-0.1c-0.1,0-0.1,0-0.2,0c-0.3,0.4-0.7,0.3-1.1,0.2
	c-0.4-0.1-0.7-0.3-1.1-0.4c0.2-0.1,0.4-0.1,0.7,0c0.3,0,0.7,0.2,1,0.1c0.5,0,0.9-0.1,1.4,0c0.1,0,0.2,0,0.3-0.1
	c-0.1-0.1-0.2-0.2-0.3-0.2c-0.2-0.1-0.5-0.2-0.8-0.2c0.3-0.1,0.6-0.1,0.9,0c0,0,0.1,0.1,0.1,0.1c0.4,0.7,1,0.9,1.8,0.7
	c-0.4-0.5-0.8-0.9-1.4-1c0.2-0.1,0.5-0.3,0.7-0.4c0.4,0.7,1.1,0.9,1.9,1c-0.1-0.4-0.3-0.7-0.6-0.8c-0.3-0.1-0.6-0.2-0.9-0.3
	c0.3-0.1,0.6-0.2,0.9-0.4c0.4,0.8,1.1,1,1.9,1.1c-0.1-0.9-0.8-1.1-1.6-1.2c0.3-0.1,0.5-0.2,0.7-0.2c0.1,0,0.2,0,0.3,0.1
	c0.5,0.5,1.1,0.7,1.7,0.8c0-0.3-0.1-0.5-0.3-0.7c-0.2-0.2-0.4-0.3-0.6-0.4c0.8,0.1,1.5-0.2,2-0.8c-0.2,0-0.4-0.1-0.6-0.1
	c-0.7-0.2-1.4,0-1.9,0.5c-0.3,0.3-0.6,0.4-1,0.4c0.4-0.3,0.6-0.7,0.8-1.2c-0.3,0.1-0.6,0.1-0.9,0.2c-0.5,0.2-0.7,0.6-0.9,1.1
	c0,0.1,0,0.2-0.1,0.3c-0.2,0.1-0.4,0.2-0.6,0.3c0.5-0.5,0.7-1.1,0.7-1.8c-0.6,0.1-1,0.4-1.1,1c-0.1,0.3,0,0.6-0.1,0.8
	c0,0.1,0,0.2,0,0.2c-0.3,0.2-0.5,0.3-0.8,0.5c0.4-0.5,0.5-1,0.4-1.6c-0.7,0.3-0.9,0.8-0.8,1.5c-0.2,0-0.3,0-0.4,0
	c-0.6,0-1.3,0.1-1.9,0.1c-0.4,0-0.8,0.1-1.1,0.2c-0.7,0.2-1.4,0.4-2,0.7c-0.7,0.2-1.5,0.4-2.2,0.7c-0.5,0.2-0.8,0.2-1.2-0.1
	c-0.7-0.6-1.6-0.9-2.4-1.3c-0.3-0.2-0.6-0.1-0.9,0c-0.6,0.4-1,0.8-1.2,1.5c-0.2,0.6-0.5,1-1,1.3c0,0,0,0-0.1,0
	c0-0.2,0.1-0.4,0.1-0.6c0,0,0,0,0,0c-0.2,0.2-0.5,0.5-0.6,0.7c-0.2,0.3-0.3,0.6-0.4,0.8c-0.2-0.3-0.3-0.6-0.6-0.9
	c-0.2-0.3-0.5-0.5-1-0.6c0.1,0.2,0.1,0.3,0.2,0.4c0.2,0.5,0.4,1,0.4,1.6c0,0.4-0.1,0.7-0.4,1c0-0.1,0-0.1,0-0.1
	c0.1-0.9-0.2-1.8-0.6-2.6c-0.1-0.1-0.2-0.2-0.3-0.3c-0.1,0.1-0.2,0.2-0.3,0.4c-0.3,0.7-0.3,1.4-0.2,2.2c0,0.4,0.1,0.7,0.2,1.1
	c-0.5-0.7-0.8-1.5-0.8-2.4c0-0.4,0.1-0.8,0.2-1.2C16.7,18.2,16.7,17.8,16.2,17.4z M13,18.3C13,18.3,13,18.3,13,18.3
	c-0.2,0.4-0.5,0.9-0.6,1.3c-0.2,0.8-0.3,1.7-0.4,2.5c0,0,0,0.1,0,0.1c-0.1,0.5-0.1,0.9,0,1.4c0.2,0.8,0.6,1.6,1,2.3
	c0.4,0.7,1,1.3,1.5,1.9c0.5,0.6,0.9,1.1,0.9,1.9c0,0.3,0,0.5,0.3,0.7c0,0,0,0.1,0.1,0.1c0,0.1,0.1,0.1,0.2,0.2
	c0.2,0.1,0.3,0.3,0.4,0.5c0.1,0.3,0.3,0.7,0.5,1c0.1,0.1,0.2,0.3,0.2,0.4c0.8,3.2,1.6,6.5,2.4,9.7c0,0.1,0.1,0.3,0.1,0.4
	c0,0.1,0.2,0.1,0.3,0.1c0,0,0.1-0.1,0.1-0.2c0-0.1,0-0.3,0-0.4c-0.4-1.4-0.7-2.9-1.1-4.3c0-0.1,0-0.2,0-0.4c0.2-0.5,0.3-1,0.5-1.5
	c-0.3-0.1-0.7-0.1-0.8-0.4c0.2,0,0.4-0.1,0.6-0.1c0.2,0,0.3-0.2,0.3-0.4c0.1-1.2,0.1-2.4,0.2-3.6c0.1-0.9,0.1-1.8,0.4-2.7
	c0.3-1.3,1.1-2.3,2.5-2.5c0.7-0.1,1.3-0.1,2-0.2c0.1,0,0.2,0,0.3,0c-0.1-0.1-0.1-0.1-0.2-0.1c-0.9-0.2-1.8-0.3-2.8-0.2
	c-1,0.2-1.7,0.8-2.3,1.6c-0.5,0.7-0.8,1.6-1,2.4c-0.4,1.4-0.5,2.8-0.4,4.3c0,0.2,0,0.4,0,0.6c0,0,0,0-0.1,0
	c-0.3-1.2-0.6-2.3-0.9-3.6c-0.1,0.2-0.2,0.3-0.3,0.4c0-0.3,0-0.6,0-0.8c0-0.1,0.1-0.1,0.1-0.2c0.1,0.1,0.1,0.1,0.1,0.2
	c0,0.1,0,0.3,0.1,0.4c0,0.1,0.1,0.1,0.2,0.2c0,0,0.1,0,0.1-0.1c-0.1-0.4-0.1-0.8-0.2-1.2c-0.1-0.5-0.4-0.9-0.7-1.2
	c-0.1-0.1-0.2-0.2-0.3-0.3c-0.3-0.4-0.6-0.9-0.8-1.3c-0.7-1.4-1.2-2.8-2-4.2c-0.1-0.2-0.1-0.3,0-0.5c0.2-0.3,0.4-0.7,0.2-1.1
	C13.5,20.4,13.3,19.4,13,18.3z M20.3,14.1c0.4,0.6,0.7,1.2,0.4,1.9c0-0.6-0.3-1.1-0.8-1.6c-0.2,0.3-0.4,0.6-0.6,0.8
	c0-0.1,0-0.2,0-0.3c0-0.1,0.1-0.3,0.1-0.4c0.1-0.3,0.2-0.6,0.3-0.9c0.1-0.2,0-0.3-0.1-0.5c-0.2-0.2-0.3-0.4-0.3-0.7
	c0.1,0.1,0.1,0.1,0.1,0.1c0.4,0.3,0.9,0.5,1.5,0.5c0.3,0,0.4-0.1,0.4-0.4c0-0.1,0-0.2,0-0.2c0.2-0.1,0.1-0.2,0.1-0.3
	c0.1-0.1,0.2-0.2,0.2-0.2c-0.1-0.2,0.1-0.3,0.3-0.3c0.2,0,0.2-0.1,0.2-0.3c-0.1-0.1-0.1-0.3-0.2-0.4c-0.1-0.2-0.1-0.5-0.1-0.7
	c0-0.2,0.1-0.3,0-0.5c-0.1-0.3-0.1-0.5,0.2-0.6C22,9.1,22.1,9,22,8.9c0-0.1-0.1-0.3-0.2-0.3c-0.2-0.2-0.5-0.3-0.7-0.5
	c-0.7-0.6-1.5-0.8-2.4-0.7c-0.4,0-0.9,0.1-1.2,0.4c-0.4,0.5-0.8,0.9-1.2,1.5c-0.4,0.6-0.3,1.3,0,2c0.1,0.1,0.2,0.2,0.3,0.3
	c0-0.1,0-0.1,0-0.2c-0.1-0.5-0.2-1-0.1-1.5c0.2-1.1,1-2.4,2.7-2.3c0.4,0,0.8,0.2,0.9,0.4c-0.6-0.1-1-0.1-1.5,0.1
	c-0.6,0.2-1.3,0.7-1.2,1.6c0,0,0,0.1,0,0.1c-0.3,0-0.3-0.2-0.4-0.3c-0.2,0.6-0.1,1.3,0.4,1.6c0.1,0.1,0.2,0.1,0.4,0.1
	c0-0.1,0-0.2,0-0.3c-0.1-0.3-0.1-0.6,0.1-0.7c0.3-0.1,0.5-0.3,0.6-0.7c0.2,0.3,0.1,0.6-0.1,0.9c0.2-0.1,0.3-0.1,0.5-0.3
	c0.2-0.2,0.4-0.3,0.7-0.3c-0.3,0.4-0.6,0.7-0.8,1c0.3,0.1,0.5,0,0.8-0.3c0.2-0.2,0.3-0.5,0.5-0.7c0.1-0.1,0.3-0.2,0.5-0.3
	c0,0,0,0,0,0.1c-0.3,0.2-0.5,0.5-0.6,0.8c-0.2,0.3-0.3,0.7-0.5,1c-0.4,0.7-1,1.3-1.8,1.5c-0.2,0-0.2,0.1-0.3,0.3
	c-0.2,0.8-0.6,1.4-1.4,1.6c-0.1,0-0.2,0.1-0.2,0.1c0.3,0.2,0.6,0.3,0.9,0.6c0.4,0.4,0.9,0.8,1.3,1.1c0.3,0.3,0.7,0.6,1.2,0.7
	c0.3,0.1,0.6,0.1,0.9,0.1c-0.1,0.2-0.4,0.2-0.7,0.3c0,0.2,0,0.4,0.1,0.6c0.1,0.2,0.2,0.3,0.4,0.2c0.3-0.1,0.5-0.2,0.8-0.4
	c0.3-0.3,0.6-0.6,1-0.8c0.3-0.3,0.6-0.6,1-0.8c0.2-0.2,0.5-0.2,0.8-0.4c-0.1,0-0.2-0.1-0.3-0.1c-0.4-0.1-0.6-0.3-0.9-0.6
	c-0.1-0.1-0.2-0.3-0.3-0.4c-0.1-0.1-0.2-0.1-0.3-0.2c0,0,0,0-0.1,0.1c0.2,0.5,0.3,0.9,0.1,1.4c-0.2,0.4-0.7,0.7-1.1,0.9
	c0-0.3,0.2-0.3,0.3-0.5c0.7-0.6,0.8-1.5,0.2-2.2C20.8,14.2,20.6,14.1,20.3,14.1z M12.3,38c-0.8-1.5-1.3-3.1-1.6-4.8
	c0.3,0,0.5,0,0.8-0.1c1.2-0.1,2.5-0.1,3.7-0.1c0.2,0,0.2-0.1,0.2-0.2c0-0.4-0.1-0.8-0.1-1.3c0-0.1-0.1-0.1-0.2-0.1
	c-1.1,0-2.2,0-3.3,0c-0.4,0-0.8,0-1.2,0.1c-0.1-1.6,0.2-3.1,0.6-4.7c-0.4-0.1-0.9-0.1-1.4,0.1c-0.1,0-0.2,0.1-0.2,0.2
	C9.2,28.2,9,29.3,9,30.4c0,0.4,0,0.8,0,1.2c-0.1,0-0.2,0-0.2,0c-0.6,0.1-1.2,0.3-1.8,0.4c-0.1,0-0.2,0.1-0.1,0.1
	c0,0.5,0.1,1,0.2,1.4c0.8-0.1,1.5-0.2,2.2-0.3c0,0.1,0,0.2,0.1,0.3c0.3,1.5,0.7,2.9,1.4,4.3c0,0.1,0.1,0.1,0.2,0.1
	C11.3,38.2,11.8,38.2,12.3,38z M14.6,41.6C14.6,41.6,14.6,41.7,14.6,41.6c1.9,1.1,4,1.8,6.2,2.2c2.2,0.4,4.4,0.4,6.6,0
	c2.2-0.4,4.2-1.1,6.2-2.1c-4.5,0-8.9,0-13.4,0c0.1,0.4,0.2,0.7,0.2,1.1c0.1,0.5-0.3,0.8-0.7,0.6c-0.2-0.1-0.4-0.2-0.4-0.5
	c-0.1-0.3-0.2-0.7-0.3-1c0-0.2-0.1-0.3-0.4-0.3c-1.2,0-2.4,0-3.6,0C14.8,41.6,14.7,41.6,14.6,41.6z M11.9,11.8
	c0,0.1,0.1,0.2,0.1,0.3c1.2,4.9,2.4,9.8,3.7,14.6c0,0.2,0.1,0.3,0.2,0.5c0,0.1,0.1,0.1,0.2,0.1c0.1,0,0.1-0.1,0.2-0.2
	c0-0.1,0-0.3,0-0.4c-0.1-0.4-0.2-0.7-0.3-1.1c-0.4-1.6-0.8-3.2-1.2-4.8c0-0.1,0-0.2,0-0.3c0.2-0.4,0.3-0.8,0.5-1.3
	c0.1-0.3,0.3-0.6,0.4-1c0.1,0.1,0.2,0.1,0.3,0.2c0-0.1,0.1-0.2,0.1-0.3c0-0.2,0-0.4,0-0.6c0-0.5-0.2-1-0.6-1.4
	c-0.5-0.5-1.2-0.4-1.5,0.3c0,0.1-0.1,0.2-0.1,0.3c-0.4-1.7-0.8-3.4-1.3-5c0,0,0,0,0.1-0.1c0.2,0.1,0.3,0.1,0.5,0.2
	c-0.3-1.1-0.6-2.1-1.6-2.9c-0.4,1.1-0.3,2.2,0.1,3.3C11.5,12,11.6,11.8,11.9,11.8z M19.6,39.6c0.1,0.5,0.2,0.9,0.3,1.3
	c0,0.2,0.1,0.2,0.3,0.2c4.6,0,9.2,0,13.8,0c0.1,0,0.1,0,0.2,0c0,0,0-0.1,0-0.1c-0.2,0-0.3-0.1-0.5-0.1c-0.6,0-1.2-0.2-1.7-0.5
	c-0.4-0.3-1-0.5-1.5-0.7c-0.1-0.1-0.3-0.1-0.5,0c-0.6,0.2-1.3,0.3-2,0.2c-0.1,0-0.2,0-0.2,0c-0.7,0.3-1.4,0.3-2,0
	c-0.2,0-0.3,0-0.4,0c-0.4,0.2-0.8,0.3-1.3,0c-0.1,0-0.2,0-0.3,0c-0.5,0.2-0.6,0.2-1-0.1c-0.1,0-0.1-0.1-0.2-0.1
	c-0.2-0.1-0.4-0.2-0.6,0c-0.7,0.4-1.3,0.4-2,0.1C19.8,39.7,19.7,39.6,19.6,39.6z M31.2,32c0.2,0,0.4-0.1,0.6-0.1
	c0.2-0.1,0.5-0.2,0.5-0.4c0-0.2-0.2-0.4-0.5-0.5c-0.2-0.1-0.4-0.1-0.6-0.1c0-0.1,0-0.2,0-0.3c0-1.1-0.1-2.2-0.1-3.3
	c0-0.5-0.2-0.8-0.7-1c-0.8-0.3-1.5-0.6-2.3-0.8c-0.2-0.1-0.5-0.2-0.7-0.2c-0.7,0-1.3,0.4-1.9,0.8c0.1,0,0.2,0,0.2,0
	c0.6,0,1.1,0.1,1.7,0.1c0.6,0.1,1.1,0.3,1.5,0.9c0.1,0.2,0.3,0.3,0.4,0.4c0.3,0.2,0.5,0.2,0.8,0c0.2-0.1,0.3-0.2,0.5-0.3
	c-0.1,0.4-0.2,0.7-0.5,1c-0.4,0.4-0.5,0.9-0.4,1.5c0,0.1,0,0.3,0.1,0.4c0.2-0.5,0.2-1,0.8-1.3c-0.6,1.9-0.2,3.6,0.9,5.2
	C31.3,33.3,31.2,32.7,31.2,32z M15.3,33.4c-1.3,0-2.7,0.1-4,0.1c0.3,1.5,0.7,3,1.4,4.3C14.4,37.1,15.2,35.2,15.3,33.4z M15.1,31
	c-0.2-1.7-2.1-3.9-3.5-4.1C11.2,28.2,11,29.6,11,31C12.4,31,13.8,31,15.1,31z M17.9,30.3c0.6-2.1,1.6-4,4-4.7
	c-0.8-0.1-1.6,0.2-2.4,0.4c0.8-0.8,1.9-0.8,3-0.8c-0.1-0.1-0.2-0.2-0.2-0.3c0,0,0,0,0-0.1c0.7,0.3,1.4,0.1,2.1,0.1
	c-0.5,0.3-1,0.4-1.5,0.5c0.5,0.2,1.1,0.4,1.7,0.3c0.7-0.1,1.4-0.4,2.2-0.6c0,0,0,0,0-0.1c-0.1-0.1-0.2-0.1-0.3-0.2
	c-0.5-0.2-0.9-0.3-1.4-0.2c-0.2,0-0.4,0-0.6,0c-0.2,0-0.3-0.1-0.5-0.1c-0.6-0.2-1.1-0.2-1.6,0.2c-0.1,0.1-0.2,0.1-0.4,0.1
	c-0.5,0-0.9,0-1.4,0.1c-1.1,0.4-1.9,1.1-2.5,2c-0.1,0.1-0.1,0.3-0.1,0.4c0,0.2,0,0.4,0,0.6C17.8,28.7,17.8,29.5,17.9,30.3z
	 M20.6,34.2c0.2,1.5,1.6,3.1,3.3,3.6c0.8,0.2,1.6,0.4,2.4,0.3c0.6-0.1,2-0.6,2.2-0.9c-0.1,0-0.2,0-0.3,0c-0.8,0.1-1.5,0.1-2.3,0
	c-1.3-0.2-2.5-0.8-3.6-1.6C21.8,35.1,21.3,34.6,20.6,34.2z M34,36.8c-0.5,0.1-0.7,0.5-0.5,1c0.1,0.2,0.2,0.3,0.3,0.5
	c0.6,0.4,1.2,0.6,1.8,0.2c0.1,0.6,0.4,0.9,0.9,1.1c0.5,0.2,1,0.1,1.5-0.2c0.3-0.3,0.5-0.7,0.4-1.1c-0.1-0.5-0.5-0.9-1.2-1
	c-0.6-0.1-1.2,0.2-1.5,0.7c0,0.1-0.1,0.1-0.1,0.2c0-0.1,0-0.2,0-0.3C34.6,37.8,34.3,37.6,34,36.8z M35.5,39.7
	c-0.4-0.2-0.8-0.5-1.2-0.7c-0.4-0.3-0.7-0.6-1.1-0.9c-0.5-0.4-0.4-0.3-0.8,0c-0.4,0.4-0.8,0.8-1.2,1.1c0.4,0.3,0.9,0.6,1.4,0.8
	c0.8,0.4,1.5,0.5,2.3,0.1c0,0,0.1,0,0.1,0C35.3,40.1,35.4,40,35.5,39.7z M37,33.2C37,33.2,37,33.2,37,33.2c0.5,0.2,0.9,0.3,1.3-0.1
	c0,0,0.1,0,0.2,0c0.2,0,0.4,0.1,0.6,0.1c0.4,0,0.5-0.3,0.3-0.6c-0.3-0.4-1-0.7-1.5-0.6c-0.3,0.1-0.4,0.2-0.3,0.5
	c0,0.1,0.1,0.2,0.1,0.2c0,0,0,0,0,0c-0.1-0.1-0.3-0.2-0.4-0.3c0,0-0.1-0.1-0.1-0.1c-0.2,0-0.4,0-0.6,0.1c0,0.1,0,0.3,0,0.4
	c-0.7-0.1-1.2,0.3-1.3,0.8c-0.1,0.4,0.1,0.7,0.4,0.8C36.1,34.6,37.1,34.1,37,33.2z M9,27.2c-1.3,0.6-2.4,2.9-2.3,4.4
	c0.1,0,0.1,0,0.2,0c0.5-0.1,0.9-0.2,1.4-0.3c0.2,0,0.2-0.1,0.2-0.2c0.1-0.8,0.1-1.6,0.2-2.4C8.8,28.2,8.9,27.7,9,27.2z M7.1,34.1
	c0.4,1.8,1.8,3.4,3.1,3.7c-0.7-1.3-1.1-2.6-1.4-4C8.2,34,7.7,34,7.1,34.1z M36.3,32c0.1,0,0.3,0,0.4,0c0.3-0.1,0.5-0.1,0.8-0.2
	c0.2-0.1,0.3-0.4,0.1-0.6c-0.2-0.2-0.4-0.3-0.6-0.2c-0.2,0.1-0.4,0.2-0.6,0.2c-0.1,0-0.3,0-0.4,0c0,0,0,0,0-0.1
	c0.1,0,0.2-0.1,0.3-0.1c0.2-0.1,0.3-0.2,0.5-0.3c0.2-0.2,0.1-0.5-0.1-0.6c-0.2-0.1-0.4-0.1-0.5-0.1c-0.1,0-0.1,0.1-0.2,0.1
	c-0.1,0.3-0.3,0.4-0.6,0.5c-0.2,0-0.4,0.1-0.6,0.1c0,0.1,0,0.2,0,0.3c0.2,0.1,0.4,0.2,0.6,0.4c-0.2,0.4-0.7,0.5-1.2,0.5
	c0.1,0.4,0.4,0.6,0.9,0.7C35.7,32.6,36.1,32.4,36.3,32z M13.7,15.6c1-0.3,1.7,0,2.2,0.7c0.2,0.3,0.4,0.6,0.7,0.9
	c0.4,0.5,0.8,0.8,1.4,1c0.4,0.1,0.7,0.1,1-0.1c-0.4-0.2-0.8-0.4-1.1-0.8c-0.4-0.4-0.8-0.9-1.1-1.3c-0.3-0.4-0.7-0.8-1.2-1
	C14.9,14.7,14.1,14.9,13.7,15.6z M10.6,21.9c0.1,0.4,0.2,0.7,0.5,1c0-0.1,0-0.1,0-0.2c-0.2-1-0.1-2,0.2-2.9c0.3-0.8,0.6-1.6,1-2.4
	c0-0.1,0.1-0.2,0.1-0.3c0,0-0.1,0-0.1-0.1c-0.1,0.1-0.3,0.2-0.4,0.4c-0.4,0.6-0.8,1.2-1.1,1.8c-0.6,1.2-1,2.6-0.7,4
	c0.1,0.4,0.2,0.8,0.4,1.2C10.4,23.6,10.3,22.8,10.6,21.9z M17.2,24.8C17.1,24.9,17,24.9,17,25c-0.1,0.2-0.3,0.4-0.1,0.5
	c0.2,0.2,0.3,0,0.5-0.1c0.3-0.2,0.6-0.4,1-0.4c0.5-0.1,1.1-0.1,1.6-0.2c0.4-0.1,0.8-0.2,1.3-0.3c0.1,0,0.2-0.1,0.1-0.2
	c0-0.1-0.1-0.1-0.2-0.2c0,0-0.1,0-0.2,0c-1,0.1-1.9,0.1-2.9-0.1c-0.7-0.1-1.3,0-1.7,0.5c-0.2,0.3-0.4,0.6-0.3,0.9
	C16.3,25.1,16.6,24.8,17.2,24.8z M18.4,39.6c-0.4,0.2-0.8,0.4-1.2,0.6c-0.4,0.2-0.8,0.3-1.3,0.4c-0.6,0.1-1.2,0.2-1.7,0.3
	c-0.1,0-0.2,0.1-0.3,0.1c0,0,0,0.1,0,0.1c1.6,0,3.2,0,4.9,0C18.6,40.6,18.5,40.1,18.4,39.6z M38.7,35.2c0,0.6,0.5,1,1.2,0.9
	c0.5-0.1,1-0.5,0.9-1c0-0.5-0.5-0.9-1-0.9C39.6,34.9,39.2,35.1,38.7,35.2z M33.5,30c0.2,0.1,0.3,0.3,0.5,0.3c0.4,0.1,0.8,0.1,1.2,0
	c0.2,0,0.4-0.1,0.4-0.3c0-0.2-0.2-0.3-0.3-0.3c-0.4-0.2-0.8-0.2-1.3,0c0.1-0.2,0-0.3-0.2-0.3c-0.6,0.1-1.2,0.3-1.7,0.7
	c-0.1,0.1-0.1,0.2-0.2,0.3c0.1,0,0.2,0.1,0.3,0.1C32.7,30.4,33.1,30.2,33.5,30z M14.3,40.1C14.4,40.1,14.4,40.2,14.3,40.1
	c0.1,0.1,0.2,0.1,0.2,0.1c0.5,0,0.9,0,1.4-0.1c0.8-0.2,1.5-0.5,2.1-1.1c0.1-0.1,0.1-0.2,0.1-0.2c-0.1-0.3-0.1-0.6-0.2-1
	c-0.2,0.5-0.4,1-0.8,1.4c-0.4-0.3-0.8-0.1-1.1,0.1C15.5,39.7,15,40,14.3,40.1z M37.9,35.2c-0.2,1-1,1-1.8,1c0.1,0.2,0.2,0.3,0.4,0.4
	c0.5,0.4,1,0.5,1.6,0.2c0.4-0.2,0.6-0.5,0.6-0.8C38.6,35.7,38.3,35.3,37.9,35.2z M21.4,38.6c0.4-0.3,0.8-0.1,1.1,0.2
	c0.2,0.2,0.3,0.3,0.4,0.5c0.1,0.1,0.2,0.2,0.4,0.2c0.2,0,0.3-0.1,0.3-0.3c0.1-0.3,0-0.5-0.2-0.7c-0.2-0.2-0.5-0.3-0.7-0.5
	c-0.3-0.2-0.7-0.3-1-0.4C21.5,38,21.4,38.2,21.4,38.6z M32.1,32.3c-0.4,0-0.6,0.1-0.7,0.3c-0.1,0.3,0.1,0.5,0.6,0.7
	c-0.1,0.2-0.1,0.4,0.1,0.6c0.3,0.3,1.1,0.3,1.4,0c0.2-0.2,0.2-0.4,0-0.6c-0.2-0.1-0.4-0.2-0.6-0.2C32.4,32.9,32.2,32.8,32.1,32.3z
	 M35.1,36c0.6,0,0.9-0.4,0.7-0.8c-0.2-0.4-0.7-0.7-1.1-0.7c-0.5,0-0.7,0.4-0.5,0.9C34.4,35.7,34.7,35.9,35.1,36z M21.1,37.9
	c-0.8-0.2-1.1-0.9-1.4-1.6c-0.1,1,0.2,1.8,0.7,2.6c0.2,0.2,0.4,0.4,0.6,0.5c0.1,0.1,0.2,0.1,0.3-0.1c0.1-0.1,0-0.2-0.1-0.3
	c-0.2-0.2-0.3-0.4-0.3-0.6C21.1,38.2,21.1,38.1,21.1,37.9z M38.4,34.9c0.4,0,0.7-0.1,1-0.4c0.2-0.3,0.2-0.7-0.1-0.9
	c-0.1,0-0.2,0-0.2,0c-0.3,0.3-0.7,0.3-1.1,0.3c-0.3,0-0.3,0-0.4,0.3c-0.1,0.2,0,0.4,0.1,0.5C37.9,34.8,38.1,34.8,38.4,34.9z
	 M32.8,35.4c0.1,0,0.2,0,0.3,0c0.3-0.1,0.5-0.3,0.5-0.6c-0.1-0.3-0.4-0.6-0.7-0.5c-0.2,0-0.5,0-0.7,0c-0.1,0-0.2,0-0.3,0
	c-0.3,0.2-0.3,0.5-0.1,0.7C32.1,35.3,32.4,35.4,32.8,35.4z M32.2,35.9c0,0.1,0,0.2,0.1,0.3c0.2,0.5,1.1,0.7,1.5,0.5
	c0.2-0.1,0.3-0.3,0.2-0.5c-0.1-0.3-0.4-0.5-0.7-0.6c0,0-0.1,0-0.1,0C33,35.9,32.7,36,32.2,35.9z M34.3,36.5c-0.1,0.6,1.1,1,1.9,0.7
	c-0.3-0.3-0.5-0.7-0.4-1.2C35.3,36.4,34.9,36.6,34.3,36.5z M23.3,20.6c0,0.2,0,0.4-0.1,0.6c-0.1,0.7-0.3,1.4-0.8,1.9
	c-0.1,0.1-0.2,0.3-0.3,0.5c-0.1,0.1-0.1,0.3-0.1,0.5c0,0,0,0,0.1,0c0.3-0.4,0.7-0.7,1-1.1C23.6,22.3,23.6,21.5,23.3,20.6z
	 M33.8,32.6c-0.2-0.2-0.2-0.5-0.1-0.7c-0.1,0-0.2,0-0.3-0.1c-0.3-0.2-0.6-0.1-0.8,0.1c-0.3,0.2-0.3,0.5,0,0.7
	C32.9,32.8,33.3,32.8,33.8,32.6z M15.4,14.6c0.1,0,0.2,0,0.2-0.1c0.3-0.1,0.5-0.4,0.6-0.7c0.1-0.4,0.2-0.8,0.3-1.2
	c0.1-0.3,0.1-0.5,0.2-0.8c-0.5,0.4-0.7,0.9-0.8,1.4C15.9,13.8,15.8,14.3,15.4,14.6z M32.6,31c0,0.3,0.2,0.5,0.7,0.6
	c0.4,0.1,0.6,0,0.8-0.3c-0.2-0.2-0.4-0.4-0.6-0.6C33.1,30.8,32.9,30.9,32.6,31z M36,35.2c0.2,0.4,1.1,0.4,1.4,0
	c-0.1-0.3-0.2-0.6-0.4-0.9C36.8,34.8,36.5,35.2,36,35.2z M18.5,25.6c-0.5,0.1-1,0.2-1.3,0.7c-0.2,0.4-0.3,0.7-0.1,1.2
	C17.4,26.7,17.9,26.1,18.5,25.6z M34.4,33c-0.1,0.6-0.1,0.6-0.5,0.9c0.3,0.1,0.6,0,0.8-0.1c0.3-0.2,0.5-0.4,0.5-0.8
	c-0.2,0-0.3,0-0.4,0C34.6,33,34.5,33,34.4,33z M24.2,38.4c-0.3,0.3-0.2,0.9,0.1,1.1c0.2,0.2,0.5,0.1,0.7-0.1
	C24.7,39.1,24.4,38.8,24.2,38.4z M15.5,19.4c-0.3,0.4-0.4,0.8-0.3,1.1C15.5,20.3,15.6,19.9,15.5,19.4z"/>
<path fill-rule="evenodd" clip-rule="evenodd" d="M21.7,14.6c0.1,0,0.2-0.1,0.4-0.1c-0.1-0.1-0.2-0.1-0.3-0.2c0.1-0.1,0.4-0.1,0.5,0
	c0.1,0.1,0,0.1,0,0.2c0,0,0,0.1-0.1,0.1c0,0,0,0,0,0c-0.1,0.1-0.2,0.2-0.2,0.2C21.9,14.8,21.8,14.7,21.7,14.6z"/>
<path fill-rule="evenodd" clip-rule="evenodd" d="M21.7,13.5c0.2-0.2,0.2-0.2,0.2-0.5c0.1,0,0.3,0.2,0.4,0.3c0.1,0.1,0,0.2-0.1,0.2
	C22,13.5,21.9,13.5,21.7,13.5C21.7,13.5,21.7,13.5,21.7,13.5z"/>
</svg>
