<?xml version="1.0" encoding="utf-8"?>
<!-- Generator: Adobe Illustrator 18.0.0, SVG Export Plug-In . SVG Version: 6.00 Build 0)  -->
<!DOCTYPE svg PUBLIC "-//W3C//DTD SVG 1.1//EN" "http://www.w3.org/Graphics/SVG/1.1/DTD/svg11.dtd">
<svg version="1.1"
	 id="svg3385" xmlns:rdf="http://www.w3.org/1999/02/22-rdf-syntax-ns#" xmlns:dc="http://purl.org/dc/elements/1.1/" xmlns:inkscape="http://www.inkscape.org/namespaces/inkscape" xmlns:svg="http://www.w3.org/2000/svg" xmlns:cc="http://creativecommons.org/ns#" xmlns:sodipodi="http://sodipodi.sourceforge.net/DTD/sodipodi-0.dtd" inkscape:version="0.48.4 r" sodipodi:docname="Banco Central Do Brasil.svg"
	 xmlns="http://www.w3.org/2000/svg" xmlns:xlink="http://www.w3.org/1999/xlink" x="0px" y="0px" width="48px" height="48px"
	 viewBox="47.5 -6.2 48 48" enable-background="new 47.5 -6.2 48 48" xml:space="preserve">
<sodipodi:namedview  id="base" fit-margin-left="2" pagecolor="#ffffff" bordercolor="#666666" inkscape:cy="24.379493" fit-margin-top="2" inkscape:cx="74.126135" showguides="true" showgrid="false" inkscape:zoom="5.9511987" borderopacity="1.0" inkscape:pageopacity="0.0" inkscape:document-units="px" fit-margin-right="2" inkscape:pageshadow="2" inkscape:window-width="1366" inkscape:window-y="-8" inkscape:window-maximized="1" inkscape:guide-bbox="true" inkscape:window-x="-8" fit-margin-bottom="2" inkscape:window-height="705" inkscape:current-layer="svg3385">
	</sodipodi:namedview>
<path id="path3171" inkscape:connector-curvature="0" d="M67.2-4.3l-3.1,3.1h3.1V-4.3z M64.1-1.2l-7.8,7.7v3.2h3.9V12h9.3l3.9-3.9
	h-9.3V-1.2z M81.2-1.2l-3.9,3.9V12h9.3l3.9-3.9h-9.3V-1.2z M53.3,9.6l-3.9,3.9v12.4h7v7h7v7h12.4l3.9-3.9H67.2V29h2.4l3.9-3.9h-9.3
	v-9.3l-3.9,3.9V22h-7V9.6z M81.2,15.8l-3.9,3.9V29h2.3v3.9h3.2l7.7-7.8h-9.3V15.8z M90.4,25.1l3.1-3.1h-3.1V25.1z"/>
</svg>
