<?xml version="1.0" encoding="utf-8"?>
<!-- Generator: Adobe Illustrator 18.0.0, SVG Export Plug-In . SVG Version: 6.00 Build 0)  -->
<!DOCTYPE svg PUBLIC "-//W3C//DTD SVG 1.1//EN" "http://www.w3.org/Graphics/SVG/1.1/DTD/svg11.dtd">
<svg version="1.1" id="Layer_1" xmlns="http://www.w3.org/2000/svg" xmlns:xlink="http://www.w3.org/1999/xlink" x="0px" y="0px"
	 width="48px" height="48px" viewBox="0 0 48 48" enable-background="new 0 0 48 48" xml:space="preserve">
<g>
	<path fill-rule="evenodd" clip-rule="evenodd" d="M39.1,44.8c-0.2-2.8-0.8-5.5-1.8-8.1c-1.5-3.5-3.6-6.4-7.1-8.2
		C25.6,26,20,26.6,16,30.1c-3.3,2.8-5.1,6.5-6,10.7c-0.3,1.2-0.4,2.4-0.6,3.7c-0.1,0-0.1,0-0.2,0c-2.9-9.7-5.8-19.4-8.7-29
		c0.1,0,0.1-0.1,0.2-0.1c0.2,0.1,0.3,0.3,0.5,0.4c2.6,2.9,5.4,5.7,8.8,7.7c2.1,1.3,4.2,2.3,6.7,2.4c4.1,0.2,6.7-2.7,6.2-6.8
		c-0.4-3.2-2-5.9-4-8.3c-2.5-3-5.6-5.2-8.9-7.2C9.6,3.5,9.4,3.4,9.3,3.2c10,0,20,0,30.3,0c-0.3,0.2-0.5,0.3-0.7,0.4
		c-2.7,1.3-5.2,2.8-7.4,4.7c-2.3,2-4.3,4.3-5.4,7.2c-0.8,2.1-1,4.2-0.2,6.3c1.1,2.9,3.9,4.3,6.7,4c3.4-0.4,6.1-2.2,8.5-4.5
		c2.4-2.3,4.3-4.9,6-7.7c0.1-0.2,0.2-0.3,0.3-0.5c0,0,0.1,0,0.1,0.1c-2.7,10.6-5.4,21.2-8.2,31.8C39.3,44.8,39.2,44.8,39.1,44.8z"/>
</g>
</svg>
