<?xml version="1.0" encoding="utf-8"?>
<!-- Generator: Adobe Illustrator 18.0.0, SVG Export Plug-In . SVG Version: 6.00 Build 0)  -->
<!DOCTYPE svg PUBLIC "-//W3C//DTD SVG 1.1//EN" "http://www.w3.org/Graphics/SVG/1.1/DTD/svg11.dtd">
<svg version="1.1" id="Layer_1" xmlns="http://www.w3.org/2000/svg" xmlns:xlink="http://www.w3.org/1999/xlink" x="0px" y="0px"
	 width="48px" height="48px" viewBox="0 0 48 48" enable-background="new 0 0 48 48" xml:space="preserve">
<g>
	<path fill-rule="evenodd" clip-rule="evenodd" d="M16.9,16c-0.3-0.6-0.5-1.1-1-1.4C15.8,15,16.5,15.9,16.9,16z"/>
	<path fill-rule="evenodd" clip-rule="evenodd" d="M22.2,28.6c0,0.3,0,0.5,0,0.8c0,0.5,0.3,0.8,0.7,0.9c0.6,0.1,1.2,0.2,1.6,0.6
		c0.2,0.1,0.3,0.1,0.4-0.1c0.1-0.2,0-0.3-0.1-0.4c-0.4-0.3-0.9-0.5-1.4-0.5c-0.2,0-0.4-0.1-0.5-0.2c-0.1-0.1-0.1-0.2-0.2-0.3
		c0.1-0.1,0.2-0.1,0.3-0.2c0.1,0,0.2-0.1,0.2-0.2c0-0.2-0.1-0.2-0.2-0.2c-0.4-0.1-0.4-0.1-0.4-0.5c0-0.2,0-0.3-0.2-0.4
		c-0.2-0.1-0.2-0.2-0.1-0.4c0.2-0.3,0.3-0.7,0.4-1.1c0-0.2,0.1-0.4,0.2-0.6c0.1-0.3,0.3-0.3,0.6-0.1c0.3,0.3,0.5,0.6,0.5,1
		c0.1,0.3,0.1,0.4,0.4,0.3c0.1,0,0.2,0,0.3,0c0.1,0,0.3,0,0.4,0.1c0.2,0.1,0.3,0.4,0.2,0.6c-0.1,0.2-0.2,0.2-0.5,0
		c-0.1,0-0.1,0-0.2,0c0,0.1-0.1,0.2,0,0.2c0.1,0.2,0.2,0.4,0.3,0.6c0.2,0.3,0.2,0.6,0,0.9c-0.1,0.1-0.2,0.2-0.2,0.3
		c0,0.1-0.1,0.2,0,0.2c0,0.1,0.1,0.1,0.2,0.1c0.1,0,0.2-0.1,0.3-0.2c0.1-0.3,0.4-0.4,0.7-0.4c0.1,0,0.3,0,0.4-0.1
		c0.4-0.3,0.6-0.6,0.8-1.1c0.3-0.9,0.1-1.8-0.4-2.6c-0.3-0.4-0.3-0.5,0-0.9c0.1-0.1,0.2-0.3,0.3-0.4c0.1-0.2,0-0.3-0.1-0.4
		c-0.1-0.1-0.2,0-0.3,0.1c-0.1,0-0.1,0.1-0.1,0.2c-0.1,0.2-0.2,0.3-0.4,0.4c0,0-0.1,0-0.2,0c0-0.1,0-0.2,0-0.2
		c0-0.1,0.1-0.1,0.1-0.2c0.1-0.2,0.2-0.3,0.3-0.5c0.1-0.1,0-0.3-0.1-0.3c-0.1-0.1-0.2-0.1-0.3,0c-0.2,0.2-0.3,0.3-0.5,0.5
		c-0.1,0.2-0.3,0.3-0.6,0.3c-0.2,0-0.3,0-0.5,0c0,0,0,0,0,0c-0.2,0-0.5,0-0.7,0c-0.5,0.1-1,0.4-0.8,1.1c0.1,0.2,0,0.4-0.1,0.6
		c-0.2,0.6-0.4,1.1-0.6,1.7c-0.1,0.3-0.2,0.6,0.1,0.8C22.2,28.2,22.2,28.4,22.2,28.6z M25.8,28.5c-0.1,0-0.2,0-0.2-0.1
		c0,0,0-0.2,0-0.2c0.1-0.2,0.2-0.3,0.3-0.5c0-0.1,0.2-0.1,0.3,0c0.1,0,0.1,0.1,0.1,0.1C26.3,28.1,26.1,28.5,25.8,28.5z M26.4,26.7
		c0,0.2-0.1,0.3-0.4,0.3c-0.1,0-0.4-0.2-0.4-0.4c0-0.2,0.2-0.3,0.4-0.3C26.3,26.3,26.4,26.5,26.4,26.7z M25.5,25.4
		c0.1-0.1,0.3-0.1,0.4,0c0.1,0.1,0.1,0.3-0.1,0.4c-0.2,0.1-0.4,0.3-0.7,0.4c-0.1,0-0.1,0.1-0.2,0.1c-0.1,0-0.1-0.1-0.2-0.1
		c0,0,0-0.1,0.1-0.2C25,25.8,25.3,25.6,25.5,25.4z M24.7,24.6c0.1,0,0.2,0.1,0.3,0.2c0,0,0,0.2-0.1,0.2c-0.1,0.2-0.3,0.3-0.5,0.4
		c0,0-0.1,0.1-0.2,0c-0.1,0-0.1-0.1-0.1-0.1C24.2,25.1,24.5,24.6,24.7,24.6z M23.4,24.5C23.4,24.5,23.4,24.5,23.4,24.5
		c0.2,0,0.3,0,0.4,0c0,0.1,0,0.2,0,0.2c-0.1,0.1-0.2,0.2-0.3,0.3c-0.1-0.1-0.2-0.1-0.3-0.2C23.2,24.6,23.3,24.5,23.4,24.5z"/>
	<path fill-rule="evenodd" clip-rule="evenodd" d="M15.8,17.8c0.3,0.1,0.9-0.1,1.1-0.3C16.6,17.3,16,17.5,15.8,17.8z"/>
	<path fill-rule="evenodd" clip-rule="evenodd" d="M18.2,14.5c-0.2,0.2-0.1,0.9,0.1,1.1C18.4,15.3,18.4,14.7,18.2,14.5z"/>
	<path fill-rule="evenodd" clip-rule="evenodd" d="M23.5,28.2c0.2,0,0.4,0,0.7-0.2c-0.2-0.1-0.5-0.2-0.7-0.1c-0.1,0-0.1,0.1-0.1,0.2
		C23.3,28.1,23.4,28.2,23.5,28.2z"/>
	<path fill-rule="evenodd" clip-rule="evenodd" d="M18.8,35.7c0,0.1,0.1,0.1,0.2,0.3c0.1-0.1,0.2-0.2,0.2-0.3c0-0.1-0.1-0.2-0.2-0.2
		C18.8,35.5,18.7,35.6,18.8,35.7z"/>
	<path fill-rule="evenodd" clip-rule="evenodd" d="M30.3,14.8c-0.3,0.1-0.6,0.7-0.5,1C30,15.7,30.4,15,30.3,14.8z"/>
	<path fill-rule="evenodd" clip-rule="evenodd" d="M19.3,34.1c0,0.1,0.1,0.2,0.2,0.2c0.1,0,0.3-0.2,0.3-0.4c0-0.1-0.1-0.1-0.1-0.2
		C19.4,33.8,19.2,33.9,19.3,34.1z"/>
	<path fill-rule="evenodd" clip-rule="evenodd" d="M23.3,26.8c-0.1,0-0.3,0.1-0.3,0.2c0,0.1,0.2,0.2,0.3,0.3
		c0.1-0.1,0.2-0.2,0.2-0.3C23.5,27,23.4,26.8,23.3,26.8z"/>
	<path fill-rule="evenodd" clip-rule="evenodd" d="M19.8,36.5c0.2-0.2,0.5-0.2,0.8-0.1c0.1,0.1,0.3,0.1,0.4,0.1
		c0.1,0,0.2-0.1,0.3-0.1c-0.1-0.1-0.1-0.2-0.2-0.3c0,0-0.1,0-0.1,0c-0.3-0.1-0.5-0.2-0.8-0.3c-0.2-0.1-0.4-0.1-0.5,0.1
		c-0.1,0.1-0.2,0.3-0.3,0.3c-0.1,0.1-0.3,0.2-0.4,0.2c-0.3,0-0.5-0.1-0.7-0.3c-0.2-0.1-0.2-0.2,0-0.3c0.2-0.1,0.2-0.3,0-0.4
		c-0.2-0.1-0.2-0.3-0.2-0.5c0-0.2,0-0.5,0-0.7c0-0.2,0-0.4,0-0.6c0-0.1-0.1-0.2-0.2-0.3c-0.1-0.1-0.2-0.2-0.3-0.2
		c0.1-0.1,0.2-0.2,0.3-0.2c0.9-0.3,1.7-0.2,2.5,0.3c0.2,0.1,0.2,0.3,0,0.4c-0.2,0.1-0.1,0.2-0.1,0.3c0,0.1,0.2,0.1,0.2,0.1
		c0.4-0.1,0.8-0.1,1.1-0.2c0.2,0,0.2-0.1,0.1-0.3c-0.2-0.2-0.3-0.4-0.5-0.5c-1.1-0.7-2.3-1-3.6-0.6c-0.5,0.2-0.9,0.5-1.2,0.9
		c-0.1,0.2-0.1,0.3,0.1,0.3c0.2,0,0.4,0.1,0.6,0.1c0.2,0,0.3,0.1,0.3,0.3c0,0.4,0,0.7,0,1.1c0,0,0,0,0,0c0,0.3,0,0.7,0,1
		c0,0,0,0.1,0,0.1c0,0.2,0.1,0.3,0.3,0.3c0.3,0.1,0.7,0.2,1,0.3c0.3,0.1,0.5,0.1,0.7-0.1C19.6,36.6,19.7,36.5,19.8,36.5z"/>
	<path fill-rule="evenodd" clip-rule="evenodd" d="M8.1,17.9c-0.2,0-0.4,0.2-0.4,0.4c0,0.2,0.2,0.4,0.4,0.4c0.2,0,0.3-0.1,0.3-0.4
		C8.5,18.1,8.4,17.9,8.1,17.9z"/>
	<path fill-rule="evenodd" clip-rule="evenodd" d="M11.4,22.1c0.1-0.1,0.1-0.2,0.1-0.3c-0.1-0.2-0.2-0.3-0.6-0.2
		c-0.4,0.1-0.7-0.1-0.7-0.5c0-0.2,0-0.4,0.1-0.5c0.2-0.6-0.2-1.1-0.7-1.3c-0.2-0.1-0.5-0.1-0.8,0c-0.4,0.2-0.5,0.6-0.6,1.1
		c0,0.2,0.1,0.5,0.5,0.7c0.2,0.1,0.5,0.1,0.7,0.2c0.1,0,0.3,0.1,0.3,0.2c0.5,0.8,1,1.5,1.5,2.3c0.2,0.3,0.2,0.3,0.5,0.1
		c0.2-0.1,0.2-0.3,0.1-0.5c-0.1-0.1-0.1-0.2,0.1-0.3c0.3-0.1,0.3-0.2,0.1-0.5c-0.1-0.2-0.2-0.2-0.4-0.1c-0.1,0-0.1,0.1-0.2,0
		c-0.1,0-0.2-0.1-0.3-0.1c0-0.1,0-0.2,0.1-0.2C11.3,22.2,11.3,22.2,11.4,22.1z M9.3,20.7c-0.2,0-0.4-0.2-0.4-0.3
		c0-0.2,0.2-0.4,0.3-0.4c0.2,0,0.4,0.2,0.4,0.3C9.7,20.5,9.5,20.7,9.3,20.7z"/>
	<path fill-rule="evenodd" clip-rule="evenodd" d="M12.6,17.1c0-0.2-0.1-0.2-0.2-0.2c-0.2,0-0.4,0-0.6,0c-0.3,0-0.5-0.1-0.6-0.3
		c-0.2-0.3-0.1-0.5,0-0.7c0.1-0.2,0.4-0.4,0.6-0.4c0.2,0,0.3,0,0.5,0c0.1,0,0.3,0,0.3-0.2c0-0.2-0.1-0.4-0.1-0.5c0,0-0.1,0-0.1,0
		c-0.4,0-0.8,0-1.2,0.1c-1.1,0.5-1.1,1.7-0.4,2.3c0.3,0.3,0.8,0.4,1.2,0.4c0.1,0,0.1,0,0.2,0C12.6,17.6,12.6,17.6,12.6,17.1z"/>
	<path fill-rule="evenodd" clip-rule="evenodd" d="M11.6,18.3c0,0.2,0.2,0.4,0.4,0.4c0.2,0,0.4-0.2,0.4-0.4c0-0.2-0.2-0.4-0.4-0.4
		C11.8,17.9,11.6,18.1,11.6,18.3z"/>
	<path fill-rule="evenodd" clip-rule="evenodd" d="M20.9,3.6c0,0.2,0.2,0.3,0.4,0.3c0.2,0,0.4,0,0.6,0c0,0,0,0,0,0
		c0.3,0,0.5,0,0.8,0c0.2,0,0.4-0.2,0.4-0.4c0-0.2-0.1-0.3-0.4-0.3c-0.3,0-0.6,0-1-0.1c-0.2,0-0.3,0-0.5,0C21,3.3,20.9,3.5,20.9,3.6z
		"/>
	<path fill-rule="evenodd" clip-rule="evenodd" d="M13.5,16.4c0.2,0,0.4-0.1,0.4-0.3c0-0.2-0.1-0.4-0.3-0.4c-0.6,0-1.3,0-1.9,0
		c-0.1,0-0.3,0.2-0.3,0.3c0,0.2,0.1,0.3,0.3,0.3c0,0,0.1,0,0.2,0c0.3,0,0.7,0,1,0c0,0,0,0,0,0C13,16.4,13.3,16.4,13.5,16.4z"/>
	<path fill-rule="evenodd" clip-rule="evenodd" d="M10.7,17.9c-0.2,0-0.4,0.1-0.4,0.4c0,0.2,0.2,0.4,0.4,0.4c0.2,0,0.4-0.1,0.4-0.3
		C11.1,18.2,10.9,18,10.7,17.9z"/>
	<path fill-rule="evenodd" clip-rule="evenodd" d="M31.9,17.8c0,0,0.1,0,0.1-0.1c0,0,0-0.1,0-0.1c-0.1-0.1-0.2-0.1-0.4-0.2
		c-0.2,0-0.4,0-0.6-0.1c0,0-0.1,0-0.2,0.1c0,0,0,0.1,0.1,0.1C31.3,17.7,31.6,17.7,31.9,17.8z"/>
	<path fill-rule="evenodd" clip-rule="evenodd" d="M32.4,15.2c0.1-0.1,0.2-0.3,0.4-0.4c-0.1,0-0.1,0-0.1,0c-0.5,0.2-0.9,0.5-1.2,0.9
		c0,0,0,0.1,0,0.2c0.1,0,0.2,0,0.2,0C31.9,15.6,32.2,15.4,32.4,15.2z"/>
	<path fill-rule="evenodd" clip-rule="evenodd" d="M26.1,41.2c-0.4,0-0.7,0-1.1,0c-0.1,0-0.3,0-0.3,0.2c0,0.2,0,0.4,0.2,0.5
		c0.2,0.1,0.3,0.3,0.1,0.5c-0.1,0.1-0.2,0.3-0.3,0.4c-0.1,0.1-0.2,0.1-0.3,0.1c-0.1,0-0.1-0.2-0.1-0.3c0-0.8,0-1.5,0-2.3
		c0-0.2,0.1-0.4,0.2-0.5c0.1-0.1,0.2-0.2,0.4-0.3c0.1-0.1,0.2-0.2,0.1-0.3c-0.1-0.1-0.1-0.3-0.4-0.2c-0.2,0.1-0.3,0-0.3-0.2
		c0-0.1-0.1-0.2-0.2-0.2c-0.1,0-0.2,0-0.3,0.1c-0.2,0.1-0.1,0.4-0.1,0.6c0,0.3-0.1,0.4-0.4,0.6c-0.1,0.1-0.2,0.1-0.3,0.2
		c-0.1,0.1-0.1,0.3,0,0.5c0.1,0.1,0.2,0.1,0.3,0c0.2-0.1,0.3,0,0.3,0.2c0,0.3,0,0.7,0,1c0,0.3,0,0.6,0,0.9c0,0.1,0,0.2-0.1,0.2
		c-0.1,0-0.2,0-0.3,0c-0.1-0.1-0.3-0.3-0.4-0.4c-0.2-0.3-0.1-0.4,0.2-0.6c0.2-0.1,0.2-0.3,0.2-0.5c0-0.2-0.1-0.2-0.3-0.2
		c-0.4,0-0.7,0-1.1,0c-0.1,0-0.2,0.1-0.2,0.1c-0.1,0.3-0.1,0.4,0.2,0.5c0.1,0,0.2,0.1,0.3,0.2c-0.1,0.1-0.2,0.2-0.3,0.3
		c-0.2,0.1-0.3,0.2-0.2,0.4c0.1,0.2,0.2,0.3,0.4,0.2c0.3-0.1,0.5,0.2,0.7,0.3c0.2,0.1,0.2,0.3,0.1,0.5c-0.1,0.2,0,0.4,0.2,0.5
		c0.2,0.1,0.3,0,0.4-0.2c0.1-0.2,0.3-0.3,0.5-0.3c0.3,0,0.5,0.1,0.7,0.3c0.1,0.2,0.3,0.2,0.4,0c0.1-0.1,0.1-0.3,0.1-0.4
		c0-0.1,0-0.2,0-0.3c0.1-0.2,0.5-0.5,0.8-0.5c0.3,0.1,0.3-0.1,0.4-0.3c0.1-0.2,0-0.3-0.2-0.4c-0.1,0-0.1-0.2-0.2-0.3
		c0.1,0,0.2-0.1,0.3-0.1c0.3,0,0.2-0.2,0.2-0.4C26.4,41.3,26.3,41.2,26.1,41.2z"/>
	<path fill-rule="evenodd" clip-rule="evenodd" d="M9.2,14.7C9,14.7,9,14.9,9,15.1c0,0.1,0,0.1,0,0.2c0,0.2,0.2,0.3,0.5,0.3
		c0.2,0,0.3-0.2,0.3-0.4C9.8,14.9,9.5,14.7,9.2,14.7z"/>
	<path fill-rule="evenodd" clip-rule="evenodd" d="M9.5,17.9c-0.2,0-0.4,0.1-0.4,0.4c0,0.2,0.1,0.4,0.4,0.4c0.2,0,0.4-0.1,0.4-0.3
		C9.8,18.1,9.7,18,9.5,17.9z"/>
	<path fill-rule="evenodd" clip-rule="evenodd" d="M24.2,29.3c0.3-0.1,0.3-0.4,0.4-0.7c-0.1-0.1-0.1-0.2-0.2-0.2
		c-0.2,0-0.2,0.1-0.2,0.2c0,0.2-0.1,0.4-0.3,0.4c0,0-0.1,0.1-0.1,0.2c0,0.1,0.1,0.1,0.2,0.1C24,29.4,24.1,29.4,24.2,29.3z"/>
	<path fill-rule="evenodd" clip-rule="evenodd" d="M40.2,18.3c0-0.2-0.1-0.4-0.4-0.3c-0.2,0-0.4,0.2-0.4,0.4c0,0.2,0.2,0.4,0.4,0.4
		C40,18.7,40.2,18.5,40.2,18.3z"/>
	<path fill-rule="evenodd" clip-rule="evenodd" d="M37,21.7c-0.1,0-0.3-0.1-0.3,0c-0.3,0.3-0.4,0.3,0,0.6c0,0,0.1,0,0.1,0.1
		c0,0.1,0.1,0.2,0.1,0.3c0,0.1-0.2,0.1-0.3,0.1c-0.1,0-0.1-0.1-0.2-0.1c-0.1,0-0.2,0-0.3,0c-0.3,0.2-0.3,0.4,0,0.6
		c0.1,0.1,0.2,0.1,0.2,0.2c0,0.1,0.1,0.3,0,0.3c-0.1,0.2-0.1,0.3,0.1,0.4c0.2,0.1,0.3,0,0.3-0.2c0.4-0.7,0.9-1.3,1.3-2
		c0.2-0.3,0.4-0.5,0.8-0.6c0.6-0.1,0.9-0.3,0.9-0.9c0.1-0.6-0.6-1.2-1.1-1.2c-0.5,0.1-1,0.6-1,1.1c0,0.2,0,0.4,0.1,0.6
		c0,0.1,0,0.2,0,0.3C37.6,21.6,37.3,21.8,37,21.7z M38.6,20c0.2,0,0.4,0.2,0.4,0.4c0,0.2-0.1,0.4-0.4,0.4c-0.2,0-0.4-0.1-0.4-0.3
		C38.3,20.2,38.5,20,38.6,20z"/>
	<path fill-rule="evenodd" clip-rule="evenodd" d="M38.5,17.9c-0.2,0-0.4,0.2-0.4,0.4c0,0.2,0.3,0.4,0.4,0.4c0.2,0,0.4-0.2,0.4-0.4
		C38.9,18.1,38.8,17.9,38.5,17.9z"/>
	<path fill-rule="evenodd" clip-rule="evenodd" d="M38.6,14.8c-0.3,0-0.6,0.2-0.6,0.4c0,0.2,0.2,0.4,0.5,0.4c0.3,0,0.4-0.1,0.4-0.4
		C38.9,14.8,38.9,14.8,38.6,14.8z"/>
	<path fill-rule="evenodd" clip-rule="evenodd" d="M30.2,32.3c-0.2-0.1-0.4-0.3-0.5-0.4c-0.1-0.1-0.2-0.1-0.3-0.1
		c-0.2,0-0.5,0-0.7,0c-0.2,0-0.3,0-0.4,0.2c0,0.1-0.1,0.1-0.2,0.2c-0.2,0.1-0.4,0.2-0.6,0.3c-0.5,0.3-0.9,0.6-1.3,0.9
		c-0.4,0.2-0.7,0.5-0.9,1c-0.1,0.2-0.1,0.2,0.1,0.3c0.2,0,0.3,0.1,0.4,0.2c0.1,0.1,0.1,0.3,0.2,0.4c0.1,0.2,0.2,0.5,0.5,0.5
		c0.3,0,0.4,0.1,0.4,0.4c0,0.4,0.1,0.5,0.5,0.5c0.1,0,0.2,0,0.3,0c0.3,0,0.6-0.1,0.5-0.5c0,0,0-0.1,0-0.2c0-0.1,0-0.3,0-0.5
		c0.1-0.2,0.1-0.4,0.2-0.7c0.1-0.2,0.8-0.3,0.9-0.1c0,0,0.1,0.1,0.1,0.1c0.1,0.3,0.2,0.7,0.3,1c0,0.2,0,0.4,0,0.7
		c0,0.1,0.1,0.2,0.2,0.2c0.3,0,0.5,0,0.8,0c0.2,0,0.3-0.1,0.3-0.4c0-0.3,0-0.5,0-0.8c0-0.2,0.1-0.3,0.3-0.3c0.1,0,0.3,0,0.4,0
		c0.1,0,0.2-0.1,0.2-0.2c-0.1-0.6-0.2-1.1-0.5-1.6C31.1,32.9,30.7,32.5,30.2,32.3z M28.5,34c-0.4,0.3-0.6,0.7-0.7,1.2
		c0,0.2,0,0.4-0.1,0.6c0,0.1-0.1,0.1-0.2,0.2c0-0.1-0.1-0.2-0.1-0.3c0-0.2,0.1-0.5,0.1-0.7c0-0.1-0.1-0.3-0.1-0.4
		c0-0.1-0.1-0.1-0.2-0.1c-0.1,0-0.1,0.1-0.1,0.2c-0.1,0.1-0.1,0.3-0.1,0.4c-0.1,0.2-0.3,0.2-0.4,0c-0.1-0.3-0.3-0.6-0.4-0.9
		c0-0.1,0-0.2,0.1-0.2c0.2-0.1,0.3-0.1,0.5-0.2c0.3,0,0.3,0.1,0.4,0.3c0,0.1,0.1,0.2,0.1,0.2c0.1,0,0.2,0,0.3-0.1
		c0.1-0.1,0.3-0.3,0.4-0.5c0.1-0.1,0-0.2-0.1-0.3c-0.3-0.2-0.3-0.3,0-0.5c0.1-0.1,0.3-0.1,0.4-0.2c0.2-0.1,0.3,0,0.3,0.2
		c0.1,0.2,0.1,0.4,0.2,0.6C28.7,33.7,28.6,33.9,28.5,34z M31.2,34.5c-0.1,0-0.2,0-0.3,0c-0.1-0.1-0.1-0.2-0.2-0.3
		c-0.1-0.1-0.2-0.1-0.3-0.2c0,0.1-0.1,0.2-0.1,0.3c0.1,0.4,0.2,0.8,0.3,1.3c0,0,0,0,0,0c0,0.1,0,0.3,0,0.4c0,0-0.1,0.1-0.1,0.1
		c-0.1,0-0.1-0.1-0.1-0.1c0-0.1,0-0.1,0-0.2c-0.1-0.7-0.2-1.3-0.8-1.8c-0.1-0.1-0.1-0.2-0.1-0.3c0-0.2,0-0.5,0.1-0.7
		c0.1-0.2,0.2-0.3,0.4-0.2c0.6,0.2,1,0.7,1.3,1.2c0.1,0.1,0.1,0.2,0.1,0.3C31.2,34.3,31.2,34.4,31.2,34.5z"/>
	<path fill-rule="evenodd" clip-rule="evenodd" d="M45.2,44.8c0-0.6-0.2-1.1-0.3-1.7c-0.1-0.3-0.2-0.6-0.3-1
		c-0.1-0.6-0.3-1.1-0.4-1.7c-0.2-0.8-0.4-1.6-0.7-2.3c-0.2-0.8-0.4-1.6-0.6-2.3c-0.1-0.3-0.2-0.5-0.2-0.8c-0.2-0.6-0.3-1.1-0.5-1.7
		c-0.2-0.6-0.3-1.2-0.5-1.8c-0.1-0.5-0.3-0.9,0-1.4c0.3-0.5,0.4-1,0.7-1.5c0-0.1,0.1-0.1,0.2-0.2c0.1,0.1,0.2,0.1,0.2,0.2
		c0.1,0.3,0.2,0.6,0.2,0.9c0.1,0.5,0.3,1.1,0.4,1.6c0.2,0.6,0.3,1.2,0.5,1.8c0.1,0.2,0.1,0.5,0.3,0.7c0.2,0.3,0.8,0.5,1.1,0.3
		c0.4-0.2,0.6-0.6,0.5-1.1c-0.1-0.4-0.6-0.7-1-0.7c-0.3,0-0.3,0-0.4-0.3c-0.1-0.5-0.3-1-0.4-1.4c-0.2-0.6-0.3-1.1-0.5-1.7
		c-0.1-0.4-0.2-0.7-0.3-1.1c-0.1-0.4-0.2-0.7,0-1.1c0.2-0.6,0.4-1.1,0.7-1.7c0.3-0.7,0.5-1.5,0.8-2.2c0.2-0.5,0.1-1-0.1-1.4
		c-0.4-0.9-1.7-1.3-2.6-0.7c-0.4,0.2-0.7,0.5-0.8,1c-0.1,0.9,0,1.8,0.3,2.6c0.1,0.5,0.3,0.9,0.4,1.4c0.1,0.4,0.2,0.8,0.3,1.1
		c0,0.2,0,0.3,0,0.5c-0.1,0.2-0.2,0.4-0.2,0.6c-0.2,0.5-0.4,1-0.6,1.5c0,0-0.1,0.1-0.1,0.1c0,0-0.1-0.1-0.1-0.1c0,0,0-0.1,0-0.1
		c-0.1-0.5-0.3-0.9-0.4-1.4c-0.2-0.6-0.3-1.1-0.5-1.7c-0.2-0.6-0.4-1.3-0.5-1.9c-0.1-0.3-0.2-0.6,0-1c0.7-1,1.1-2.1,1.4-3.2
		c0.2-0.9,0.4-1.9,0.5-2.8c0.1-1.3,0.1-2.5,0.1-3.8c0-0.2-0.1-0.2-0.2-0.2c-0.8,0-1.5,0-2.3,0c-0.5,0-1,0.1-1.5,0.5
		c-0.1,0.1-0.2,0.1-0.3,0.1c-0.5,0-1.1,0-1.6,0c-0.4,0-0.4,0-0.5,0.4c0,0.2,0,0.2,0.2,0.2c0.3,0,0.5,0.1,0.8,0.1
		c0.4,0,0.8,0.1,1.1,0c0.4,0,0.7-0.1,1-0.3c0.2-0.3,0.5-0.3,0.9-0.3c0.5,0,0.9,0,1.4,0c0.3,0,0.4,0,0.4,0.4c0.1,1.8-0.1,3.5-0.6,5.2
		c-0.2,0.7-0.4,1.4-0.7,2.1c-0.4,1-1,1.9-1.6,2.8c-0.7,1.1-1.4,2.2-2.1,3.3c-0.7,1.1-1.4,2.1-2.1,3.2c-0.2,0.3-0.5,0.5-0.8,0.6
		c-1,0.2-1.8-0.8-1.4-1.8c0.2-0.6,0.8-0.9,1.5-0.7c0.1,0,0.2,0,0.3,0c0.2,0,0.3-0.1,0.3-0.2c0.1-0.2,0.1-0.3,0.2-0.5
		c0.6-0.9,1.2-1.8,1.7-2.7c0.1-0.2,0.1-0.3,0.1-0.5c-0.4-1.2-0.6-2.4-0.2-3.6c0.2-0.6,0.4-1.1,0.8-1.5c0.1-0.1,0.3-0.3,0.4-0.4
		c0.1-0.2,0.1-0.3-0.2-0.5c-0.1-0.1-0.2-0.1-0.3,0c-0.3,0.3-0.5,0.6-0.8,0.9c-0.1,0.1-0.3,0.2-0.5,0.2c-1.7,0-3.3,0-5,0
		c-0.1,0-0.3,0.1-0.4,0.1c-0.4,0.1-0.7,0.4-0.9,0.7c0,0-0.1,0.1-0.1,0.1c0,0-0.1-0.1-0.1-0.1c-0.1-0.3-0.1-0.6-0.1-0.9
		c0-0.1,0-0.2,0.2-0.3c0.2-0.1,0.3-0.2,0.5-0.2c0.9-0.4,1.8-0.5,2.8-0.5c0.6,0,1.3,0.2,1.8,0.5c0.1,0.1,0.2,0,0.2-0.1
		c0-0.3,0.1-0.6,0-0.9c-0.1-0.6-0.4-1.2-0.7-1.7c-0.1-0.2-0.1-0.3,0-0.4c0.4-0.5,0.8-0.9,1.1-1.4c0.4-0.6,0.7-1.3,0.7-2.1
		c0-0.1,0-0.3-0.2-0.2c-0.2,0-0.4,0-0.7,0.1c-0.7,0.2-1.4,0.6-2.1,1c-0.3,0.1-0.3,0.1-0.5-0.1c-0.2-0.6-0.5-1.1-1-1.5
		c-0.1-0.1-0.3-0.1-0.4-0.2c0,0.1-0.1,0.3-0.1,0.4c0,0.4-0.1,0.9-0.3,1.2c-0.3,0.6-0.8,1.1-1.3,1.5c-0.1,0.1-0.2,0.1-0.3,0.1
		c-0.1,0-0.1-0.2-0.1-0.3c0-0.1,0.1-0.2,0.2-0.3c0.1-0.1,0.2-0.1,0.3-0.2c0.2-0.2,0.5-0.4,0.6-0.7c0-0.3,0.1-0.6,0-0.9
		c-0.1-0.5-0.3-0.8-0.8-1c-0.4-0.1-0.6-0.3-0.6-0.8c0-0.2,0-0.4,0-0.6c0-0.1-0.1-0.2-0.2-0.2c-0.1,0-0.3,0-0.4,0
		c-0.2,0-0.2-0.2-0.2-0.3c0-0.2,0.1-0.2,0.3-0.2c0.1,0,0.2,0,0.3,0c0.5,0,1,0,1.5,0c0.1,0,0.1,0.1,0.2,0.1c0,0.1-0.1,0.1-0.1,0.2
		c0,0.1-0.1,0.1-0.2,0.1c-0.1,0.1-0.3,0.2-0.4,0.4c-0.2,0.3-0.2,0.8,0,1c0.2,0.2,0.5,0.2,0.7,0.1c0.3-0.1,0.4-0.4,0.4-0.7
		c-0.1-0.4,0.1-0.7,0.4-0.9c0.4-0.3,0.8-0.4,1.2-0.4c0.4,0,0.9,0,1.3,0c0.7,0,1.3-0.6,1.1-1.4c-0.1-0.4-0.5-0.7-0.9-0.7
		c-0.4,0-0.7,0.1-0.9,0.3c-0.3,0.2-0.6,0.5-0.9,0.7c-0.2,0.2-0.4,0.4-0.8,0.4c-0.6,0-1.1,0-1.7-0.1c-0.1,0-0.2-0.1-0.4-0.1
		c0.1,0,0.2-0.1,0.4-0.1c0.6-0.1,1.1-0.2,1.7-0.4c0.9-0.3,1.5-0.9,2-1.6c0.3-0.5,0.5-1,0.6-1.6c0.2-0.8,0.1-1.7,0.1-2.5
		c0-0.1-0.1-0.2-0.2-0.2c-0.5,0-1-0.1-1.4-0.1c-1,0-1.9,0-2.9,0c-0.5,0-1,0.2-1.4,0.5c-0.2,0.2-0.3,0.2-0.5,0
		c-0.1-0.1-0.1-0.2-0.2-0.2c-0.3-0.3-0.6-0.5-0.9-0.8c-0.1-0.1-0.1-0.2-0.2-0.2h-3.1c0.2,0.3,0.1,0.6,0.1,0.9c0,0.1,0,0.2,0,0.3
		c0,0.2,0.1,0.3,0.3,0.3c0.2,0,0.3,0,0.5,0.1c0.5,0.1,0.7,0.6,0.4,1c-0.2,0.2-0.4,0.3-0.6,0.3c-0.1,0-0.3,0-0.4,0.1
		c-0.1,0-0.2,0.1-0.2,0.2C22,4.8,22.2,5,22.5,5c0.1,0,0.3,0,0.4,0c0.9-0.1,1.4-0.7,1.3-1.7c0-0.3-0.1-0.6-0.4-0.8
		c-0.1,0-0.1-0.1-0.1-0.2c0.1,0,0.1-0.1,0.2-0.1c0.2,0,0.4,0,0.7,0c0.8,0.2,1.4,0.7,1.5,1.6c0,0.3,0,0.6,0,0.9c0,0.2,0,0.3,0.2,0.3
		c0.3,0,0.4-0.1,0.4-0.3c0-0.1,0-0.2,0-0.3c0.1-0.3,0.1-0.6,0.3-0.8c0.4-0.5,0.9-0.7,1.6-0.7c0.9,0,1.7-0.1,2.6-0.1
		c0.2,0,0.4,0,0.6,0c0.2,0,0.3,0.1,0.3,0.4c0,0.2-0.1,0.3-0.3,0.3c-0.2,0-0.4,0.1-0.6,0.1c-0.6,0-1.3,0-1.9,0C29,3.6,29,3.7,29,4
		c0,0.2,0.1,0.3,0.3,0.3c0.2,0,0.4,0,0.6,0c0.6,0,1.2,0,1.9,0c0.2,0,0.3,0.1,0.3,0.3c0,0.2,0,0.3-0.3,0.3c-0.1,0-0.3,0-0.4,0
		c-0.8,0-1.6,0-2.4,0c-0.2,0-0.3,0.1-0.3,0.3c0,0.2,0,0.3,0.3,0.3c0.6,0,1.1,0.1,1.7,0.1c0.3,0,0.6,0,0.8,0c0.1,0,0.3,0.1,0.2,0.2
		c-0.1,0.3-0.2,0.4-0.6,0.4c-0.9,0-1.9,0-2.8,0c-0.2,0-0.3,0.1-0.3,0.3c0,0.3,0,0.4,0.3,0.4c0.6,0,1.1,0,1.7,0.1
		c0.1,0,0.2,0,0.2,0.1c-0.1,0.1-0.1,0.2-0.2,0.3c-0.2,0.1-0.4,0.2-0.6,0.2c-0.5,0.1-0.9,0.1-1.4,0.2c-1,0.1-1.8,0.8-1.9,1.8
		C26,9.9,26,10.2,26,10.5c0,0.2-0.1,0.3-0.3,0.3c-0.3,0-0.4,0-0.4-0.3c0-0.2-0.1-0.3-0.4-0.3c-0.4,0-0.8,0-1.1,0
		c-0.3,0-0.3,0-0.4,0.3c0,0.2-0.1,0.3-0.3,0.3c-0.2,0-0.3,0-0.4-0.1c-0.1-0.2,0-0.6,0.1-0.7c0.2-0.1,0.4-0.2,0.5-0.4
		c0.1-0.1,0.2-0.3,0.1-0.4c-0.1-0.2-0.3-0.3-0.5-0.2c0,0-0.1,0-0.1,0.1c-0.4,0.3-0.9,0.5-1.3,0.8c-0.2,0.1-0.4,0.3-0.7,0.3
		c-0.7,0.1-1.4,0.1-2.1-0.1c-0.3-0.1-0.4-0.2-0.3-0.5c0-0.2,0.1-0.4,0.1-0.6c0-0.1,0.2-0.2,0.3-0.3c0.1,0,0.2,0.1,0.3,0.1
		c0.1,0.1,0.1,0.2,0.1,0.3c0,0.1,0,0.2,0.1,0.3c0,0.1,0.1,0.2,0.2,0.2c0.1,0,0.2-0.1,0.2-0.2c0-0.1,0.1-0.2,0.1-0.3
		c0-0.2,0.1-0.4,0.3-0.4c0.2,0,0.4,0.1,0.4,0.4c0,0.1,0,0.2,0.1,0.3c0.1,0.2,0.2,0.2,0.3,0C21,9.4,21,9.2,21,9.1c0-1,0-1.9,0-2.9
		C21,6.1,21,6,20.8,6c-0.6,0-1.2,0-1.7,0c-0.1,0-0.1-0.1-0.2-0.1c0.1,0,0.1-0.1,0.2-0.1c0,0,0.1,0,0.1,0c0.5,0,1,0,1.5,0
		c0.4,0,0.7,0.1,1,0.3c0.5,0.3,0.9,0.6,1.3,0.9c0.3,0.2,0.6,0,0.6-0.4c0-0.3,0-0.6,0.1-0.8c0-0.3-0.1-0.4-0.3-0.4
		c-0.3,0-0.4,0.1-0.4,0.3c0,0.1-0.1,0.2-0.1,0.2c-0.1,0-0.2,0-0.3-0.1C22,5.2,21.3,5,20.6,5C20,4.9,19.3,5,18.7,5
		c-0.4,0-0.7,0.3-0.9,0.6C17.7,5.9,17.6,6,17.3,6c-0.1,0-0.2,0-0.3,0c-0.2,0-0.3,0.1-0.3,0.3c0,0.9,0,1.9,0,2.8
		c0,0.1,0.1,0.3,0.1,0.4c0.1,0.1,0.2,0.1,0.3,0c0.1-0.1,0.1-0.3,0.1-0.4c0-0.2,0.2-0.3,0.4-0.2c0.2,0,0.2,0.2,0.1,0.3
		c0,0.1-0.1,0.2-0.1,0.4c-0.1,0.5,0.1,1.1,0.6,1.2c0.2,0.1,0.5,0.1,0.7,0.1c0.6,0,1.1,0,1.7,0c0.1,0,0.2,0.1,0.3,0.2
		c0.2,0.2,0.1,0.5-0.2,0.7c-0.2,0.1-0.4,0.1-0.5,0.2c-0.7,0.6-0.7,1.9,0.1,2.3c0.1,0.1,0.3,0.1,0.4,0.2c0.1,0,0.2,0.2,0.2,0.2
		c-0.1,0.2-0.2,0.4-0.4,0.5c0,0-0.2,0-0.3,0c0,0,0,0,0,0c-0.5-0.5-0.8-1-1.1-1.6c-0.2-0.5-0.4-1.1-0.4-1.6c0-0.2-0.1-0.2-0.3-0.1
		c-0.2,0.2-0.4,0.3-0.6,0.6c-0.3,0.4-0.5,0.8-0.7,1.2c-0.1,0.3-0.3,0.3-0.5,0.1c-0.1-0.1-0.3-0.2-0.5-0.4c-0.6-0.4-1.3-0.8-2.1-0.9
		c-0.2,0-0.3,0-0.3,0.3c0,0.6,0.2,1.2,0.5,1.7c0.2,0.6,0.6,1.1,0.9,1.6c0.1,0.2,0.1,0.3-0.1,0.5c-0.6,0.5-1,1.1-1.2,1.8
		c-0.1,0.4-0.1,0.8,0,1.2c0.1,0.2,0.2,0.2,0.3,0.1c0.6-0.4,1.2-0.5,1.9-0.6c1.3-0.2,2.6,0,3.8,0.5c0.4,0.2,0.8,0.4,1,0.9
		c0.1,0.2,0.2,0.5,0.3,0.7c0.1,0.3,0.1,0.4-0.3,0.4c-0.3,0-0.7,0-1,0c-0.3,0-0.5-0.1-0.7-0.4c0,0,0,0,0,0c-0.4-0.6-0.8-0.9-1.5-0.9
		c-0.4,0-0.8,0-1.2,0c-1.2,0-2.4,0-3.6,0c-0.3,0-0.5-0.1-0.7-0.4c-0.2-0.3-0.5-0.5-0.7-0.8c-0.2-0.2-0.5-0.1-0.5,0.2
		c0,0.1,0,0.3,0.1,0.4c0.1,0.1,0.2,0.3,0.3,0.4c0.5,0.4,0.7,1,0.8,1.6c0.2,1,0.1,2-0.2,3c-0.1,0.4-0.1,0.7,0.2,1.1
		c0.7,1,1.3,1.9,1.9,2.9c0.2,0.3,0.2,0.3,0.5,0.2c0.9-0.3,1.6,0.5,1.6,1.3c0,0.5-0.2,0.9-0.7,1.1c-0.5,0.2-1,0.2-1.5-0.2
		c-0.3-0.3-0.6-0.7-0.8-1c-0.6-0.9-1.2-1.9-1.8-2.8c-0.8-1.2-1.5-2.5-2.3-3.7c-0.4-0.6-0.8-1.2-1.1-1.8c-0.2-0.4-0.4-0.9-0.5-1.4
		c-0.2-0.5-0.3-1.1-0.5-1.6c-0.1-0.6-0.2-1.1-0.3-1.7c-0.2-1-0.1-1.9-0.1-2.9c0-0.2,0.1-0.3,0.3-0.3c0.5,0,1,0,1.6,0
		c0.3,0,0.6,0.1,0.9,0.3c0.3,0.2,0.6,0.3,1,0.3c0.6,0,1.1,0,1.7,0c0.2,0,0.3-0.1,0.3-0.3c0-0.3,0-0.4-0.3-0.4c-0.6,0-1.2,0-1.8,0
		c-0.1,0-0.3,0-0.3-0.1c-0.5-0.4-1.1-0.5-1.7-0.5c-0.7,0-1.4,0-2.1,0.1c-0.2,0-0.2,0.1-0.2,0.3c0,1.1,0.1,2.1,0.1,3.2
		c0.1,0.8,0.2,1.5,0.3,2.2c0.2,0.8,0.4,1.6,0.7,2.3c0.2,0.7,0.5,1.3,0.9,1.9c0.2,0.4,0.3,0.7,0.1,1.1c-0.2,0.5-0.3,1-0.4,1.6
		c-0.1,0.5-0.3,1.1-0.4,1.6c-0.1,0.5-0.3,1-0.5,1.5c0,0.1-0.1,0.2-0.1,0.3c-0.1-0.1-0.2-0.2-0.3-0.3c0,0,0-0.1,0-0.1
		c-0.2-0.4-0.3-0.8-0.5-1.2c-0.2-0.4-0.3-0.9-0.2-1.4c0.2-0.7,0.3-1.3,0.5-2c0.1-0.6,0.3-1.2,0.4-1.7c0.1-0.5,0.2-0.9-0.1-1.3
		c-0.3-0.5-0.6-0.9-1.2-0.9c-0.3,0-0.7,0-1,0c-0.5,0.1-1.1,0.7-1.2,1.2c-0.1,0.6,0,1.2,0.3,1.7c0.2,0.5,0.4,1.1,0.6,1.6
		c0.2,0.6,0.4,1.1,0.6,1.7c0.1,0.2,0.1,0.3,0,0.5c-0.1,0.3-0.2,0.7-0.3,1c-0.1,0.6-0.3,1.1-0.4,1.7c-0.2,0.6-0.3,1.3-0.5,1.9
		c-0.1,0.3-0.2,0.4-0.5,0.4c-0.6,0-1.1,0.5-1,1.1c0,0.3,0.2,0.6,0.5,0.7c0.3,0.1,0.7,0.2,1-0.2C3.8,33.6,3.9,33.3,4,33
		c0.2-0.8,0.4-1.6,0.6-2.3C4.8,30,5,29.2,5.2,28.5c0-0.1,0.1-0.1,0.1-0.2c0.1,0,0.1,0.1,0.2,0.1c0.1,0.2,0.2,0.5,0.3,0.7
		C6,29.6,6.2,30,6.3,30.4c0.1,0.2,0.1,0.4,0.1,0.6c-0.2,0.7-0.4,1.4-0.6,2.1c-0.2,0.9-0.5,1.9-0.7,2.8c-0.1,0.3-0.2,0.6-0.2,0.9
		c-0.2,0.6-0.3,1.1-0.5,1.7c-0.2,0.6-0.3,1.2-0.5,1.9c-0.1,0.6-0.3,1.1-0.4,1.7c-0.2,0.6-0.3,1.2-0.5,1.8c-0.1,0.3-0.1,0.6-0.1,1
		c0,0.6,0.4,1.1,0.8,1.4c0.1,0.1,0.2,0.2,0.3,0.4h1.9c-0.1-0.2,0-0.3,0.2-0.4c0.8-0.5,1-1.3,0.9-2.2c-0.1-0.4-0.3-0.8-0.6-1
		c-0.2-0.2-0.2-0.3-0.1-0.5c0.2-0.9,0.5-1.7,0.7-2.6c0.2-0.7,0.4-1.3,0.6-2c0-0.2,0.2-0.3,0.3-0.3c0.4,0,0.8,0,1.2,0
		c0.1,0,0.3,0.1,0.3,0.2c0.3,0.7,0.5,1.4,0.8,2c0.2,0.5,0.4,1.1,0.7,1.6c0.2,0.4,0.3,0.8,0.4,1.2c0.1,0.3,0.3,0.7,0.4,1
		c0.2,0.5,0.4,1.1,0.6,1.6c0.1,0.4,0.4,0.6,0.7,0.9c0.1,0.1,0.3,0.2,0.3,0.4h1.7c0-0.2,0.1-0.3,0.3-0.4c0.6-0.5,0.9-1.1,0.9-1.9
		c0-0.8-0.8-1.8-1.6-1.9c-0.3,0-0.5-0.2-0.6-0.5c-0.2-0.6-0.5-1.2-0.7-1.8c-0.2-0.6-0.4-1.1-0.6-1.7c0-0.1-0.1-0.3-0.2-0.4
		c-0.1-0.2,0-0.3,0.2-0.3c0.3,0,0.6-0.1,1-0.1c0.4,0,0.4-0.1,0.3-0.4c-0.1-0.4-0.3-0.8-0.5-1.2c-0.2-0.4-0.3-0.8-0.5-1.2
		c-0.2-0.5-0.4-1.1-0.6-1.6c-0.2-0.6-0.4-1.1-0.7-1.7c-0.1-0.2-0.2-0.5-0.3-0.7c-0.1-0.2-0.1-0.4-0.1-0.7c0.1-0.3,0.2-0.7,0.3-1
		c0.1-0.2,0.2-0.3,0.3-0.1c0.3,0.3,0.5,0.6,0.7,1c0.4,0.6,0.7,1.2,1.3,1.7c0.1,0.1,0.3,0.2,0.5,0.3c0.2,0.1,0.3,0.2,0.3,0.4
		c0,0.5,0,1.1,0,1.6c0.1,1,0.2,1.9,0.4,2.9c0.2,0.9,0.5,1.7,0.8,2.5c0.4,0.8,0.8,1.6,1.3,2.4c0.6,0.9,1.3,1.7,2.2,2.4
		c0.7,0.6,1.4,1.1,2.2,1.5c0.5,0.2,1,0.5,1.5,0.7c0.1,0,0.1,0.1,0.2,0.2h1.2c0.1-0.1,0.1-0.2,0.2-0.2c0.3-0.1,0.6-0.2,0.8-0.4
		c1.2-0.5,2.3-1.2,3.3-2.1c0.9-0.8,1.7-1.8,2.3-2.8c0.5-0.8,0.9-1.5,1.2-2.4c0.2-0.7,0.5-1.4,0.7-2.1c0.1-0.6,0.2-1.3,0.2-2
		c0-0.7,0-1.4,0-2.1c0-0.2,0.1-0.3,0.2-0.4c0.7-0.3,1.2-0.9,1.6-1.6c0.3-0.5,0.6-1,0.9-1.4c0.1-0.2,0.2-0.2,0.3,0
		c0.1,0.5,0.3,1,0.4,1.5c0,0.1,0,0.3-0.1,0.4c-0.2,0.6-0.5,1.2-0.7,1.8c-0.2,0.5-0.4,1.1-0.7,1.6c-0.2,0.6-0.4,1.1-0.6,1.7
		c-0.1,0.4-0.3,0.8-0.4,1.2c-0.1,0.2,0,0.3,0.2,0.3c0.3,0,0.7,0,1,0c0.4,0,0.4,0.1,0.3,0.4c-0.2,0.6-0.4,1.2-0.6,1.8
		c-0.1,0.3-0.3,0.6-0.4,0.9c-0.2,0.4-0.3,0.8-0.5,1.2c-0.1,0.2-0.2,0.3-0.5,0.4c-0.7,0.2-1.3,0.6-1.5,1.3c-0.2,0.8-0.3,1.5,0.4,2.2
		c0.2,0.2,0.3,0.3,0.5,0.5c0.1,0.1,0.1,0.2,0.1,0.2h1.8c0.1-0.1,0.2-0.3,0.3-0.4c0.4-0.4,0.7-0.8,0.9-1.4c0.2-0.5,0.4-1.1,0.6-1.6
		c0.1-0.4,0.3-0.8,0.4-1.1c0.2-0.4,0.3-0.8,0.5-1.2c0.1-0.4,0.3-0.7,0.4-1.1c0.3-0.6,0.5-1.3,0.8-1.9c0-0.1,0.2-0.2,0.2-0.2
		c0.4,0,0.8,0,1.2,0c0.1,0,0.2,0.1,0.3,0.2c0.2,0.9,0.5,1.8,0.8,2.7c0.2,0.6,0.4,1.3,0.5,1.9c0.1,0.2,0,0.3-0.1,0.5
		c-0.8,0.9-0.8,2.3,0.2,3.2c0.1,0.1,0.3,0.2,0.3,0.4h2c0.1-0.1,0.2-0.3,0.3-0.4C44.8,45.8,45.2,45.4,45.2,44.8z M41.9,22.1
		c0-0.4,0.2-0.7,0.6-0.9c0.4-0.2,0.7-0.2,1,0.1c0.3,0.2,0.5,0.4,0.5,0.9c0,0.2,0,0.3-0.1,0.5c-0.3,0.8-0.6,1.6-0.9,2.5
		c0,0,0,0.1-0.1,0.1c-0.1,0.1-0.1,0.1-0.2,0.1c0-0.1-0.1-0.1-0.1-0.2c-0.1-0.3-0.2-0.6-0.3-0.9C42.1,23.5,41.8,22.8,41.9,22.1z
		 M31.9,8.6c0.2-0.1,0.4-0.2,0.6-0.3c0.1,0,0.3,0,0.3,0.2c0,0.2-0.1,0.3-0.2,0.3c-0.1,0-0.3,0.1-0.4,0.1c-0.1,0-0.2,0-0.2,0
		C31.9,8.8,31.8,8.7,31.9,8.6z M20.2,8.2c-0.2,0-0.3,0-0.3-0.2c0-0.2,0.2-0.2,0.3-0.2c0.2,0,0.3,0,0.3,0.2
		C20.5,8.1,20.3,8.2,20.2,8.2z M20.1,6.6c0.2,0,0.4,0.2,0.4,0.3c0,0.1-0.1,0.2-0.4,0.2c-0.2,0-0.4-0.1-0.4-0.3
		C19.8,6.7,20,6.6,20.1,6.6z M18.9,6.5c0.2,0,0.4,0.2,0.4,0.3c0,0.2-0.2,0.2-0.3,0.2c-0.2,0-0.3-0.1-0.3-0.3
		C18.6,6.7,18.7,6.5,18.9,6.5z M19,7.7c0.1,0,0.3,0,0.3,0.2c0,0.2-0.1,0.2-0.3,0.2c-0.2,0-0.3,0-0.3-0.2C18.6,7.8,18.7,7.7,19,7.7z
		 M17.7,6.6c0.1,0,0.3,0,0.3,0.2c0,0.2-0.1,0.3-0.4,0.3c-0.2,0-0.3,0-0.3-0.2C17.3,6.7,17.4,6.6,17.7,6.6z M17.6,8.2
		c-0.2,0-0.3-0.1-0.3-0.3c0-0.2,0.1-0.2,0.2-0.2C17.9,7.7,18,7.8,18,8C18,8.1,17.8,8.2,17.6,8.2z M5.4,25c0,0.1-0.1,0.2-0.2,0.3
		c-0.2,0-0.2-0.1-0.2-0.2c-0.1-0.4-0.3-0.8-0.4-1.1c-0.2-0.5-0.4-1-0.6-1.5c-0.1-0.4,0.1-0.8,0.4-1.1C4.6,21,5.1,21,5.4,21.1
		c0.5,0.2,0.7,0.6,0.6,1.1c0,0.7-0.1,1.2-0.3,1.8C5.6,24.3,5.5,24.7,5.4,25z M8.8,36.5C8.7,37,8.6,37,8,37c-0.1,0-0.3,0-0.5,0
		c-0.4,0-0.6,0.1-0.7,0.5c-0.1,0.4-0.2,0.8-0.3,1.1c-0.2,0.6-0.3,1.1-0.5,1.7c-0.1,0.3-0.2,0.6-0.2,0.8c-0.2,0.6-0.3,1.3-0.5,1.9
		c0,0.2,0,0.2,0.1,0.3c0.4,0.3,0.7,0.7,0.7,1.3c0,0.9-0.9,1.5-1.7,1.2c-0.6-0.2-1-0.8-0.9-1.3c0.1-0.7,0.3-1.3,0.4-2
		c0.1-0.6,0.3-1.1,0.5-1.7c0.2-0.6,0.3-1.1,0.5-1.7c0.1-0.5,0.3-1.1,0.4-1.6c0.2-0.6,0.3-1.2,0.5-1.8c0.1-0.5,0.3-1,0.4-1.6
		c0.2-0.6,0.3-1.2,0.5-1.8c0.1-0.5,0.3-1,0.4-1.5c0.2-0.6,0.3-1.2,0.5-1.8C7.9,28.6,8,28,8.2,27.5c0.2-0.6,0.3-1.2,0.5-1.7
		c0.1-0.3,0.1-0.6,0.2-0.8c0-0.1,0.1-0.2,0.1-0.3c0.1,0.1,0.2,0.1,0.2,0.2c0.3,0.5,0.7,1,1,1.5c0.3,0.4,0.5,0.9,0.8,1.3
		c0.1,0.2,0.1,0.4,0.1,0.6c-0.2,0.6-0.3,1.2-0.5,1.8c-0.2,0.6-0.3,1.1-0.5,1.7C10,32.4,9.8,33,9.7,33.5c-0.2,0.5-0.3,1.1-0.5,1.6
		 M11.5,33.4c0.2,0.6,0.4,1.1,0.7,1.7c0.2,0.5,0.4,1,0.6,1.5c0.1,0.3,0,0.4-0.3,0.4c-0.3,0-0.6,0-0.9,0c-0.2,0-0.3,0.1-0.3,0.3
		c0.1,0.3,0.2,0.6,0.3,0.8c0.2,0.6,0.5,1.2,0.7,1.8c0.2,0.5,0.4,1.1,0.7,1.6c0.2,0.5,0.4,1,0.6,1.4c0,0.1,0.2,0.2,0.3,0.2
		c0.2,0.1,0.5,0.1,0.7,0.1c0.4,0.1,0.9,0.7,0.8,1.3c-0.1,0.7-0.8,1.2-1.3,1.2c-0.5,0-0.9-0.3-1.1-0.8c-0.2-0.5-0.4-0.9-0.6-1.4
		c-0.2-0.5-0.4-1-0.6-1.5c-0.2-0.4-0.3-0.8-0.5-1.1c-0.2-0.4-0.3-0.8-0.5-1.2c-0.2-0.4-0.3-0.8-0.5-1.2c-0.2-0.4-0.3-0.8-0.5-1.3
		c0-0.1-0.1-0.2-0.1-0.3c-0.1-0.3-0.1-0.5,0-0.8c0.2-0.6,0.4-1.2,0.5-1.9c0.2-0.5,0.3-1.1,0.5-1.6c0-0.1,0-0.2,0.1-0.3
		c0-0.1,0.1-0.2,0.2-0.2c0.1,0,0.2,0.1,0.2,0.1C11.3,32.6,11.4,33,11.5,33.4z M35.1,24.8c0.1,0.3-0.1,0.5-0.2,0.8
		c-0.4,0.7-0.8,1.3-1.2,2c0,0-0.1,0.1-0.1,0.1c-0.1,0-0.1-0.1-0.1-0.1c0-0.1,0-0.1,0-0.2c0-0.7,0-1.3,0-2c0,0,0,0,0,0
		c0-0.6,0-1.3,0-1.9c0-0.3,0-0.4,0.4-0.4c0.3,0,0.5,0,0.8,0c0.2,0,0.2,0.1,0.3,0.3C34.9,23.8,34.9,24.3,35.1,24.8z M29.5,21.2
		c0.3-0.3,0.7-0.3,1.2-0.3c0.7,0,1.3,0,2,0c0,0,0,0.1,0,0.1c0.7,0,1.3,0,2,0c0.3,0,0.3,0.1,0.3,0.3c0,0.3-0.1,0.5-0.2,0.8
		c0,0.1-0.2,0.2-0.3,0.2c-0.3,0-0.5,0-0.8,0c-0.2,0-0.3-0.1-0.3-0.3c0-0.2-0.1-0.3-0.3-0.3c-1.1,0-2.3-0.1-3.4-0.1
		c-0.1,0-0.2-0.1-0.2-0.1C29.4,21.3,29.4,21.2,29.5,21.2z M28,16.5c0-0.2,0.1-0.3,0.2-0.4c0.9-0.5,1.5-1.3,2-2.2
		c0.1-0.1,0.1-0.3,0.2-0.4c0.1-0.2,0.2-0.1,0.3,0c0.1,0.4,0.3,0.8,0.4,1.2c0.1,0.3,0.1,0.3,0.3,0.2c0.7-0.4,1.3-0.7,2-1.1
		c0.1-0.1,0.3-0.1,0.4-0.2c0.2-0.1,0.3,0,0.2,0.2c-0.1,0.2-0.1,0.4-0.3,0.7c-0.3,0.7-0.8,1.2-1.4,1.7c-0.3,0.3-0.3,0.3-0.1,0.7
		c0.2,0.4,0.5,0.8,0.7,1.2c0,0.1,0,0.2,0,0.3c-0.1,0-0.2,0-0.3,0c-0.9-0.1-1.8-0.1-2.7,0.1c-0.5,0.1-1,0.3-1.5,0.4
		c-0.2,0.1-0.3,0-0.3-0.2c-0.1-0.6-0.1-1.3-0.2-1.9c0,0,0,0,0,0C28,16.6,28,16.6,28,16.5z M28,12.7c0.1,0.1,0.2,0.2,0.4,0.3
		c-0.1,0.1-0.2,0.1-0.2,0.1c-0.1-0.1-0.2-0.2-0.3-0.3C27.9,12.8,28,12.7,28,12.7z M26.7,10.8c0.3,0,0.5,0.2,0.5,0.5
		c0,0.3-0.2,0.5-0.4,0.5c-0.3,0-0.6-0.3-0.6-0.5C26.2,11.1,26.5,10.8,26.7,10.8z M25.5,12.5c0.1,0,0.2,0,0.4,0c0,0,0,0,0,0
		c0.1,0,0.2,0,0.2,0c0.2,0,0.3,0.1,0.4,0.2c0.2,0.3,0.3,0.5,0.5,0.7c0.2,0.3,0.1,0.4-0.2,0.5c-0.5,0.1-0.8-0.2-1.1-0.6
		c-0.1-0.2-0.2-0.3-0.3-0.5C25.3,12.6,25.3,12.5,25.5,12.5z M24.3,10.8c0.3,0,0.5,0.3,0.5,0.5c0,0.2-0.2,0.5-0.5,0.5
		c-0.2,0-0.5-0.2-0.5-0.5C23.8,11.1,24,10.8,24.3,10.8z M22.9,12.5c0.1,0,0.2,0,0.4,0c0.4-0.1,0.6,0.1,0.8,0.5
		c0.1,0.2,0.2,0.4,0.4,0.5c0.1,0.2,0.1,0.3-0.1,0.4c-0.3,0.1-0.7,0.2-0.9-0.1c-0.2-0.3-0.4-0.7-0.6-1C22.7,12.6,22.8,12.5,22.9,12.5
		z M21.9,10.8c0.3,0,0.5,0.3,0.5,0.5c0,0.3-0.2,0.5-0.5,0.5c-0.2,0-0.6-0.3-0.5-0.5C21.4,11.1,21.7,10.8,21.9,10.8z M20.6,13.5
		c-0.2-0.3-0.1-0.9,0.3-1c0.1,0,0.3,0,0.4,0.1c0.2,0.3,0.4,0.6,0.6,1c0,0-0.1,0.2-0.1,0.2c-0.1,0-0.3,0-0.4,0.1
		C21.1,13.8,20.8,13.8,20.6,13.5z M18,17.1c0.5,0.4,0.9,0.7,1.4,1.1c0.1,0,0.1,0.1,0.1,0.2c0,0.1-0.1,0.1-0.2,0.1
		c-0.2,0-0.3,0-0.4-0.1c-1-0.3-1.9-0.2-2.9-0.1c-0.3,0-0.6,0.1-0.9,0.2c-0.2,0.1-0.4,0-0.3-0.3c0.1-0.3,0.3-0.6,0.5-0.8
		c0.3-0.3,0.6-0.5,0.9-0.8c0.2-0.1,0.2-0.2,0.1-0.4c-0.3-0.4-0.6-0.9-0.8-1.3c-0.2-0.4-0.4-0.9-0.6-1.4c0-0.1,0-0.2,0-0.3
		c0.1,0,0.2,0,0.3,0c0.6,0.3,1.1,0.8,1.6,1.3c0.1,0.2,0.3,0.3,0.4,0.5c0.1,0.2,0.2,0.2,0.3,0c0.1-0.3,0.2-0.6,0.3-0.9
		c0.1-0.3,0.3-0.6,0.4-0.9c0,0,0.1-0.1,0.2-0.1c0.1,0,0.2,0.1,0.2,0.2c0.1,0.2,0.1,0.4,0.2,0.6c0.2,0.6,0.5,1.1,0.9,1.6
		c0.1,0.2,0.1,0.3-0.1,0.5c-0.3,0.2-0.7,0.4-1.1,0.6c-0.1,0.1-0.2,0.1-0.4,0.2C17.8,16.9,17.9,17,18,17.1z M20.1,16.4
		c0.2-0.2,0.4-0.3,0.6-0.5c0.4-0.4,0.7-0.7,1.1-1.1c0.2-0.2,0.4-0.3,0.6-0.3c0.7,0,1.4,0,2.1,0c0,0,0,0,0,0c0.8,0,1.5,0,2.3,0
		c0.3,0,0.5,0.5,0.4,0.7c0,0.1-0.2,0.1-0.3,0.1c-1.1,0-2.1,0.1-3.2,0.1c-0.2,0-0.4,0.1-0.5,0.2c-0.9,0.6-1.8,1-2.8,1.1
		c-0.1,0-0.1,0-0.2,0c-0.1,0-0.2-0.1-0.2-0.1C20,16.6,20,16.5,20.1,16.4z M20.8,18.8c-0.2-0.3-0.5-0.5-0.7-0.8
		c-0.1-0.1-0.1-0.1-0.2-0.2c-0.1-0.1,0-0.2,0.1-0.3c0.4-0.1,0.8-0.1,1.2-0.2c0.4-0.1,0.8-0.3,1.2-0.4c0.4-0.2,0.7-0.4,1.1-0.6
		c0.1-0.1,0.2-0.1,0.3-0.1c0.5,0,1,0,1.5,0c0.5,0,0.9,0,1.4,0c0.4,0,0.5,0,0.5,0.5c0.1,1.2,0.2,2.4,0.3,3.6c0,0.3,0.1,0.6,0.1,0.9
		c0,0.2-0.1,0.3-0.3,0.3c-0.3,0-0.6,0.1-1,0.1c-0.8,0.1-1.6,0.3-2.4,0.4c-0.4,0.1-0.8,0.3-1.2,0.4c-0.2,0.1-0.3,0-0.4-0.2
		C22.1,21,21.6,19.8,20.8,18.8z M14.7,27.3c0,0.1,0,0.1,0,0.2c0,0.1-0.1,0.1-0.1,0.2c-0.1,0-0.1-0.1-0.1-0.1c-0.5-0.8-1-1.6-1.5-2.3
		c-0.1-0.1-0.1-0.3,0-0.4c0.1-0.4,0.2-0.9,0.3-1.3c0-0.1,0-0.2,0.1-0.3c0.1-0.2,0.2-0.3,0.4-0.3c0.2,0,0.4,0,0.6,0
		c0.3,0,0.4,0.1,0.4,0.4c0,0.7,0,1.4,0,2c0,0,0.1,0,0.1,0C14.7,26,14.7,26.6,14.7,27.3z M14.6,21.8c0,0.3-0.1,0.4-0.4,0.4
		c-0.2,0-0.5,0-0.7,0c-0.2,0-0.3-0.1-0.3-0.2c-0.1-0.3-0.2-0.5-0.2-0.8c0-0.2,0.1-0.3,0.3-0.3c0.7,0,1.3-0.1,2.2-0.1
		c0.7,0,1.6,0.1,2.5,0.1c0.2,0,0.3,0.1,0.5,0.2c0,0,0.1,0.1,0.1,0.2c0,0-0.1,0.1-0.2,0.1c0,0-0.1,0-0.2,0c-1.1,0-2.2,0-3.2,0
		C14.7,21.5,14.7,21.5,14.6,21.8z M25.6,45.2c-0.5,0.2-0.9,0.4-1.4,0.6c-0.1,0-0.2,0.1-0.3,0c-0.7-0.3-1.5-0.5-2.1-0.9
		c-0.7-0.4-1.3-0.8-1.9-1.3c-1.1-0.9-2-2-2.7-3.2c-0.4-0.7-0.8-1.4-1-2.2c-0.5-1.4-0.7-2.8-0.7-4.3c0-0.5,0-1-0.1-1.5
		c0-0.2,0.1-0.4,0.3-0.5c0.5-0.2,0.9-0.5,1.2-1c0.2-0.4,0.2-0.8,0.1-1.3c-0.1-0.8-0.6-1.4-1.4-1.6c-0.2-0.1-0.2-0.2-0.2-0.4
		c0-0.9-0.1-1.9-0.1-2.8c0-0.7,0-1.5,0-2.2c0-0.3,0-0.4,0.4-0.4c1,0,1.9,0,2.9,0c0.9,0,1.7,0,2.6,0c0.7,0,0.6,0,0.8,0.7
		c0.1,0.1,0.1,0.3,0.1,0.4c0.1,0.1,0.2,0.2,0.3,0.1c0.8-0.4,1.7-0.7,2.6-0.9c0.8-0.1,1.5-0.2,2.3-0.2c1.6,0,3.3,0,4.9,0
		c0.3,0,0.4,0.1,0.4,0.4c0,1.7,0,3.3,0,5c0,0.2-0.1,0.4-0.3,0.5c-0.4,0.1-0.7,0.4-1,0.7c-0.3,0.3-0.4,0.7-0.4,1.1
		c-0.1,1.1,0.4,1.8,1.3,2.2c0.2,0.1,0.3,0.2,0.3,0.5c0,1.1,0,2.1-0.2,3.1c-0.2,0.9-0.4,1.7-0.7,2.6c-0.2,0.7-0.5,1.3-0.8,1.9
		c-0.4,0.7-0.9,1.4-1.3,2 M38.2,37.2c-0.2,0.5-0.3,0.9-0.5,1.4c-0.1,0.4-0.3,0.8-0.4,1.1c-0.1,0.4-0.3,0.8-0.4,1.1
		c-0.2,0.5-0.4,1.1-0.7,1.6c-0.2,0.5-0.4,1-0.6,1.5c-0.2,0.4-0.3,0.7-0.5,1.1c-0.2,0.5-0.6,0.6-1.1,0.7c-1,0.1-1.5-1.1-1.2-1.8
		c0.2-0.6,0.7-0.8,1.3-0.9c0.2,0,0.4-0.1,0.5-0.3c0.3-0.7,0.6-1.4,0.8-2c0.2-0.6,0.4-1.1,0.6-1.7c0.2-0.6,0.4-1.2,0.7-1.8
		c0.1-0.2,0-0.3-0.2-0.3c-0.2,0-0.4,0-0.5,0c-0.2,0-0.4,0-0.6-0.1c-0.2,0-0.2-0.1-0.2-0.3c0.4-1,0.7-1.9,1.1-2.9
		c0.2-0.5,0.4-1,0.6-1.5c0-0.1,0.1-0.1,0.2-0.2c0.1,0.1,0.1,0.1,0.2,0.2c0.3,0.9,0.5,1.8,0.7,2.7c0.1,0.5,0.3,1,0.4,1.5
		C38.3,36.7,38.2,37,38.2,37.2z M44.3,45c-0.1,0.4-0.4,0.6-0.7,0.7c-0.7,0.3-1.5,0-1.7-0.7c-0.2-0.5-0.1-1.2,0.5-1.6
		c0.3-0.2,0.3-0.2,0.2-0.6c-0.2-0.6-0.3-1.2-0.5-1.8c-0.1-0.6-0.3-1.1-0.4-1.7c-0.2-0.6-0.3-1.1-0.5-1.7c0-0.1-0.1-0.2-0.1-0.2
		c0-0.3-0.2-0.4-0.4-0.4c-0.2,0-0.5,0-0.7-0.1c0,0,0,0,0,0c-0.1,0-0.2,0-0.4,0c-0.3,0-0.5-0.1-0.5-0.4c-0.1-0.4-0.3-0.9-0.4-1.4
		c-0.2-0.6-0.3-1.1-0.4-1.7c-0.2-0.6-0.3-1.2-0.5-1.8c-0.2-0.6-0.3-1.1-0.5-1.7c-0.1-0.3-0.2-0.6-0.2-0.8c-0.1-0.4-0.2-0.8-0.3-1.2
		c0-0.1,0-0.2,0-0.3c0.3-0.6,0.7-1.2,1-1.8c0.3-0.4,0.5-0.8,0.8-1.3c0-0.1,0.1-0.2,0.2-0.1c0.1,0,0.1,0.1,0.2,0.2
		c0.1,0.3,0.2,0.6,0.3,0.9c0.2,0.8,0.4,1.5,0.6,2.3c0.2,0.8,0.4,1.5,0.7,2.3c0.2,0.5,0.3,1.1,0.4,1.6c0.2,0.6,0.3,1.1,0.5,1.7
		c0.2,0.5,0.3,1.1,0.4,1.6c0.2,0.6,0.3,1.1,0.5,1.7c0.1,0.5,0.3,1.1,0.4,1.6c0.2,0.6,0.3,1.1,0.5,1.7c0.1,0.5,0.3,1.1,0.4,1.6
		c0.2,0.6,0.3,1.1,0.5,1.7C44.4,44.1,44.5,44.6,44.3,45z"/>
	<path fill-rule="evenodd" clip-rule="evenodd" d="M25.2,3c0-0.2-0.1-0.3-0.3-0.3c-0.2,0-0.4,0.2-0.4,0.4c0,0.2,0.2,0.4,0.3,0.4
		C25,3.5,25.2,3.2,25.2,3z"/>
	<path fill-rule="evenodd" clip-rule="evenodd" d="M34.2,15.9c-0.2,0.2-0.2,0.4,0.1,0.5c0.2,0.1,0.4,0.1,0.6,0.1c0.3,0,0.6,0,0.9,0
		c0,0,0,0,0,0c0.1,0,0.2,0,0.3,0c0.2,0,0.4-0.1,0.4-0.3c0-0.2-0.1-0.4-0.3-0.4c-0.5,0-1-0.1-1.5-0.1C34.5,15.8,34.4,15.8,34.2,15.9z
		"/>
	<path fill-rule="evenodd" clip-rule="evenodd" d="M37.2,17.9c-0.2,0-0.4,0.2-0.4,0.4c0,0.2,0.2,0.4,0.4,0.4c0.2,0,0.4-0.2,0.4-0.4
		C37.6,18.1,37.5,17.9,37.2,17.9z"/>
	<path fill-rule="evenodd" clip-rule="evenodd" d="M35.6,18.4c0,0.2,0.2,0.4,0.4,0.4c0.2,0,0.4-0.2,0.4-0.4c0-0.2-0.1-0.4-0.4-0.4
		C35.8,18,35.6,18.1,35.6,18.4z"/>
	<path fill-rule="evenodd" clip-rule="evenodd" d="M37,15c-0.3-0.2-0.7-0.2-1-0.2c0,0,0,0,0,0.1c-0.1,0-0.2,0-0.3,0
		c-0.2,0-0.3,0-0.3,0.2c0,0.2,0.1,0.4,0.3,0.4c0.2,0,0.4,0,0.6,0c0.4,0,0.8,0.5,0.7,0.8c-0.1,0.4-0.4,0.6-0.8,0.6
		c-0.2,0-0.4,0-0.6,0c-0.2,0-0.3,0.2-0.3,0.4c0,0.2,0.1,0.3,0.3,0.3c0.3,0,0.5,0,0.8-0.1c0.6-0.1,1-0.4,1.1-1
		C37.7,16,37.5,15.2,37,15z"/>
	<path fill-rule="evenodd" clip-rule="evenodd" d="M27.5,37.5c-0.2-0.3-0.3-0.3-0.6-0.1c-0.2,0.1-0.4,0.2-0.6,0.3
		c-0.1,0.1-0.2,0-0.3-0.1c-0.1-0.2-0.2-0.3-0.3-0.5c-0.4-0.7-0.8-1.4-1.2-2.1c-0.1-0.2-0.1-0.4,0-0.5c0.4-0.7,0.8-1.3,1.2-2
		c0.5-0.9,1.1-1.8,1.6-2.7c0.5-0.9,1-1.7,1.5-2.6c0.1-0.2,0.3-0.3,0.5-0.3c0.1,0,0.2,0,0.4,0c0.7,0.1,1.3-0.3,1.6-0.8
		c0.5-0.8,0.5-1.5,0-2.3c-0.6-0.9-1.7-1.1-2.6-0.7c-0.6,0.3-0.9,0.8-1,1.4c-0.1,0.7,0,1.3,0.4,1.9c0.1,0.1,0.1,0.3,0,0.4
		c-0.5,0.8-0.9,1.6-1.4,2.4c-0.5,0.8-0.9,1.6-1.4,2.4c-0.4,0.7-0.8,1.4-1.2,2.1C24.2,34,24,34,23.9,33.9c-0.1-0.1-0.1-0.2-0.2-0.3
		c-0.6-1.1-1.3-2.2-1.9-3.3c-0.6-1.1-1.2-2.2-1.8-3.3c-0.2-0.3-0.2-0.5,0-0.8c0.1-0.1,0.1-0.2,0.2-0.3c0.5-0.5,0.3-1.8-0.2-2.3
		c-0.4-0.5-1-0.7-1.7-0.7c-0.3,0-0.6,0.1-0.9,0.3c-0.8,0.6-1.1,1.8-0.6,2.7c0.2,0.3,0.4,0.6,0.8,0.8c0.4,0.2,0.8,0.2,1.2,0.1
		c0.3,0,0.5,0,0.7,0.3c0.6,1.1,1.3,2.2,1.9,3.3c0.7,1.3,1.5,2.6,2.2,3.9c0.1,0.2,0.1,0.4,0,0.6c-0.1,0.2-0.2,0.4-0.3,0.5
		c-0.3,0.6-0.7,1.2-1,1.8c-0.2,0.3-0.3,0.3-0.6,0.1c-0.2-0.1-0.4-0.2-0.6-0.3c-0.1-0.1-0.2,0-0.3,0.1c-0.4,0.7-0.8,1.4-1.1,2.1
		c-0.1,0.2-0.1,0.3,0.1,0.4c0.2,0.1,0.4,0.3,0.6,0.4c0.2,0.1,0.2,0.2,0.1,0.4c-0.2,0.3-0.3,0.7-0.5,1c-0.1,0.2,0.1,0.3,0.2,0.3
		c0.1,0.1,0.2,0.1,0.3-0.1c0.2-0.3,0.4-0.6,0.5-0.9c0.9-1.5,1.8-3,2.7-4.5c0.1-0.2,0.2-0.4,0.4-0.6c0.1-0.2,0.3-0.2,0.4-0.1
		c0.1,0.2,0.3,0.5,0.4,0.7c0.4,0.8,0.9,1.6,1.3,2.4c0.4,0.7,0.8,1.4,1.2,2.2c0.2,0.3,0.3,0.6,0.5,0.9c0.1,0.2,0.3,0.2,0.4,0.1
		c0.1-0.1,0.2-0.2,0.1-0.4c-0.2-0.3-0.3-0.6-0.5-0.9c-0.1-0.2-0.1-0.3,0.1-0.5c0.2-0.1,0.4-0.3,0.6-0.4c0.2-0.1,0.2-0.2,0.1-0.3
		C28.3,38.8,27.9,38.2,27.5,37.5z M29.7,23.7c0.7,0,1.2,0.6,1.3,1.3c0,0.7-0.5,1.3-1.3,1.3c-0.6,0-1.4-0.6-1.3-1.3
		C28.4,24.3,29,23.7,29.7,23.7z M18.3,26.3c-0.6,0-1.2-0.6-1.2-1.3c0-0.8,0.6-1.3,1.3-1.3c0.9,0,1.3,0.5,1.3,1.4
		C19.8,25.7,19.1,26.3,18.3,26.3z M21.4,38.6c-0.2,0.3-0.3,0.5-0.5,0.8c-0.1,0.1-0.2,0.2-0.3,0.1c-0.1,0-0.3-0.1-0.3-0.4
		c0,0,0.1-0.1,0.1-0.2c0.1-0.2,0.3-0.5,0.5-0.7c0.1-0.2,0.3-0.2,0.4-0.1C21.3,38.3,21.5,38.4,21.4,38.6z M27.5,39.6
		c-0.1,0-0.2,0-0.3-0.1c-0.2-0.3-0.4-0.6-0.5-0.8c-0.1-0.2,0.1-0.5,0.3-0.5c0.1,0,0.2,0,0.2,0.1c0.2,0.3,0.4,0.6,0.6,0.9
		c0,0,0,0.1,0.1,0.2C27.7,39.5,27.6,39.6,27.5,39.6z"/>
</g>
</svg>
