<?xml version="1.0" encoding="utf-8"?>
<!-- Generator: Adobe Illustrator 18.0.0, SVG Export Plug-In . SVG Version: 6.00 Build 0)  -->
<!DOCTYPE svg PUBLIC "-//W3C//DTD SVG 1.1//EN" "http://www.w3.org/Graphics/SVG/1.1/DTD/svg11.dtd">
<svg version="1.1" id="Layer_1" xmlns="http://www.w3.org/2000/svg" xmlns:xlink="http://www.w3.org/1999/xlink" x="0px" y="0px"
	 width="48px" height="48px" viewBox="0 0 48 48" enable-background="new 0 0 48 48" xml:space="preserve">
<g>
	<path fill-rule="evenodd" clip-rule="evenodd" d="M48,35.4c-3.2,0-6.4,0-9.6,0c0-0.1,0.1-0.1,0.1-0.2c0.2-0.2,0.4-0.4,0.4-0.7
		c0-0.3-0.1-0.6-0.1-0.8c0-0.2-0.1-0.3-0.1-0.5c-0.1-0.3-0.1-0.5-0.2-0.8c-0.1-0.4-0.2-0.8-0.3-1.1c-0.1-0.4-0.2-0.8-0.3-1.2
		c0-0.1-0.1-0.3-0.1-0.4c-0.1-0.3-0.2-0.6-0.2-0.8c-0.1-0.3-0.2-0.6-0.2-0.9c-0.1-0.2-0.1-0.4,0-0.7c0.1-0.2,0.2-0.5,0.3-0.8
		c0,0,0.1-0.1,0.1-0.1c0,0,0.1,0.1,0.1,0.1c0,0.2,0.1,0.3,0.1,0.5c0.1,0.3,0.1,0.5,0.2,0.8c0.1,0.3,0.2,0.6,0.2,0.9
		c0,0.1,0.1,0.3,0.1,0.4c0.1,0.2,0.4,0.2,0.6,0.1c0.2-0.1,0.3-0.3,0.3-0.6c-0.1-0.2-0.3-0.3-0.5-0.3c-0.1,0-0.2,0-0.2-0.2
		c-0.1-0.2-0.1-0.5-0.2-0.7c-0.1-0.3-0.2-0.6-0.2-0.8C38,26.4,38,26.2,37.9,26c-0.1-0.2-0.1-0.3,0-0.5c0.1-0.3,0.2-0.6,0.3-0.8
		c0.1-0.4,0.2-0.7,0.4-1.1c0.1-0.3,0-0.5-0.1-0.7c-0.2-0.5-0.9-0.6-1.3-0.3c-0.2,0.1-0.3,0.3-0.4,0.5c-0.1,0.4,0,0.9,0.2,1.3
		c0.1,0.2,0.1,0.5,0.2,0.7c0.1,0.2,0.1,0.4,0.1,0.6c0,0.1,0,0.2,0,0.2c0,0.1-0.1,0.2-0.1,0.3c-0.1,0.3-0.2,0.5-0.3,0.8
		c0,0,0,0.1-0.1,0.1c0,0,0,0-0.1,0c0,0,0,0,0-0.1c-0.1-0.2-0.1-0.5-0.2-0.7c-0.1-0.3-0.2-0.5-0.2-0.8c-0.1-0.3-0.2-0.6-0.3-0.9
		c0-0.2-0.1-0.3,0-0.5c0.3-0.5,0.5-1,0.7-1.6c0.1-0.5,0.2-0.9,0.3-1.4c0.1-0.6,0.1-1.2,0.1-1.9c0-0.1,0-0.1-0.1-0.1
		c-0.4,0-0.8,0-1.1,0c-0.3,0-0.5,0.1-0.7,0.2c0,0-0.1,0.1-0.2,0.1c-0.3,0-0.5,0-0.8,0c-0.2,0-0.2,0-0.2,0.2c0,0.1,0,0.1,0.1,0.1
		c0.1,0,0.3,0,0.4,0c0.2,0,0.4,0,0.6,0c0.2,0,0.4,0,0.5-0.2c0.1-0.1,0.3-0.1,0.4-0.1c0.2,0,0.5,0,0.7,0c0.2,0,0.2,0,0.2,0.2
		c0,0.9,0,1.7-0.3,2.6c-0.1,0.3-0.2,0.7-0.4,1c-0.2,0.5-0.5,0.9-0.8,1.4c-0.4,0.5-0.7,1.1-1.1,1.6c-0.3,0.5-0.7,1.1-1,1.6
		c-0.1,0.2-0.2,0.3-0.4,0.3c-0.5,0.1-0.9-0.4-0.7-0.9c0.1-0.3,0.4-0.5,0.7-0.4c0,0,0.1,0,0.1,0c0.1,0,0.1,0,0.2-0.1
		c0-0.1,0.1-0.2,0.1-0.2c0.3-0.4,0.6-0.9,0.9-1.3c0.1-0.1,0.1-0.2,0-0.3c-0.2-0.6-0.3-1.2-0.1-1.8c0.1-0.3,0.2-0.5,0.4-0.8
		c0.1-0.1,0.1-0.1,0.2-0.2c0.1-0.1,0-0.1-0.1-0.2c-0.1-0.1-0.1,0-0.2,0c-0.1,0.1-0.3,0.3-0.4,0.4c-0.1,0.1-0.1,0.1-0.2,0.1
		c-0.8,0-1.6,0-2.4,0c-0.1,0-0.1,0-0.2,0.1c-0.2,0.1-0.3,0.2-0.5,0.3c0,0-0.1,0-0.1,0c0,0,0,0-0.1-0.1c0-0.1,0-0.3-0.1-0.4
		c0-0.1,0-0.1,0.1-0.1c0.1,0,0.2-0.1,0.3-0.1c0.4-0.2,0.9-0.3,1.4-0.2c0.3,0,0.6,0.1,0.9,0.2c0.1,0,0.1,0,0.1-0.1c0-0.1,0-0.3,0-0.4
		c0-0.3-0.2-0.6-0.4-0.8c-0.1-0.1-0.1-0.1,0-0.2c0.2-0.2,0.4-0.4,0.5-0.7c0.2-0.3,0.3-0.7,0.3-1c0-0.1,0-0.1-0.1-0.1
		c-0.1,0-0.2,0-0.3,0c-0.4,0.1-0.7,0.3-1,0.5c-0.1,0.1-0.2,0.1-0.2-0.1c-0.1-0.3-0.3-0.5-0.5-0.7c-0.1,0-0.1-0.1-0.2-0.1
		c0,0.1-0.1,0.1-0.1,0.2c0,0.2-0.1,0.4-0.2,0.6c-0.2,0.3-0.4,0.6-0.6,0.8c0,0-0.1,0.1-0.1,0.1c0,0-0.1-0.1-0.1-0.1
		c0-0.1,0-0.1,0.1-0.2c0,0,0.1-0.1,0.1-0.1c0.1-0.1,0.3-0.2,0.3-0.3c0-0.1,0-0.3,0-0.4c0-0.2-0.2-0.4-0.4-0.5
		c-0.2-0.1-0.3-0.2-0.3-0.4c0-0.1,0-0.2,0-0.3c0-0.1,0-0.1-0.1-0.1c-0.1,0-0.1,0-0.2,0c-0.1,0-0.1-0.1-0.1-0.2
		c0-0.1,0.1-0.1,0.1-0.1c0.1,0,0.1,0,0.2,0c0.2,0,0.5,0,0.7,0c0,0,0.1,0,0.1,0c0,0,0,0.1,0,0.1c0,0,0,0-0.1,0.1
		c-0.1,0.1-0.1,0.1-0.2,0.2c-0.1,0.1-0.1,0.4,0,0.5c0.1,0.1,0.2,0.1,0.4,0c0.1-0.1,0.2-0.2,0.2-0.3c0-0.2,0.1-0.3,0.2-0.4
		c0.2-0.1,0.4-0.2,0.6-0.2c0.2,0,0.4,0,0.7,0c0.3,0,0.6-0.3,0.5-0.7c0-0.2-0.2-0.3-0.4-0.4c-0.2,0-0.3,0.1-0.5,0.2
		c-0.2,0.1-0.3,0.2-0.4,0.4c-0.1,0.1-0.2,0.2-0.4,0.2c-0.3,0-0.6,0-0.8,0c-0.1,0-0.1,0-0.2-0.1c0.1,0,0.1-0.1,0.2-0.1
		c0.3-0.1,0.6-0.1,0.8-0.2c0.4-0.1,0.7-0.4,1-0.8c0.2-0.2,0.2-0.5,0.3-0.8c0.1-0.4,0.1-0.8,0.1-1.2c0-0.1,0-0.1-0.1-0.1
		c-0.2,0-0.5,0-0.7,0c-0.5,0-0.9,0-1.4,0c-0.3,0-0.5,0.1-0.7,0.2c-0.1,0.1-0.1,0.1-0.2,0c0,0-0.1-0.1-0.1-0.1
		c-0.1-0.1-0.3-0.3-0.4-0.4c0,0-0.1-0.1-0.1-0.1c6.3,0,12.6,0,18.9,0c0,0.1,0,0.1,0,0.2c0,6.9,0,13.7,0,20.6
		C48,34.4,48.1,34.9,48,35.4z M35.2,22.8c0,0,0,0.1,0,0.1c0,0.2-0.2,0.3-0.4,0.2c0,0-0.1,0-0.2,0c-0.1,0.1-0.2,0.2,0,0.3
		c0,0,0,0,0,0c0,0,0,0.1,0,0.1c0,0.1-0.1,0.1-0.1,0c0,0-0.1,0-0.1,0c0,0-0.1,0-0.1,0c-0.2,0.1-0.1,0.2,0,0.3c0,0,0.1,0,0.1,0.1
		c0,0.1,0,0.1,0,0.2c-0.1,0.1,0,0.2,0.1,0.2c0.1,0,0.1,0,0.2-0.1c0.2-0.3,0.4-0.7,0.6-1c0.1-0.1,0.2-0.2,0.4-0.3
		c0.3-0.1,0.4-0.2,0.5-0.4c0-0.3-0.3-0.6-0.5-0.6c-0.3,0-0.5,0.3-0.5,0.5C35.2,22.5,35.2,22.7,35.2,22.8z M34.3,19.7
		C34.3,19.7,34.3,19.7,34.3,19.7c-0.1,0-0.1,0-0.1,0c-0.1,0-0.2,0-0.2,0.1c0,0.1,0,0.2,0.2,0.2c0.1,0,0.2,0,0.3,0
		c0.2,0,0.4,0.2,0.3,0.4c0,0.2-0.2,0.3-0.4,0.3c-0.1,0-0.2,0-0.3,0c-0.1,0-0.1,0.1-0.1,0.2c0,0.1,0.1,0.2,0.2,0.2c0.1,0,0.3,0,0.4,0
		c0.3,0,0.5-0.2,0.6-0.5c0.1-0.3,0-0.7-0.3-0.8C34.7,19.7,34.5,19.7,34.3,19.7z M34.3,20.5C34.3,20.5,34.3,20.5,34.3,20.5
		c0.1,0,0.1,0,0.2,0c0.1,0,0.2-0.1,0.2-0.1c0-0.1-0.1-0.2-0.2-0.2c-0.3,0-0.5,0-0.8,0c-0.1,0-0.1,0-0.2,0.1c-0.1,0.1-0.1,0.2,0,0.2
		c0.1,0,0.2,0.1,0.3,0.1C34,20.6,34.1,20.6,34.3,20.5z M35.8,19.9c0-0.1,0-0.2-0.1-0.2c-0.2,0-0.3,0.1-0.3,0.2
		c0,0.1,0.1,0.2,0.2,0.2C35.7,20.1,35.8,20,35.8,19.9z M35.6,21.3c-0.1,0-0.2,0.1-0.2,0.2c0,0.1,0.1,0.2,0.2,0.2
		c0.1,0,0.2-0.1,0.2-0.2C35.8,21.3,35.7,21.3,35.6,21.3z M35.2,21.5c0-0.1-0.1-0.2-0.2-0.2c-0.1,0-0.2,0.1-0.2,0.2
		c0,0.1,0.1,0.2,0.2,0.2C35.1,21.7,35.2,21.6,35.2,21.5z M36.2,21.3c-0.1,0-0.2,0.1-0.2,0.2c0,0.1,0.1,0.2,0.2,0.2
		c0.1,0,0.2-0.1,0.2-0.2C36.4,21.3,36.3,21.3,36.2,21.3z M34.5,21.4c0-0.1-0.1-0.2-0.2-0.2c-0.1,0-0.2,0.1-0.2,0.2
		c0,0.1,0.1,0.2,0.2,0.2C34.4,21.7,34.5,21.5,34.5,21.4z"/>
	<path fill-rule="evenodd" clip-rule="evenodd" d="M24,35.4c0-0.1,0.1-0.1,0.1-0.2c0.3-0.2,0.5-0.5,0.5-0.9c0-0.4-0.4-0.9-0.8-0.9
		c-0.2,0-0.2-0.1-0.3-0.2c-0.1-0.3-0.2-0.6-0.3-0.9c-0.1-0.3-0.2-0.5-0.3-0.8c0-0.1-0.1-0.1-0.1-0.2c0-0.1,0-0.2,0.1-0.2
		c0.2,0,0.3,0,0.5,0c0.2,0,0.2,0,0.2-0.2c-0.1-0.2-0.2-0.4-0.2-0.6c-0.1-0.2-0.2-0.4-0.2-0.6c-0.1-0.3-0.2-0.5-0.3-0.8
		c-0.1-0.3-0.2-0.5-0.3-0.8c0-0.1-0.1-0.2-0.1-0.3c-0.1-0.1-0.1-0.2,0-0.3c0-0.2,0.1-0.3,0.1-0.5c0-0.1,0.1-0.1,0.2,0
		c0.1,0.2,0.2,0.3,0.3,0.5c0.2,0.3,0.3,0.6,0.6,0.8c0.1,0.1,0.2,0.1,0.2,0.1c0.1,0,0.1,0.1,0.1,0.2c0,0.3,0,0.5,0,0.8
		c0,0.5,0.1,0.9,0.2,1.4c0.1,0.4,0.2,0.8,0.4,1.2c0.2,0.4,0.4,0.8,0.6,1.2c0.3,0.4,0.7,0.8,1.1,1.2c0.3,0.3,0.7,0.5,1.1,0.7
		c0.2,0.1,0.5,0.2,0.7,0.3c0,0,0.1,0.1,0.1,0.1C26.7,35.4,25.4,35.4,24,35.4z"/>
	<path fill-rule="evenodd" clip-rule="evenodd" d="M28.7,35.4C28.7,35.4,28.8,35.3,28.7,35.4c0.2-0.2,0.4-0.2,0.5-0.3
		c0.6-0.3,1.1-0.6,1.6-1.1c0.4-0.4,0.8-0.9,1.1-1.4c0.2-0.4,0.4-0.8,0.6-1.2c0.1-0.3,0.2-0.7,0.3-1.1c0.1-0.3,0.1-0.6,0.1-1
		c0-0.3,0-0.7,0-1c0-0.1,0-0.2,0.1-0.2c0.4-0.2,0.6-0.5,0.8-0.8c0.1-0.2,0.3-0.5,0.4-0.7c0.1-0.1,0.1-0.1,0.1,0
		c0.1,0.2,0.1,0.5,0.2,0.7c0,0.1,0,0.1,0,0.2c-0.1,0.3-0.2,0.6-0.3,0.9c-0.1,0.3-0.2,0.5-0.3,0.8c-0.1,0.3-0.2,0.6-0.3,0.8
		c-0.1,0.2-0.1,0.4-0.2,0.6c0,0.1,0,0.2,0.1,0.2c0.2,0,0.3,0,0.5,0c0.2,0,0.2,0,0.1,0.2c-0.1,0.3-0.2,0.6-0.3,0.9
		c-0.1,0.2-0.1,0.3-0.2,0.5c-0.1,0.2-0.2,0.4-0.2,0.6c0,0.1-0.1,0.2-0.2,0.2c-0.3,0.1-0.6,0.3-0.8,0.6c-0.1,0.4-0.1,0.8,0.2,1.1
		c0.1,0.1,0.2,0.2,0.2,0.2c0,0,0,0.1,0.1,0.1C31.5,35.4,30.1,35.4,28.7,35.4z"/>
	<path fill-rule="evenodd" clip-rule="evenodd" d="M19.5,35.4c0-0.1,0-0.1,0.1-0.2c0.4-0.3,0.5-0.6,0.4-1.1c0-0.2-0.1-0.4-0.3-0.5
		c-0.1-0.1-0.1-0.2-0.1-0.3c0.1-0.4,0.2-0.8,0.4-1.3c0.1-0.3,0.2-0.6,0.3-1c0-0.1,0.1-0.1,0.2-0.1c0.2,0,0.4,0,0.6,0
		c0.1,0,0.1,0.1,0.1,0.1c0.1,0.3,0.3,0.7,0.4,1c0.1,0.3,0.2,0.5,0.3,0.8c0.1,0.2,0.1,0.4,0.2,0.6c0.1,0.2,0.1,0.3,0.2,0.5
		c0.1,0.3,0.2,0.5,0.3,0.8c0.1,0.2,0.2,0.3,0.4,0.4c0.1,0,0.1,0.1,0.1,0.2C21.9,35.4,20.7,35.4,19.5,35.4z"/>
	<path fill-rule="evenodd" clip-rule="evenodd" d="M33.8,35.4c0-0.1,0.1-0.1,0.1-0.2c0.2-0.2,0.3-0.4,0.4-0.7
		c0.1-0.3,0.2-0.5,0.3-0.8c0.1-0.2,0.1-0.4,0.2-0.6c0.1-0.2,0.2-0.4,0.2-0.6c0.1-0.2,0.1-0.4,0.2-0.5c0.1-0.3,0.2-0.6,0.4-0.9
		c0,0,0.1-0.1,0.1-0.1c0.2,0,0.4,0,0.6,0c0.1,0,0.1,0,0.1,0.1c0.1,0.4,0.2,0.9,0.4,1.3c0.1,0.3,0.2,0.6,0.3,0.9c0,0.1,0,0.2-0.1,0.3
		c-0.4,0.5-0.4,1.1,0.1,1.6c0.1,0.1,0.1,0.1,0.1,0.2C36.2,35.4,35,35.4,33.8,35.4z"/>
	<path fill-rule="evenodd" clip-rule="evenodd" d="M25.8,23.4c0.4,0,0.8,0,1.3,0c0.3,0,0.3,0,0.4,0.3c0,0.1,0,0.1,0.1,0.2
		c0,0.1,0.1,0.1,0.1,0c0.4-0.2,0.8-0.3,1.3-0.4c0.4-0.1,0.8-0.1,1.1-0.1c0.8,0,1.6,0,2.4,0c0.2,0,0.2,0,0.2,0.2c0,0.8,0,1.6,0,2.4
		c0,0.1,0,0.2-0.1,0.2c-0.2,0.1-0.4,0.2-0.5,0.3c-0.1,0.2-0.2,0.3-0.2,0.5c-0.1,0.5,0.2,0.9,0.6,1.1c0.1,0.1,0.2,0.1,0.2,0.3
		c0,0.5,0,1-0.1,1.5c-0.1,0.4-0.2,0.8-0.3,1.3c-0.1,0.3-0.2,0.7-0.4,1c-0.2,0.3-0.4,0.7-0.7,1c-0.3,0.4-0.7,0.8-1.2,1
		c-0.2,0.2-0.5,0.3-0.8,0.4c-0.2,0.1-0.5,0.2-0.7,0.3c0,0-0.1,0-0.1,0c-0.4-0.1-0.7-0.3-1-0.4c-0.3-0.2-0.6-0.4-0.9-0.6
		c-0.5-0.4-1-1-1.3-1.6c-0.2-0.3-0.4-0.7-0.5-1.1c-0.2-0.7-0.3-1.4-0.4-2.1c0-0.2,0-0.5,0-0.7c0-0.1,0-0.2,0.2-0.2
		c0.3-0.1,0.5-0.3,0.6-0.5c0.1-0.2,0.1-0.4,0.1-0.6c-0.1-0.4-0.3-0.7-0.7-0.8c-0.1,0-0.1-0.1-0.1-0.2c0-0.5,0-0.9,0-1.4
		c0-0.4,0-0.7,0-1.1c0-0.2,0-0.2,0.2-0.2C24.8,23.4,25.3,23.4,25.8,23.4z M25.6,23.7c-0.1,0-0.3,0-0.5,0.1c-0.4,0.3-0.6,0.9-0.3,1.4
		c0.1,0.2,0.2,0.3,0.4,0.4c0.2,0.1,0.4,0.1,0.6,0.1c0.2,0,0.2,0,0.3,0.2c0.3,0.5,0.6,1.1,1,1.6c0.4,0.6,0.7,1.3,1.1,1.9
		c0.1,0.1,0.1,0.2,0,0.3c-0.1,0.1-0.1,0.2-0.2,0.3c-0.2,0.3-0.3,0.6-0.5,0.9c-0.1,0.1-0.2,0.2-0.3,0.1c-0.1-0.1-0.2-0.1-0.3-0.2
		c-0.1,0-0.1,0-0.2,0.1c-0.2,0.3-0.4,0.7-0.6,1c0,0.1,0,0.1,0,0.2c0.1,0.1,0.2,0.1,0.3,0.2c0.1,0.1,0.1,0.1,0.1,0.2
		c-0.1,0.2-0.2,0.3-0.2,0.5c-0.1,0.1,0,0.1,0.1,0.2c0.1,0,0.1,0,0.2,0c0.1-0.2,0.2-0.3,0.3-0.4c0.4-0.7,0.9-1.5,1.3-2.2
		c0.1-0.1,0.1-0.2,0.2-0.3c0.1-0.1,0.1-0.1,0.2,0c0.1,0.1,0.1,0.2,0.2,0.3c0.2,0.4,0.4,0.8,0.7,1.2c0.2,0.4,0.4,0.7,0.6,1.1
		c0.1,0.1,0.2,0.3,0.2,0.4c0.1,0.1,0.1,0.1,0.2,0c0.1,0,0.1-0.1,0.1-0.2c-0.1-0.1-0.1-0.3-0.2-0.5c-0.1-0.1-0.1-0.2,0.1-0.2
		c0.1-0.1,0.2-0.1,0.3-0.2c0.1,0,0.1-0.1,0.1-0.2c-0.2-0.3-0.4-0.7-0.5-1c-0.1-0.2-0.1-0.2-0.3-0.1c-0.1,0.1-0.2,0.1-0.3,0.2
		c-0.1,0-0.1,0-0.2-0.1c0-0.1-0.1-0.1-0.1-0.2c-0.2-0.3-0.4-0.7-0.6-1c-0.1-0.1,0-0.2,0-0.3c0.2-0.3,0.4-0.6,0.6-1
		c0.3-0.4,0.5-0.9,0.8-1.3c0.3-0.4,0.5-0.9,0.8-1.3c0.1-0.1,0.1-0.2,0.3-0.1c0.1,0,0.1,0,0.2,0c0.3,0,0.6-0.1,0.8-0.4
		c0.2-0.4,0.2-0.8,0-1.1c-0.3-0.4-0.8-0.6-1.3-0.3c-0.3,0.1-0.4,0.4-0.5,0.7c-0.1,0.3,0,0.6,0.2,0.9c0.1,0.1,0,0.1,0,0.2
		c-0.2,0.4-0.5,0.8-0.7,1.2c-0.2,0.4-0.4,0.8-0.7,1.2c-0.2,0.4-0.4,0.7-0.6,1.1c0,0.1-0.1,0.1-0.1,0c0,0-0.1-0.1-0.1-0.1
		c-0.3-0.5-0.6-1.1-1-1.6c-0.3-0.5-0.6-1.1-0.9-1.6c-0.1-0.1-0.1-0.3,0-0.4c0,0,0-0.1,0.1-0.1c0.2-0.3,0.1-0.9-0.1-1.1
		C26.3,23.8,26,23.7,25.6,23.7z M28.5,24.2C28.5,24.2,28.5,24.2,28.5,24.2c-0.1,0-0.2,0-0.4,0c-0.2,0-0.5,0.2-0.4,0.5
		c0,0.1,0,0.2,0,0.3c-0.1,0.3-0.2,0.6-0.3,0.8c0,0.1-0.1,0.3,0.1,0.4c0.1,0,0.1,0.1,0.1,0.2c0,0.1,0,0.3,0,0.4
		c0,0.2,0.1,0.4,0.3,0.4c0.3,0.1,0.6,0.1,0.8,0.3c0.1,0.1,0.2,0,0.2-0.1c0-0.1,0-0.1-0.1-0.2c-0.2-0.1-0.4-0.2-0.7-0.3
		c-0.1,0-0.2,0-0.3-0.1c0,0-0.1-0.1-0.1-0.2c0.1,0,0.1-0.1,0.2-0.1c0.1,0,0.1,0,0.1-0.1c0-0.1,0-0.1-0.1-0.1c-0.2,0-0.2-0.1-0.2-0.3
		c0-0.1,0-0.2-0.1-0.2c-0.1,0-0.1-0.1-0.1-0.2c0.1-0.2,0.2-0.3,0.2-0.5c0-0.1,0-0.2,0.1-0.3c0.1-0.1,0.2-0.2,0.3-0.1
		c0.1,0.1,0.2,0.3,0.3,0.5c0,0.2,0,0.2,0.2,0.2c0,0,0.1,0,0.1,0c0.1,0,0.1,0,0.2,0c0.1,0.1,0.2,0.2,0.1,0.3C29,26,29,26,28.8,26
		c0,0-0.1,0-0.1,0c0,0,0,0.1,0,0.1c0,0.1,0.1,0.2,0.2,0.3c0.1,0.1,0.1,0.3,0,0.4c0,0-0.1,0.1-0.1,0.1c0,0,0,0.1,0,0.1
		c0,0,0.1,0.1,0.1,0c0,0,0.1,0,0.1-0.1c0.1-0.2,0.2-0.2,0.4-0.2c0.1,0,0.1,0,0.2,0c0.2-0.1,0.3-0.3,0.4-0.5c0.1-0.5,0-0.9-0.2-1.3
		c-0.1-0.2-0.1-0.3,0-0.5c0-0.1,0.1-0.1,0.1-0.2c0-0.1,0-0.1,0-0.2c-0.1-0.1-0.1,0-0.2,0c0,0,0,0.1-0.1,0.1
		c-0.1,0.1-0.1,0.2-0.2,0.2c0,0-0.1,0-0.1,0c0,0,0-0.1,0-0.1c0,0,0-0.1,0.1-0.1c0.1-0.1,0.1-0.2,0.2-0.2c0-0.1,0-0.1,0-0.2
		c-0.1-0.1-0.1,0-0.2,0c-0.1,0.1-0.2,0.2-0.2,0.3c-0.1,0.1-0.2,0.1-0.3,0.1C28.7,24.2,28.6,24.2,28.5,24.2z M30.5,30.1
		c0-0.1,0-0.2,0-0.2c0-0.1,0.1-0.2,0.1-0.3c0-0.1,0.4-0.1,0.5-0.1c0,0,0,0,0,0c0.1,0.2,0.1,0.3,0.2,0.5c0,0.1,0,0.2,0,0.3
		c0,0,0,0.1,0.1,0.1c0.1,0,0.3,0,0.4,0c0.1,0,0.1-0.1,0.1-0.2c0-0.1,0-0.2,0-0.4c0-0.1,0-0.1,0.1-0.1c0.1,0,0.1,0,0.2,0
		c0.1,0,0.1,0,0.1-0.1c0-0.3-0.1-0.5-0.2-0.8c-0.1-0.2-0.3-0.4-0.6-0.5c-0.1,0-0.2-0.1-0.3-0.2c0,0-0.1-0.1-0.2-0.1
		c-0.1,0-0.2,0-0.3,0c-0.1,0-0.1,0-0.2,0.1c0,0-0.1,0.1-0.1,0.1c-0.1,0.1-0.2,0.1-0.3,0.2c-0.2,0.1-0.4,0.3-0.7,0.5
		c-0.2,0.1-0.3,0.3-0.4,0.5c0,0.1,0,0.1,0.1,0.1c0.1,0,0.1,0,0.2,0.1c0,0.1,0.1,0.1,0.1,0.2c0,0.1,0.1,0.3,0.3,0.2
		c0.2,0,0.2,0,0.2,0.2c0,0.2,0.1,0.2,0.2,0.3c0,0,0.1,0,0.1,0C30.4,30.5,30.5,30.4,30.5,30.1C30.5,30.2,30.5,30.2,30.5,30.1z
		 M28.3,32.9c0,0.2,0,0.3,0,0.5c0,0,0,0.1-0.1,0.1c0,0-0.1,0-0.1,0c-0.1-0.1-0.1-0.1-0.2-0.2c-0.1-0.1-0.1-0.2,0.1-0.3
		c0.1,0,0.1-0.1,0.1-0.2c0-0.1-0.1-0.1-0.1-0.1c-0.2,0-0.4,0-0.5,0c0,0-0.1,0-0.1,0.1c0,0.1,0,0.2,0.1,0.3c0,0,0.1,0.1,0.1,0.1
		c0,0-0.1,0.1-0.1,0.1c-0.1,0-0.1,0.1-0.1,0.2c0,0.1,0.1,0.1,0.2,0.1c0.2-0.1,0.2,0.1,0.4,0.2c0.1,0.1,0.1,0.1,0,0.2
		c0,0.1,0,0.2,0.1,0.2c0.1,0,0.1,0,0.2-0.1c0.1-0.1,0.1-0.2,0.2-0.2c0.1,0,0.2,0,0.3,0.2c0.1,0.1,0.2,0.1,0.2,0c0-0.1,0-0.1,0.1-0.2
		c0,0,0-0.1,0-0.1c0-0.1,0.3-0.3,0.4-0.2c0.1,0,0.2-0.1,0.2-0.2c0-0.1,0-0.1-0.1-0.2c0,0-0.1-0.1-0.1-0.1c0,0,0.1-0.1,0.1-0.1
		c0.1,0,0.1-0.1,0.1-0.2c0-0.1,0-0.1-0.1-0.1c-0.2,0-0.3,0-0.5,0c-0.1,0-0.1,0-0.1,0.1c0,0.1,0,0.2,0.1,0.2c0.1,0.1,0.1,0.1,0.1,0.2
		c0,0.1-0.1,0.1-0.1,0.2c0,0-0.1,0.1-0.1,0.1c0,0-0.1-0.1-0.1-0.1c0-0.4,0-0.7,0-1.1c0-0.1,0-0.2,0.1-0.2c0.1,0,0.1-0.1,0.2-0.1
		c0.1,0,0.1-0.1,0-0.2c0-0.1-0.1-0.2-0.2-0.1c-0.1,0-0.1,0-0.2-0.1c0,0,0-0.1-0.1-0.1c-0.1,0-0.1,0-0.2,0c-0.1,0.1-0.1,0.2-0.1,0.3
		c0,0.2,0,0.2-0.2,0.3C28.1,32,28,32,28,32.1c-0.1,0-0.1,0.2,0,0.3c0,0.1,0.1,0,0.2,0c0.1-0.1,0.2,0,0.2,0.1
		C28.3,32.6,28.3,32.8,28.3,32.9z M25.3,29.7C25.3,29.7,25.3,29.7,25.3,29.7c0,0.2,0,0.3,0,0.5c0,0,0,0,0,0.1c0,0.1,0,0.1,0.1,0.2
		c0.2,0,0.3,0.1,0.5,0.1c0.1,0,0.3,0.1,0.4-0.1c0,0,0.1-0.1,0.1-0.1c0.1-0.1,0.3-0.1,0.4,0c0.1,0,0.1,0.1,0.2,0.1
		c0.1,0,0.1,0,0.2-0.1c0-0.1-0.1-0.1-0.1-0.2c0,0,0,0-0.1,0c-0.1-0.1-0.3-0.1-0.4-0.2c-0.1,0-0.2,0-0.3,0c0,0.1-0.1,0.1-0.1,0.2
		c-0.1,0-0.1,0.1-0.2,0.1c-0.1,0-0.2-0.1-0.4-0.1c-0.1,0-0.1-0.1,0-0.1c0.1-0.1,0.1-0.1,0-0.2c-0.1-0.1-0.1-0.2-0.1-0.3
		c0-0.1,0-0.2,0-0.4c0-0.1,0-0.2,0-0.3c0-0.1-0.1-0.1-0.1-0.1c0,0-0.1-0.1-0.1-0.1c0.1,0,0.1-0.1,0.2-0.1c0.4-0.2,0.9-0.1,1.2,0.1
		c0.1,0.1,0.1,0.1,0,0.2c-0.1,0-0.1,0.1,0,0.2c0,0,0.1,0.1,0.1,0.1c0.2,0,0.4-0.1,0.6-0.1c0.1,0,0.1-0.1,0.1-0.1
		c-0.1-0.1-0.2-0.2-0.3-0.3c-0.5-0.4-1.1-0.5-1.8-0.3c-0.2,0.1-0.4,0.2-0.6,0.5c-0.1,0.1,0,0.1,0.1,0.2c0.1,0,0.2,0,0.3,0.1
		c0.1,0,0.1,0.1,0.1,0.2C25.3,29.3,25.3,29.5,25.3,29.7z M28.7,26.5c0,0-0.1-0.1-0.1-0.1c-0.1,0-0.1,0-0.1,0.1c0,0.1,0,0.2-0.1,0.2
		c0,0-0.1,0.1,0,0.1c0,0,0,0.1,0.1,0.1c0,0,0.1,0,0.1,0C28.7,26.8,28.7,26.7,28.7,26.5z M28.5,26.2c-0.1-0.1-0.2-0.1-0.3-0.1
		c0,0-0.1,0.1-0.1,0.1c0,0,0,0.1,0.1,0.1C28.3,26.3,28.4,26.3,28.5,26.2z M28.1,25.9c0.1-0.1,0.1-0.1,0.1-0.2c0,0-0.1-0.1-0.1-0.1
		c-0.1,0-0.1,0-0.1,0.1C28,25.8,28,25.8,28.1,25.9z M26.3,29.1c-0.1,0-0.2,0.1-0.2,0.2c0,0,0,0.1,0.1,0.1
		C26.3,29.3,26.4,29.2,26.3,29.1C26.3,29.1,26.3,29.1,26.3,29.1z M26,30.1c0.1-0.1,0.1-0.1,0.1-0.2c0-0.1-0.1-0.1-0.1-0.1
		c-0.1,0-0.1,0-0.1,0.1C25.9,30.1,25.9,30.1,26,30.1z"/>
	<path fill-rule="evenodd" clip-rule="evenodd" d="M36.3,30.6c-0.1,0-0.1,0-0.2,0c-0.1,0-0.2-0.1-0.3-0.2c-0.1-0.2-0.1-0.4-0.2-0.7
		c-0.1-0.3-0.1-0.5-0.2-0.8c-0.1-0.3-0.2-0.6-0.2-0.9c-0.1-0.3-0.2-0.6-0.2-0.8c0-0.1-0.1-0.3-0.1-0.4c-0.1-0.2-0.1-0.4-0.1-0.6
		c0,0,0-0.1,0-0.1c0.2-0.3,0.3-0.6,0.5-0.9c0.1-0.2,0.3-0.4,0.4-0.6c0,0,0.1-0.1,0.1-0.1c0,0,0.1,0.1,0.1,0.1
		c0.1,0.2,0.1,0.3,0.1,0.5c0.1,0.4,0.2,0.8,0.3,1.1c0.1,0.4,0.2,0.7,0.3,1.1c0.1,0.3,0.1,0.5,0.2,0.8c0.1,0.3,0.2,0.5,0.2,0.8
		c0.1,0.3,0.1,0.5,0.2,0.8c0.1,0.3,0.2,0.5,0.2,0.8c0.1,0.3,0.1,0.5,0.2,0.8c0.1,0.3,0.2,0.6,0.2,0.8c0.1,0.3,0.1,0.5,0.2,0.8
		c0.1,0.3,0.2,0.6,0.2,0.8c0.1,0.2,0.1,0.5,0,0.7c-0.1,0.2-0.2,0.3-0.3,0.4c-0.3,0.2-0.7,0-0.9-0.3c-0.1-0.3,0-0.6,0.2-0.8
		c0.2-0.1,0.2-0.1,0.1-0.3c-0.1-0.3-0.2-0.6-0.2-0.9c-0.1-0.3-0.1-0.5-0.2-0.8c-0.1-0.3-0.2-0.6-0.2-0.8c0,0,0-0.1,0-0.1
		c0-0.1-0.1-0.2-0.2-0.2C36.6,30.7,36.4,30.6,36.3,30.6C36.3,30.6,36.3,30.6,36.3,30.6z"/>
	<path fill-rule="evenodd" clip-rule="evenodd" d="M20.6,30.6c-0.1,0-0.1,0-0.2,0c-0.2,0-0.3,0.1-0.3,0.2c-0.1,0.2-0.1,0.4-0.2,0.6
		c-0.1,0.3-0.2,0.6-0.2,0.8c0,0.1-0.1,0.3-0.1,0.4c-0.1,0.3-0.2,0.6-0.3,1c0,0.1,0,0.1,0.1,0.2c0.2,0.2,0.4,0.3,0.3,0.6
		c0,0.4-0.5,0.7-0.8,0.6c-0.3-0.1-0.5-0.4-0.4-0.7c0.1-0.3,0.1-0.6,0.2-1c0.1-0.3,0.1-0.6,0.2-0.8c0.1-0.3,0.2-0.5,0.2-0.8
		c0.1-0.3,0.1-0.5,0.2-0.8c0.1-0.3,0.2-0.6,0.2-0.9c0.1-0.3,0.1-0.5,0.2-0.8c0.1-0.3,0.2-0.6,0.2-0.9c0.1-0.3,0.1-0.5,0.2-0.8
		c0.1-0.3,0.2-0.6,0.2-0.9c0.1-0.3,0.1-0.5,0.2-0.8c0.1-0.3,0.2-0.6,0.2-0.9c0-0.1,0.1-0.3,0.1-0.4c0,0,0-0.1,0.1-0.1
		c0,0,0.1,0.1,0.1,0.1c0.2,0.3,0.3,0.5,0.5,0.8c0.1,0.2,0.3,0.4,0.4,0.6c0.1,0.1,0.1,0.2,0,0.3c-0.1,0.3-0.2,0.6-0.3,0.9
		c-0.1,0.3-0.2,0.6-0.2,0.8c-0.1,0.3-0.1,0.6-0.2,0.8c-0.1,0.3-0.2,0.5-0.2,0.8c-0.1,0.2-0.1,0.4-0.2,0.6
		C20.9,30.6,20.9,30.6,20.6,30.6z"/>
	<path fill-rule="evenodd" clip-rule="evenodd" d="M29.2,20.4c0.2,0,0.5,0,0.7,0c0.2,0,0.2,0,0.2,0.2c0,0.6,0.1,1.2,0.1,1.8
		c0,0.1,0,0.3,0,0.4c0,0.1,0,0.2-0.1,0.2c-0.2,0-0.3,0-0.5,0.1c-0.4,0.1-0.8,0.1-1.2,0.2c-0.2,0-0.4,0.1-0.6,0.2
		c-0.1,0-0.1,0-0.2-0.1c-0.2-0.6-0.4-1.2-0.8-1.7c-0.1-0.1-0.2-0.3-0.3-0.4c0,0-0.1-0.1-0.1-0.1c0-0.1,0-0.1,0.1-0.1
		c0.2,0,0.4,0,0.6-0.1c0.2-0.1,0.4-0.1,0.6-0.2c0.2-0.1,0.3-0.2,0.5-0.3c0,0,0.1,0,0.2,0C28.7,20.4,28.9,20.4,29.2,20.4z"/>
	<path fill-rule="evenodd" clip-rule="evenodd" d="M34.3,30.7c-0.1,0-0.2,0-0.3,0c-0.1,0-0.1-0.1-0.1-0.2c0.2-0.5,0.4-0.9,0.6-1.4
		c0.1-0.2,0.2-0.5,0.3-0.7c0,0,0.1-0.1,0.1-0.1c0,0,0.1,0.1,0.1,0.1c0.1,0.4,0.2,0.9,0.4,1.3c0.1,0.2,0.2,0.5,0.2,0.7
		c0,0.1,0,0.2-0.1,0.4c-0.1,0.2-0.2,0.5-0.2,0.7C35.1,31.6,35,31.8,35,32c-0.1,0.2-0.1,0.4-0.2,0.6c-0.1,0.3-0.2,0.5-0.3,0.8
		c-0.1,0.3-0.2,0.5-0.3,0.8c-0.1,0.2-0.1,0.4-0.2,0.5c-0.1,0.2-0.3,0.3-0.5,0.3c-0.5,0-0.7-0.5-0.6-0.9c0.1-0.3,0.4-0.4,0.7-0.4
		c0.1,0,0.2,0,0.2-0.2c0.1-0.3,0.3-0.7,0.4-1c0.1-0.3,0.2-0.6,0.3-0.8c0.1-0.3,0.2-0.6,0.3-0.9c0-0.1,0-0.1-0.1-0.2
		C34.5,30.6,34.4,30.7,34.3,30.7z"/>
	<path fill-rule="evenodd" clip-rule="evenodd" d="M23.5,35c-0.3,0-0.5-0.1-0.6-0.4c-0.1-0.2-0.2-0.5-0.3-0.7
		c-0.1-0.3-0.2-0.5-0.3-0.8c-0.1-0.2-0.2-0.4-0.2-0.6c-0.1-0.2-0.2-0.4-0.2-0.6c-0.1-0.2-0.1-0.4-0.2-0.6c-0.1-0.2-0.2-0.4-0.2-0.6
		c0,0,0-0.1,0-0.1c-0.1-0.1-0.1-0.2,0-0.4c0.1-0.3,0.2-0.6,0.3-0.9c0.1-0.3,0.2-0.5,0.2-0.8c0-0.1,0-0.1,0-0.2c0,0,0-0.1,0.1-0.1
		c0,0,0.1,0,0.1,0.1c0.1,0.2,0.1,0.3,0.2,0.5c0.1,0.3,0.2,0.5,0.3,0.8c0.1,0.2,0.2,0.5,0.3,0.7c0,0.1,0,0.2-0.1,0.2
		c-0.2,0-0.3,0-0.5,0c-0.1,0-0.2,0-0.1,0.2c0,0.1,0.1,0.3,0.1,0.4c0.1,0.3,0.2,0.6,0.3,0.9c0.1,0.3,0.2,0.5,0.3,0.8
		c0.1,0.2,0.2,0.5,0.3,0.7c0,0,0.1,0.1,0.1,0.1c0.1,0,0.2,0,0.4,0.1c0.2,0.1,0.4,0.3,0.4,0.6C24.2,34.7,23.8,35,23.5,35z"/>
	<path fill-rule="evenodd" clip-rule="evenodd" d="M30.4,20.7c0,0,0-0.1,0-0.1c0-0.1,0-0.2,0.1-0.2c0.4-0.3,0.7-0.6,1-1.1
		c0-0.1,0.1-0.1,0.1-0.2c0.1-0.1,0.1-0.1,0.1,0c0.1,0.2,0.1,0.4,0.2,0.6c0,0.1,0.1,0.1,0.2,0.1c0.3-0.2,0.6-0.4,1-0.5
		c0.1,0,0.1-0.1,0.2-0.1c0.1,0,0.1,0,0.1,0.1c0,0.1-0.1,0.2-0.1,0.3c-0.2,0.3-0.4,0.6-0.7,0.8c-0.2,0.1-0.1,0.1,0,0.3
		c0.1,0.2,0.2,0.4,0.3,0.6c0,0,0,0.1,0,0.2c-0.1,0-0.1,0-0.2,0c-0.5-0.1-0.9-0.1-1.3,0.1c-0.2,0.1-0.5,0.1-0.7,0.2
		c-0.1,0-0.1,0-0.2-0.1C30.5,21.3,30.5,21,30.4,20.7C30.4,20.7,30.4,20.7,30.4,20.7z M32.8,19.7C32.7,19.7,32.7,19.7,32.8,19.7
		c-0.3,0.1-0.5,0.2-0.7,0.4c0,0,0,0.1,0,0.1c0,0,0.1,0,0.1,0c0.1-0.1,0.3-0.2,0.4-0.3C32.7,19.8,32.7,19.8,32.8,19.7z M31.9,21
		C31.9,21,31.9,21,31.9,21C31.8,21,31.9,21,31.9,21c0.1,0.2,0.3,0.2,0.4,0.2c0,0,0,0,0.1,0c0,0,0,0,0-0.1c-0.1,0-0.1-0.1-0.2-0.1
		C32.1,21,32,21,31.9,21z M31.3,20.2c0.1-0.1,0.3-0.4,0.3-0.5C31.4,19.8,31.2,20,31.3,20.2z"/>
	<path fill-rule="evenodd" clip-rule="evenodd" d="M26.2,21.6c-0.1,0-0.1,0-0.2,0c-0.5-0.1-1-0.1-1.4-0.1c-0.2,0-0.3,0.1-0.5,0.1
		c-0.1,0-0.2,0-0.1-0.1c0.1-0.1,0.1-0.3,0.2-0.4c0.1-0.1,0.3-0.3,0.5-0.4c0.1-0.1,0.1-0.1,0-0.2c-0.1-0.2-0.3-0.4-0.4-0.7
		c-0.1-0.2-0.2-0.5-0.3-0.7c0,0,0-0.1,0-0.1c0,0,0.1,0,0.1,0c0.3,0.1,0.5,0.4,0.8,0.6c0.1,0.1,0.1,0.2,0.2,0.2
		c0.1,0.1,0.1,0.1,0.1,0c0.1-0.1,0.1-0.3,0.2-0.4c0.1-0.1,0.1-0.3,0.2-0.4c0,0,0.1-0.1,0.1,0c0,0,0.1,0.1,0.1,0.1
		c0,0.1,0.1,0.2,0.1,0.3c0.1,0.3,0.2,0.5,0.4,0.8c0.1,0.1,0.1,0.2-0.1,0.2c-0.2,0.1-0.3,0.2-0.5,0.3c-0.1,0-0.1,0.1-0.2,0.1
		c-0.1,0.1-0.1,0.1,0,0.2c0.2,0.2,0.5,0.4,0.7,0.5C26.2,21.4,26.2,21.5,26.2,21.6C26.2,21.5,26.2,21.5,26.2,21.6z M25,20.3
		c-0.1-0.3-0.3-0.5-0.5-0.7C24.4,19.8,24.8,20.3,25,20.3z M24.4,21.2c0.1,0.1,0.5-0.1,0.5-0.2C24.8,20.9,24.5,21,24.4,21.2z
		 M25.6,19.6c-0.1,0.1-0.1,0.5,0,0.5C25.7,20,25.7,19.7,25.6,19.6z"/>
	<path fill-rule="evenodd" clip-rule="evenodd" d="M28.7,19.6c0.4,0,0.7,0,1.1,0c0.1,0,0.3,0.2,0.2,0.3c0,0-0.1,0.1-0.1,0.1
		c-0.5,0-1.1,0-1.6,0c-0.1,0-0.2,0-0.2,0.1c-0.4,0.3-0.9,0.5-1.4,0.5c0,0-0.1,0-0.1,0c0,0-0.1,0-0.1,0c0,0,0-0.1,0.1-0.1
		c0.1-0.1,0.2-0.2,0.3-0.2c0.2-0.2,0.4-0.4,0.5-0.5c0.1-0.1,0.2-0.1,0.3-0.1C28,19.6,28.4,19.6,28.7,19.6
		C28.7,19.6,28.7,19.6,28.7,19.6z"/>
	<path fill-rule="evenodd" clip-rule="evenodd" d="M23.9,24.9c0,0.3,0,0.6,0,1c0,0,0,0.1,0,0.1c0,0,0,0.1-0.1,0.1c0,0-0.1,0-0.1-0.1
		c-0.3-0.4-0.5-0.8-0.8-1.2c0,0,0-0.1,0-0.2c0-0.2,0.1-0.4,0.2-0.6c0,0,0-0.1,0-0.1c0-0.1,0.1-0.2,0.2-0.2c0.1,0,0.2,0,0.3,0
		c0.1,0,0.2,0.1,0.2,0.2C23.8,24.2,23.8,24.6,23.9,24.9C23.8,24.9,23.8,24.9,23.9,24.9z"/>
	<path fill-rule="evenodd" clip-rule="evenodd" d="M38.3,23.3c0,0.1,0,0.2,0,0.2c-0.1,0.4-0.3,0.8-0.4,1.2c0,0,0,0.1,0,0.1
		c0,0-0.1,0-0.1,0.1c0,0,0-0.1-0.1-0.1c0-0.2-0.1-0.3-0.1-0.5c-0.1-0.3-0.2-0.7-0.2-1c0-0.2,0.1-0.3,0.3-0.5c0.2-0.1,0.3-0.1,0.5,0
		C38.2,23,38.3,23.1,38.3,23.3z"/>
	<path fill-rule="evenodd" clip-rule="evenodd" d="M33,24.9c0-0.3,0-0.6,0-0.9c0-0.2,0-0.2,0.2-0.2c0.1,0,0.3,0,0.4,0
		c0.1,0,0.1,0.1,0.1,0.1c0,0.2,0.1,0.5,0.2,0.7c0,0.2,0,0.3-0.1,0.4c-0.2,0.3-0.4,0.7-0.6,1c0,0,0,0-0.1,0c0,0-0.1,0-0.1-0.1
		c0,0,0-0.1,0-0.1C33,25.5,33,25.2,33,24.9C33,24.9,33,24.9,33,24.9z"/>
	<path fill-rule="evenodd" clip-rule="evenodd" d="M19.6,23.4c0,0.3-0.1,0.6-0.2,0.9c-0.1,0.2-0.1,0.3-0.1,0.5c0,0-0.1,0.1-0.1,0.1
		c-0.1,0-0.1-0.1-0.1-0.1c-0.1-0.2-0.1-0.4-0.2-0.6c-0.1-0.2-0.2-0.5-0.3-0.7c-0.1-0.2,0-0.4,0.2-0.5c0.1-0.1,0.4-0.2,0.5-0.1
		C19.5,22.9,19.6,23.1,19.6,23.4z"/>
	<path fill-rule="evenodd" clip-rule="evenodd" d="M32.7,22.7c0.3,0,0.7,0,1,0c0.1,0,0.2,0,0.1,0.2c0,0.1,0,0.3-0.1,0.4
		c0,0-0.1,0.1-0.1,0.1c-0.1,0-0.3,0-0.4,0c-0.1,0-0.2,0-0.2-0.1c0-0.1,0-0.1-0.2-0.2c-0.6,0-1.1,0-1.7-0.1c0,0-0.1,0-0.1-0.1
		c0,0,0-0.1,0.1-0.1c0.2-0.1,0.4-0.1,0.6-0.2C32,22.7,32.4,22.7,32.7,22.7C32.7,22.7,32.7,22.7,32.7,22.7z"/>
	<path fill-rule="evenodd" clip-rule="evenodd" d="M24.2,22.7c0.4,0,0.8,0,1.3,0.1c0.1,0,0.2,0.1,0.2,0.1c0,0,0,0.1,0,0.1
		c0,0-0.1,0-0.1,0.1c0,0-0.1,0-0.1,0c-0.5,0-1.1,0-1.6,0c-0.1,0-0.2,0-0.2,0.2c0,0.2,0,0.2-0.2,0.2c-0.1,0-0.2,0-0.3,0
		c-0.1,0-0.1,0-0.2-0.1c0-0.1-0.1-0.3-0.1-0.4c0-0.1,0-0.1,0.1-0.1C23.5,22.7,23.8,22.7,24.2,22.7z"/>
	<path fill-rule="evenodd" clip-rule="evenodd" d="M28.1,18.6c0.2,0,0.3,0.1,0.4,0.2c0,0.1,0.1,0.2,0.2,0.3c0.1,0.1,0,0.2-0.1,0.2
		c-0.2,0-0.3,0.1-0.4-0.1c-0.1-0.1-0.2-0.3-0.3-0.5c0-0.1,0-0.1,0.1-0.1C28,18.6,28,18.6,28.1,18.6z"/>
	<path fill-rule="evenodd" clip-rule="evenodd" d="M29.4,18.6c0,0,0.1,0,0.1,0c0.1,0,0.1,0,0.2,0.1c0.1,0.1,0.2,0.2,0.2,0.4
		c0.1,0.1,0,0.2-0.1,0.2c-0.3,0-0.4-0.1-0.5-0.3c-0.1-0.1-0.1-0.2-0.2-0.3c0-0.1,0-0.1,0.1-0.1C29.2,18.6,29.3,18.6,29.4,18.6
		C29.4,18.6,29.4,18.6,29.4,18.6z"/>
	<path fill-rule="evenodd" clip-rule="evenodd" d="M27.2,19.2c-0.2,0-0.3,0-0.4-0.2c-0.1-0.2,0-0.4,0.2-0.5c0.1,0,0.2,0,0.2,0
		c0.1,0.1,0.2,0.3,0.3,0.5c0,0,0,0.1-0.1,0.1C27.3,19.2,27.2,19.2,27.2,19.2z"/>
	<path fill-rule="evenodd" clip-rule="evenodd" d="M27.7,18c0,0.1-0.1,0.3-0.2,0.3c-0.1,0-0.3-0.1-0.3-0.3c0-0.1,0.1-0.3,0.2-0.3
		C27.6,17.7,27.7,17.9,27.7,18z"/>
	<path fill-rule="evenodd" clip-rule="evenodd" d="M30,18c0,0.1-0.1,0.2-0.2,0.2c-0.1,0-0.3-0.1-0.3-0.3c0-0.1,0.1-0.2,0.3-0.2
		C29.9,17.8,30,17.9,30,18z"/>
	<path fill-rule="evenodd" clip-rule="evenodd" d="M28.8,18c0,0.1-0.1,0.2-0.2,0.2c-0.1,0-0.3-0.1-0.3-0.2c0-0.1,0.1-0.3,0.2-0.3
		C28.7,17.8,28.8,17.9,28.8,18z"/>
	<path fill-rule="evenodd" clip-rule="evenodd" d="M32.5,16.8c-0.1,0-0.1,0-0.1,0c-0.1,0-0.1-0.1-0.1-0.1c0.1-0.1,0.2-0.1,0.3-0.2
		c0.1,0,0.1,0,0.2,0.1c0,0.1,0,0.1-0.1,0.2C32.6,16.8,32.6,16.8,32.5,16.8z"/>
	<path fill-rule="evenodd" clip-rule="evenodd" d="M26.6,15.9c-0.1,0-0.2-0.1-0.2-0.1c0-0.1,0.1-0.1,0.2-0.1c0.1,0,0.2,0.1,0.2,0.1
		C26.7,15.9,26.7,15.9,26.6,15.9z"/>
	<path fill-rule="evenodd" clip-rule="evenodd" d="M25.9,15.9c-0.1,0-0.2,0-0.2-0.1c0-0.1,0.1-0.1,0.1-0.1c0.1,0,0.2,0.1,0.2,0.2
		C26.1,15.9,26,15.9,25.9,15.9z"/>
	<path fill-rule="evenodd" clip-rule="evenodd" d="M25.3,16.5c-0.1,0-0.2,0-0.2-0.1c0-0.1,0-0.1,0.1-0.1c0.1,0,0.2,0,0.2,0.1
		C25.5,16.4,25.4,16.5,25.3,16.5z"/>
	<path fill-rule="evenodd" clip-rule="evenodd" d="M26,16.2c0.1,0,0.1,0,0.1,0.1c0,0.1-0.1,0.1-0.2,0.1c-0.1,0-0.2,0-0.2-0.1
		C25.8,16.3,25.8,16.2,26,16.2z"/>
	<path fill-rule="evenodd" clip-rule="evenodd" d="M25.3,15.7c0.1,0,0.2,0,0.2,0.1c0,0.1-0.1,0.1-0.2,0.1c-0.1,0-0.1,0-0.1-0.1
		C25.2,15.7,25.2,15.7,25.3,15.7z"/>
	<path fill-rule="evenodd" clip-rule="evenodd" d="M26.6,16.5c-0.1,0-0.2,0-0.2-0.1c0-0.1,0.1-0.1,0.2-0.1c0.1,0,0.2,0,0.2,0.1
		C26.7,16.4,26.6,16.5,26.6,16.5z"/>
	<path fill-rule="evenodd" clip-rule="evenodd" d="M30.6,18.8C30.5,18.9,30.5,18.9,30.6,18.8c-0.1,0-0.2,0-0.2-0.1
		c0,0,0.1-0.1,0.1-0.1C30.5,18.7,30.5,18.8,30.6,18.8z"/>
	<path fill-rule="evenodd" clip-rule="evenodd" d="M21.2,22.6c-0.1,0-0.2-0.1-0.2-0.2c0-0.1,0.1-0.2,0.2-0.2c0.1,0,0.2,0.1,0.2,0.2
		C21.4,22.5,21.3,22.6,21.2,22.6z"/>
	<path fill-rule="evenodd" clip-rule="evenodd" d="M35.7,22.6c-0.1,0-0.2-0.1-0.2-0.2c0-0.1,0.1-0.2,0.2-0.2c0.1,0,0.2,0.1,0.2,0.2
		C35.8,22.6,35.8,22.6,35.7,22.6z"/>
	<path fill-rule="evenodd" clip-rule="evenodd" d="M25.1,24.7c0-0.4,0.3-0.7,0.6-0.6c0.4,0,0.7,0.2,0.7,0.7c0,0.4-0.3,0.6-0.7,0.6
		C25.3,25.3,25.1,25,25.1,24.7z"/>
	<path fill-rule="evenodd" clip-rule="evenodd" d="M30.6,24.7c0-0.4,0.3-0.6,0.6-0.6c0.4,0,0.6,0.3,0.6,0.6c0,0.4-0.3,0.7-0.6,0.7
		C31,25.4,30.6,25.1,30.6,24.7z"/>
	<path fill-rule="evenodd" clip-rule="evenodd" d="M30.3,31.8c-0.1,0-0.1,0.1-0.2,0.1c0,0-0.1,0-0.1,0c-0.1-0.1-0.2-0.3-0.3-0.4
		c-0.1-0.1,0-0.2,0.1-0.3c0,0,0.1,0,0.1,0c0.1,0.1,0.2,0.3,0.3,0.4C30.3,31.7,30.3,31.8,30.3,31.8z"/>
	<path fill-rule="evenodd" clip-rule="evenodd" d="M26.6,31.7c0,0,0-0.1,0.1-0.1c0.1-0.1,0.1-0.2,0.2-0.4c0.1-0.1,0.1-0.1,0.2,0
		c0.1,0,0.1,0.1,0.1,0.2c-0.1,0.1-0.2,0.3-0.2,0.4c0,0-0.1,0.1-0.1,0.1C26.7,31.9,26.6,31.9,26.6,31.7z"/>
	<path fill-rule="evenodd" clip-rule="evenodd" d="M28.9,25.4C28.9,25.3,28.8,25.3,28.9,25.4c-0.1-0.1-0.1-0.1,0-0.1
		c0.1-0.1,0.2-0.2,0.3-0.3c0.1-0.1,0.1-0.1,0.2,0c0.1,0.1,0,0.1-0.1,0.2c-0.1,0.1-0.2,0.1-0.3,0.2C29,25.3,28.9,25.3,28.9,25.4z"/>
	<path fill-rule="evenodd" clip-rule="evenodd" d="M28.5,24.9c0-0.1,0.2-0.4,0.3-0.4c0.1,0,0.1,0,0.2,0.1c0,0,0,0.1,0,0.1
		c-0.1,0.1-0.2,0.1-0.2,0.2C28.6,25,28.6,25,28.5,24.9C28.5,24.9,28.5,24.9,28.5,24.9z"/>
	<path fill-rule="evenodd" clip-rule="evenodd" d="M29.6,25.6c0,0.1-0.1,0.2-0.2,0.2c-0.1,0-0.2-0.1-0.2-0.2c0-0.1,0.1-0.2,0.2-0.2
		C29.6,25.4,29.6,25.5,29.6,25.6z"/>
	<path fill-rule="evenodd" clip-rule="evenodd" d="M29.6,26.1c0,0.1-0.1,0.3-0.2,0.3c0,0-0.1,0-0.1,0c0,0,0-0.1,0-0.1
		c0-0.1,0.1-0.2,0.2-0.2C29.4,26.1,29.5,26,29.6,26.1C29.6,26.1,29.6,26.1,29.6,26.1z"/>
	<path fill-rule="evenodd" clip-rule="evenodd" d="M28.2,24.7c-0.1,0-0.1-0.1-0.1-0.1c0,0,0-0.1,0.1-0.1c0,0,0,0,0,0
		c0.1,0,0.1,0,0.2,0c0,0,0,0.1,0,0.1C28.3,24.6,28.2,24.6,28.2,24.7z"/>
	<path fill-rule="evenodd" clip-rule="evenodd" d="M29.7,29c0.1,0,0.2,0,0.2,0.2c0,0,0,0.1,0.1,0.1c0,0,0.1,0,0.2,0
		c0.1-0.1,0.1-0.2,0.2-0.2c0-0.1,0-0.1,0-0.1c-0.1-0.1-0.1-0.2,0-0.3c0.1,0,0.1-0.1,0.2-0.1c0.1,0,0.1,0,0.1,0.1
		c0,0.1,0.1,0.2,0.1,0.3c0,0.1,0,0.2-0.1,0.2c-0.2,0.2-0.3,0.4-0.4,0.6c0,0.1,0,0.2,0,0.3c0,0-0.1,0.1-0.1,0.1c0,0-0.1-0.1-0.1-0.1
		c0-0.1,0-0.2,0.1-0.3c0-0.1,0-0.1-0.1-0.2c0,0-0.1-0.1-0.1,0c0,0-0.1,0.1-0.1,0.1c0,0.1,0,0.1-0.1,0.2c-0.1,0.1-0.2,0.1-0.2,0
		c-0.1-0.1-0.1-0.3-0.2-0.4c0,0,0-0.1,0-0.1C29.6,29.1,29.7,29,29.7,29z"/>
	<path fill-rule="evenodd" clip-rule="evenodd" d="M31.7,29.9c0,0.1,0,0.1,0,0.2c0,0,0,0.1-0.1,0.1c0,0-0.1,0-0.1-0.1
		c0,0,0-0.1,0-0.1c0-0.3-0.1-0.6-0.4-0.9c0,0-0.1-0.1-0.1-0.2c0-0.1,0-0.2,0-0.3c0-0.1,0.1-0.1,0.2-0.1c0.3,0.1,0.5,0.3,0.6,0.6
		c0,0,0.1,0.1,0.1,0.1c0,0,0,0.1,0,0.1c0,0-0.1,0-0.1,0c0,0-0.1-0.1-0.1-0.2c0,0-0.1-0.1-0.1-0.1c0,0.1-0.1,0.1-0.1,0.2
		C31.6,29.5,31.6,29.7,31.7,29.9C31.7,29.9,31.7,29.9,31.7,29.9z"/>
	<g>
		<path fill-rule="evenodd" clip-rule="evenodd" d="M31,14.2c0.3,0,0.6,0,1,0c0.1,0,0.2,0,0.3,0c0.1,0,0.2,0,0.2-0.2
			c0-0.1-0.1-0.2-0.2-0.2c-0.1,0-0.2,0-0.3,0c-0.4,0-0.8,0-1.3,0c-0.3,0-0.6,0.1-0.8,0.3c-0.1,0.1-0.1,0.3-0.2,0.4
			c0,0.1,0,0.1,0,0.2c0,0.1-0.1,0.1-0.2,0.1c-0.1,0-0.1-0.1-0.1-0.1c0-0.1,0-0.3,0-0.4c0-0.5-0.3-0.7-0.7-0.8c-0.1,0-0.2,0-0.3,0
			c0,0-0.1,0-0.1,0c0,0,0,0.1,0,0.1c0.1,0.1,0.2,0.2,0.2,0.4c0.1,0.5-0.2,0.8-0.6,0.8c-0.1,0-0.1,0-0.2,0c-0.1,0-0.2-0.1-0.2-0.2
			c0,0,0.1-0.1,0.1-0.1c0.1,0,0.1,0,0.2,0c0.1,0,0.2,0,0.3-0.2c0.1-0.2,0.1-0.4-0.2-0.5c-0.1,0-0.2,0-0.2,0c-0.1,0-0.2-0.1-0.2-0.2
			c0,0,0-0.1,0-0.1c0-0.2,0-0.3,0-0.5c-9.2,0-18.3,0-27.5,0c0,0.2,0,0.5,0,0.7c0,0,0,0,0,0h8.8v1.9H0c0,0.1,0,0.2,0,0.2
			c0,0.1,0,0.1,0,0.2h8.8v1.9H0c0,0.1,0,0.2,0,0.3c0,0,0,0,0,0.1h8.8v1.9H0c0,0.1,0,0.3,0,0.4c0,0,0,0,0,0h8.8v1.9H0
			c0,0.1,0,0.3,0,0.4h8.8V25H0c0,0.1,0,0.3,0,0.4h8.8v1.9H0c0,0,0,0,0,0c0,0.1,0,0.2,0,0.4h8.8v1.9H0c0,0.1,0,0.1,0,0.2
			c0,0.1,0,0.2,0,0.3h8.8v1.9H0c0,0.1,0,0.1,0,0.2c0,0.1,0,0.1,0,0.2h8.8v1.9H0c0,0.1,0,0.2,0,0.3c0,0.2,0,0.4,0,0.5
			c0,0.1,0,0.2,0,0.3c6.2,0,12.4,0,18.6,0c0-0.1-0.1-0.1-0.1-0.2c-0.2-0.2-0.4-0.4-0.4-0.7c0-0.2,0-0.3,0.1-0.5
			c0.1-0.3,0.2-0.6,0.2-0.9c0.1-0.3,0.1-0.6,0.2-0.8c0.1-0.3,0.2-0.6,0.2-0.9c0.1-0.3,0.2-0.6,0.2-0.8c0-0.1,0.1-0.3,0.1-0.4
			c0.1-0.5,0.2-0.9,0.4-1.4c0.1-0.3,0.2-0.7,0.3-1c0-0.1,0-0.2,0-0.3c-0.1-0.2-0.1-0.4-0.2-0.6c0-0.1-0.1-0.2-0.2-0.4
			c0,0-0.1-0.1-0.1-0.1c0,0-0.1,0-0.1,0.1c-0.1,0.4-0.2,0.7-0.3,1.1c-0.1,0.4-0.2,0.8-0.3,1.1c0,0.1-0.1,0.3-0.2,0.4
			c-0.1,0.1-0.3,0.1-0.5,0.1c-0.2-0.1-0.2-0.2-0.2-0.3c0-0.3,0.2-0.5,0.5-0.5c0.2,0,0.2,0,0.2-0.2c0.1-0.3,0.2-0.6,0.3-0.9
			c0.1-0.3,0.1-0.6,0.2-0.8c0-0.2,0.1-0.3,0.1-0.5c0-0.1,0-0.2,0-0.3c-0.1-0.3-0.2-0.6-0.3-0.8c-0.1-0.3-0.2-0.5-0.3-0.8
			c-0.1-0.3-0.2-0.6-0.1-0.9c0-0.2,0.3-0.6,0.6-0.6c0.2,0,0.3,0,0.5,0c0.3,0,0.5,0.2,0.6,0.5c0.1,0.2,0.1,0.4,0,0.7
			c-0.1,0.3-0.1,0.6-0.2,0.9c-0.1,0.3-0.1,0.7-0.2,1c-0.1,0.2,0,0.5,0.1,0.7c0.1,0.2,0.2,0.4,0.2,0.6c0,0,0,0,0,0.1
			c0,0.1,0.1,0.1,0.1,0.1c0-0.1,0.1-0.1,0.1-0.2c0.1-0.3,0.2-0.5,0.2-0.8c0.1-0.3,0.1-0.5,0.2-0.8c0.1-0.3,0.1-0.5,0.2-0.8
			c0.1-0.2,0.1-0.4-0.1-0.6c-0.2-0.3-0.3-0.6-0.4-0.9c-0.1-0.4-0.2-0.8-0.3-1.1c-0.1-0.4-0.1-0.7-0.2-1.1c0-0.5,0-1.1-0.1-1.6
			c0-0.1,0-0.1,0.1-0.1c0.4,0,0.7,0,1.1,0c0.3,0,0.6,0,0.8,0.2c0,0,0.1,0,0.2,0c0.3,0,0.6,0,0.9,0c0.1,0,0.1,0,0.1,0.2
			c0,0.1-0.1,0.1-0.2,0.1c-0.3,0-0.6,0-0.8,0c-0.2,0-0.3,0-0.5-0.1c-0.1-0.1-0.3-0.1-0.4-0.2c-0.3,0-0.5,0-0.8,0
			c-0.1,0-0.1,0.1-0.1,0.2c0,0.5,0,0.9,0.1,1.4c0,0.3,0.1,0.6,0.1,0.8c0.1,0.3,0.1,0.5,0.2,0.8c0.1,0.2,0.2,0.5,0.3,0.7
			c0.2,0.3,0.3,0.6,0.5,0.9c0.4,0.6,0.8,1.2,1.1,1.8c0.3,0.5,0.6,0.9,0.9,1.4c0.1,0.2,0.2,0.4,0.4,0.5c0.2,0.2,0.5,0.2,0.7,0.1
			c0.2-0.1,0.3-0.3,0.3-0.5c0-0.4-0.4-0.8-0.8-0.6c-0.2,0-0.2,0-0.3-0.1c-0.3-0.5-0.6-1-0.9-1.4c-0.1-0.2-0.1-0.3-0.1-0.5
			c0.1-0.5,0.2-1,0.1-1.5c-0.1-0.3-0.2-0.6-0.4-0.8c-0.1-0.1-0.1-0.1-0.2-0.2c0-0.1-0.1-0.1,0-0.2c0-0.1,0.1-0.2,0.2-0.1
			c0.1,0.1,0.3,0.2,0.4,0.4c0.1,0.1,0.2,0.2,0.3,0.2c0.6,0,1.2,0,1.8,0c0.2,0,0.4,0,0.6,0c0.3,0,0.6,0.2,0.7,0.5c0,0,0,0,0,0
			c0.1,0.1,0.2,0.2,0.3,0.2c0.2,0,0.3,0,0.5,0c0.2,0,0.2-0.1,0.1-0.2c0-0.1-0.1-0.2-0.1-0.3c-0.1-0.2-0.3-0.3-0.5-0.4
			c-0.6-0.3-1.2-0.3-1.9-0.3c-0.3,0-0.6,0.1-0.9,0.3c-0.1,0.1-0.1,0-0.2-0.1c-0.1-0.2-0.1-0.4,0-0.6c0.1-0.4,0.3-0.7,0.6-0.9
			c0.1-0.1,0.1-0.1,0-0.3c-0.2-0.3-0.3-0.5-0.4-0.8c-0.1-0.3-0.2-0.5-0.2-0.8c0-0.1,0-0.1,0.1-0.1c0.4,0,0.7,0.2,1,0.4
			c0.1,0.1,0.2,0.1,0.2,0.2c0.1,0.1,0.2,0.1,0.2-0.1c0.1-0.2,0.2-0.4,0.4-0.6c0.1-0.1,0.2-0.2,0.3-0.3c0.1-0.1,0.1,0,0.1,0.1
			c0,0.3,0.1,0.5,0.2,0.8c0.1,0.3,0.3,0.6,0.5,0.8c0,0,0,0,0,0c0,0,0.1,0,0.1,0c0.1-0.1,0.1-0.2,0.2-0.3c0,0,0-0.1-0.1-0.1
			c-0.1,0-0.1,0-0.2-0.1c-0.4-0.2-0.4-0.8-0.1-1.2c0.1-0.1,0.2-0.1,0.3-0.1c0.2-0.1,0.2-0.2,0.1-0.3c0,0-0.1-0.1-0.2-0.1
			c-0.3,0-0.6,0-0.8,0c-0.1,0-0.2,0-0.3-0.1c-0.2-0.1-0.3-0.4-0.3-0.6c0-0.1,0-0.1,0.1-0.2c0-0.1,0-0.1-0.1-0.2
			c-0.1,0-0.2,0-0.2,0.1c0,0.1,0,0.1-0.1,0.2c0,0.1-0.1,0.1-0.2,0c0-0.1-0.1-0.1-0.1-0.2c0-0.5,0-0.9,0-1.4c0-0.1,0-0.2,0.2-0.2
			c0,0,0.1,0,0.1,0c0.1,0,0.2,0,0.3-0.2c0.1-0.2,0.2-0.3,0.4-0.3c0.3,0,0.6,0,0.9,0c0.4,0,0.7,0.1,1,0.4c0,0,0.1,0,0.1,0
			c0,0,0-0.1,0-0.1c0-0.1,0.1-0.2,0.2-0.2c0.1,0,0.1,0.1,0.1,0.2c0,0.1,0,0.3,0,0.4c0,0.2-0.2,0.3-0.3,0.2c-0.2-0.1-0.4-0.3-0.7-0.4
			c-0.1-0.1-0.3-0.2-0.5-0.2c-0.2,0-0.5,0-0.7,0c0,0,0,0-0.1,0c0,0-0.1,0-0.1,0.1c0,0,0.1,0.1,0.1,0.1c0.3,0,0.6,0,0.9,0
			c0.1,0,0.1,0,0.1,0.1c0,0.5,0,0.9,0,1.4c0,0.1,0,0.1-0.1,0.2c0,0.1-0.1,0.1-0.2,0c0-0.1,0-0.1,0-0.2c0-0.1-0.1-0.2-0.2-0.2
			c-0.1,0-0.1,0.1-0.2,0.2c0,0.1,0,0.1,0,0.2c0,0-0.1,0.1-0.1,0.1c0,0-0.1-0.1-0.1-0.1c0,0,0-0.1,0-0.1c0-0.1,0-0.1-0.1-0.2
			c0,0-0.1-0.1-0.1-0.1c-0.1,0-0.1,0.1-0.1,0.1c0,0.1,0,0.2-0.1,0.3c0,0.1,0,0.2,0.2,0.2c0.3,0.1,0.7,0.1,1,0c0.1,0,0.2-0.1,0.3-0.2
			c0.2-0.1,0.4-0.3,0.6-0.4c0,0,0,0,0,0c0.1,0,0.2,0,0.3,0.1c0.1,0.1,0,0.2-0.1,0.2c-0.1,0.1-0.2,0.1-0.3,0.2c-0.1,0-0.1,0.2,0,0.3
			c0,0.1,0.1,0.1,0.2,0.1c0.1,0,0.1-0.1,0.1-0.1c0-0.1,0-0.2,0.2-0.2c0.2,0,0.4,0,0.6,0c0.1,0,0.2,0,0.2,0.1c0,0.2,0.1,0.2,0.2,0.2
			c0.1,0,0.1-0.1,0.1-0.2c0-0.2,0-0.3,0-0.5c0.1-0.5,0.5-0.8,1-0.9c0.2,0,0.5-0.1,0.7-0.1c0.1,0,0.2-0.1,0.3-0.1
			c0,0,0.1-0.1,0.1-0.1c0,0-0.1,0-0.1,0c-0.3,0-0.6,0-0.8,0c-0.1,0-0.1,0-0.1-0.2c0-0.1,0-0.2,0.1-0.2c0.5,0,0.9,0,1.4,0
			c0.2,0,0.2,0,0.3-0.2c0-0.1,0-0.1-0.1-0.1c-0.1,0-0.3,0-0.4,0c-0.3,0-0.5,0-0.8-0.1c-0.1,0-0.2-0.1-0.1-0.2c0-0.1,0.1-0.2,0.2-0.2
			c0.4,0,0.8,0,1.2,0c0.1,0,0.1,0,0.2,0c0.1,0,0.1,0,0.1-0.2c0-0.1,0-0.1-0.2-0.1c-0.3,0-0.6,0-0.9,0c-0.1,0-0.2,0-0.3,0
			c-0.1,0-0.1-0.1-0.1-0.1C30.9,14.2,30.9,14.2,31,14.2z M21.2,19.7c0.1,0,0.3,0.1,0.3,0.2c0,0.1-0.1,0.2-0.2,0.2
			c-0.1,0-0.2,0-0.2-0.1c0,0,0,0,0-0.1C21.1,19.8,21.1,19.7,21.2,19.7z M21.5,21.4c0,0.1-0.1,0.2-0.2,0.2c-0.1,0-0.2-0.1-0.2-0.2
			c0-0.1,0.1-0.2,0.2-0.2C21.4,21.3,21.5,21.3,21.5,21.4z M20.5,21.4c0-0.1,0.1-0.2,0.2-0.2c0.1,0,0.2,0.1,0.2,0.2
			c0,0.1-0.1,0.2-0.2,0.2C20.5,21.6,20.5,21.6,20.5,21.4z M22.3,23.2c0,0.1,0,0.1,0,0.2c0,0-0.1,0-0.1,0.1c0,0,0,0.1,0,0.1
			c0,0,0.1,0,0.1,0c0,0,0.1,0,0.1,0c0.1,0,0.2,0,0.2,0.1c0.1,0.1,0.1,0.2-0.1,0.2c-0.1,0-0.1,0.1,0,0.2c0,0.1,0.1,0.2,0,0.2
			c-0.1,0.1-0.2,0.1-0.3-0.1c-0.2-0.4-0.5-0.8-0.7-1.1c0,0-0.1-0.1-0.2-0.1c-0.1,0-0.2-0.1-0.3-0.1c-0.2-0.1-0.2-0.2-0.2-0.3
			c0-0.3,0.1-0.4,0.3-0.6c0.1-0.1,0.3-0.1,0.4,0c0.2,0.1,0.5,0.4,0.3,0.7c0,0.1,0,0.2,0,0.2c0,0.2,0.2,0.3,0.3,0.3
			C22.2,23,22.2,23.1,22.3,23.2z M21.7,21.4c0-0.1,0.1-0.2,0.2-0.2c0.1,0,0.2,0.1,0.2,0.2c0,0.1-0.1,0.2-0.2,0.2
			C21.8,21.6,21.7,21.5,21.7,21.4z M22.5,21.6c-0.1,0-0.2-0.1-0.2-0.2c0-0.1,0.1-0.2,0.2-0.2c0.1,0,0.2,0.1,0.2,0.2
			C22.7,21.5,22.6,21.6,22.5,21.6z M22.6,21.1C22.6,21.1,22.6,21.1,22.6,21.1c-0.3,0-0.5,0-0.7-0.2c-0.3-0.3-0.3-0.9,0.2-1.2
			c0.2-0.1,0.4,0,0.6-0.1c0,0,0,0,0,0c0,0.1,0,0.2,0,0.3c0,0.1-0.1,0.1-0.1,0.1c-0.1,0-0.2,0-0.2,0c-0.1,0-0.2,0.1-0.3,0.2
			c-0.1,0.1-0.1,0.2,0,0.4c0.1,0.1,0.2,0.2,0.3,0.2c0.1,0,0.2,0,0.3,0c0.1,0,0.1,0,0.1,0.1C22.8,21.1,22.8,21.1,22.6,21.1z
			 M23.5,20.4c0,0.1-0.1,0.1-0.2,0.1c-0.1,0-0.2,0-0.3,0c0,0,0,0,0,0c-0.2,0-0.3,0-0.5,0c0,0-0.1,0-0.1,0c-0.1,0-0.2-0.1-0.1-0.1
			c0-0.1,0.1-0.2,0.2-0.2c0.3,0,0.6,0,0.9,0C23.4,20.2,23.5,20.3,23.5,20.4z M27.4,14.3c-0.1,0-0.2,0-0.3,0c-0.1,0-0.2,0-0.2-0.1
			c0-0.1,0-0.2,0.1-0.2c0.1,0,0.2,0,0.2,0c0.2,0,0.3,0,0.5,0c0.1,0,0.2,0,0.2,0.1c0,0.1-0.1,0.2-0.2,0.2
			C27.7,14.3,27.6,14.3,27.4,14.3C27.4,14.3,27.4,14.3,27.4,14.3z M28.8,14.1c-0.1,0-0.2-0.1-0.2-0.2c0-0.1,0.1-0.2,0.2-0.2
			c0.1,0,0.2,0.1,0.2,0.1C29,14,28.9,14.1,28.8,14.1z"/>
	</g>
	<rect x="0" y="15.7" fill-rule="evenodd" clip-rule="evenodd" width="0.3" height="0.4"/>
	<rect x="0" y="13.1" fill-rule="evenodd" clip-rule="evenodd" width="0.3" height="0.7"/>
	<rect x="0" y="18.1" fill-rule="evenodd" clip-rule="evenodd" width="0.3" height="0.4"/>
	<rect x="0" y="20.4" fill-rule="evenodd" clip-rule="evenodd" width="0.3" height="0.4"/>
	<rect x="0" y="22.7" fill-rule="evenodd" clip-rule="evenodd" width="0.3" height="0.4"/>
	<rect x="0" y="25" fill-rule="evenodd" clip-rule="evenodd" width="0.3" height="0.4"/>
	<rect x="0" y="27.3" fill-rule="evenodd" clip-rule="evenodd" width="0.3" height="0.4"/>
	<rect x="0" y="29.6" fill-rule="evenodd" clip-rule="evenodd" width="0.3" height="0.4"/>
	<rect x="0" y="31.9" fill-rule="evenodd" clip-rule="evenodd" width="0.3" height="0.4"/>
	<rect x="0" y="34.2" fill-rule="evenodd" clip-rule="evenodd" width="0.3" height="1.2"/>
</g>
</svg>
