<?xml version="1.0" encoding="utf-8"?>
<!-- Generator: Adobe Illustrator 18.0.0, SVG Export Plug-In . SVG Version: 6.00 Build 0)  -->
<!DOCTYPE svg PUBLIC "-//W3C//DTD SVG 1.1//EN" "http://www.w3.org/Graphics/SVG/1.1/DTD/svg11.dtd">
<svg version="1.1"
	 id="Layer_1" xmlns:rdf="http://www.w3.org/1999/02/22-rdf-syntax-ns#" xmlns:dc="http://purl.org/dc/elements/1.1/" xmlns:inkscape="http://www.inkscape.org/namespaces/inkscape" xmlns:svg="http://www.w3.org/2000/svg" xmlns:cc="http://creativecommons.org/ns#" xmlns:sodipodi="http://sodipodi.sourceforge.net/DTD/sodipodi-0.dtd"
	 xmlns="http://www.w3.org/2000/svg" xmlns:xlink="http://www.w3.org/1999/xlink" x="0px" y="0px" width="48px" height="48px"
	 viewBox="126 276 48 48" enable-background="new 126 276 48 48" xml:space="preserve">
<path fill="#231F20" d="M152.3,312c0.4,0.4,1.1,0.7,1.7,1c0.4-0.3,0.8-0.6,1.2-0.9c0.9-0.6,1.8-1.3,2.8-1.9
	c-0.2-0.3-0.4-0.5-0.7-0.8c-0.2,0.1-0.4,0.2-0.6,0.2l0.3-0.2l-2.1,0.2l-2.4,1.2h-1.8l-0.1,0.5c-0.2,0.1-0.4,0.2-0.6,0.3
	C150.7,312,151.6,312.1,152.3,312z"/>
<path fill="#231F20" d="M162.1,315.3c-0.1-0.5-0.2-1-0.5-1.4c0,0-0.1,0-0.1,0c-0.8,0.3-1.7,0.9-2.7,1.6c0.2,0.4,0.5,0.7,0.9,1
	c0.1,0.7,0.6,1.5,0.9,1.8c0.1,0.9-0.2,2.2-1.2,2.4c0.2-1.2-0.7-1.9-1.4-1.9c-0.9-0.1-1.8,0.5-1.7,1.8c0.1,1.3,1.6,2.3,3.1,2.2
	c1.7-0.1,2.8-1.2,3-2.1c0.6-0.7,0.8-2.5,0.3-3C163,316.7,162.6,315.7,162.1,315.3z"/>
<path fill="#231F20" d="M150,305.5C150,305.5,150,305.5,150,305.5c-0.7-0.9-1.5-1.5-2.2-1.9c-0.3-0.9-0.8-1.9-1.3-2.3
	c-0.2-0.9,0-1.6,0.4-2.3l0,0c0.5,0.1,1-0.2,1-0.6c0-1-1.1-1.7-2-2.1c-1-0.4-2.7-0.9-5.3-0.9c-2.6,0-6.1,0.6-7.5,1.9
	c-0.9,0.8-0.7,1.4-0.5,1.9c0.2,0.5,0.6,0.9,0.9,1.3c0.1,0.6,1,2.7,2,3.4c0.5,1.4,2.3,3.7,4.6,4c0.6,0.6,1.6,1.2,2.5,1.6l1.1-0.4
	l1.8-1l1.4-0.8h0.9l0.6-1L150,305.5z"/>
<path id="path31" inkscape:connector-curvature="0" fill="#231F20" d="M131.6,303.1c-0.1,0-0.1,0.5-0.1,1c0.1,0.5,0.2,1,0.3,1
	c0.1,0,0.2-0.5,0.1-1.1C131.9,303.5,131.7,303.1,131.6,303.1 M132.2,303.9c0.1,0.9,0.1,1.7-0.2,1.8c-0.5,0.1-0.7-0.8-0.9-1.6
	c-0.3-1.2,0-1.6,0.4-1.7C131.8,302.5,132.1,303.2,132.2,303.9L132.2,303.9z"/>
<path id="path33" inkscape:connector-curvature="0" fill="#231F20" d="M131.9,300.2c-0.1,0-0.1,0.3-0.1,0.7c0,0.4,0,0.7,0.1,0.7
	c0.1,0,0.2-0.3,0.2-0.7C132.1,300.4,132,300.2,131.9,300.2 M132.4,300.8c0,0.8-0.2,1.5-0.4,1.5c-0.4,0-0.5-1-0.5-1.6
	c0-1,0.2-1.2,0.5-1.2C132.2,299.5,132.4,299.9,132.4,300.8z"/>
<path id="path35" inkscape:connector-curvature="0" fill="#231F20" d="M131.1,297.3c-0.2,0-0.4,0.3-0.4,0.8c0,0.6,0.1,0.9,0.3,0.9
	c0.3,0,0.4-0.4,0.4-0.9C131.4,297.6,131.3,297.3,131.1,297.3 M131.7,298.1c0,0.9-0.2,1.5-0.8,1.5c-0.5,0-0.7-0.7-0.7-1.4
	c0-0.9,0.4-1.4,0.8-1.4C131.5,296.8,131.7,297.3,131.7,298.1z"/>
<path id="path37" inkscape:connector-curvature="0" fill="#231F20" d="M130.1,300c-0.2,0.1-0.2,0.7,0.1,1.1c0.3,0.5,0.5,0.7,0.7,0.6
	c0.2-0.1,0.2-0.6-0.1-1.1C130.5,300.1,130.2,299.9,130.1,300 M131,300.4c0.4,0.7,0.4,1.6-0.1,1.9c-0.4,0.2-1-0.4-1.3-1.1
	c-0.2-0.5-0.3-1.2,0.1-1.5C130.2,299.4,130.7,299.7,131,300.4z"/>
<path id="path39" inkscape:connector-curvature="0" fill="#231F20" d="M132.6,295c-0.1-0.1-0.4,0.2-0.6,0.5
	c-0.3,0.5-0.3,0.9-0.2,0.9c0.1,0.1,0.6-0.4,0.7-0.6C132.7,295.3,132.7,295.1,132.6,295 M132.8,295.8c-0.2,0.4-0.7,1.2-1.2,1
	c-0.4-0.2-0.2-1,0.1-1.5c0.3-0.5,0.9-1,1.2-0.8C133.1,294.7,133,295.2,132.8,295.8z"/>
<path id="path41" inkscape:connector-curvature="0" fill="#231F20" d="M147.5,299.9c-0.2,0.1-0.1,0.3,0,0.7c0.2,0.5,0.3,0.7,0.4,0.7
	c0.1,0,0.1-0.5,0-0.8C147.8,300.1,147.7,299.8,147.5,299.9 M148.2,300.3c0.2,0.5,0.4,1.4,0,1.5c-0.3,0.1-0.7-0.4-1-1.1
	c-0.3-0.8-0.1-1.3,0.1-1.4C147.6,299.2,147.9,299.6,148.2,300.3L148.2,300.3z"/>
<path id="path43" inkscape:connector-curvature="0" fill="#231F20" d="M148.4,297.3c-0.2,0-0.2,0.4-0.1,0.9c0.1,0.5,0.3,0.8,0.4,0.7
	c0.1,0,0.2-0.4,0.1-0.9C148.7,297.5,148.6,297.2,148.4,297.3 M149.2,297.8c0.1,0.6,0.1,1.5-0.3,1.6c-0.3,0.1-0.6-0.5-0.8-1.3
	c-0.2-0.8-0.1-1.3,0.3-1.3C148.8,296.7,149.1,297.4,149.2,297.8L149.2,297.8z"/>
<path id="path45" inkscape:connector-curvature="0" fill="#231F20" d="M133.4,294.7c0-0.9,0.9-1.3,2-1.2c0.1-0.1,0.4-0.3,0.5-0.4
	c0.7-1.3,2-1.5,2.8-1.1c0.8-0.1,1.5-0.2,2.1,0.5c0.9-0.6,1.7-0.2,2.2,0.4c0.9-0.3,1.7,0.1,2.1,0.8c0.6-0.3,2.2,0,1.7,1.1
	c-0.1,0.1-0.3,0-0.3,0c0,0,0,0,0-0.1c0.2-0.3,0.1-0.5-0.3-0.7c-0.4-0.2-1-0.1-1.1,0.2c0.4,0.2,0.7,0.4,0.8,0.6
	c1.5,0.1,2,1.4,1.7,1.5c-0.2,0.1-0.4,0-0.5,0c0,0,0,0,0,0c0.3-0.2,0-0.5-0.3-0.7c-0.3-0.2-0.8-0.5-1-0.3c-0.1,0,0,0.2,0,0.3
	c0,0.1-0.1,0.1-0.2,0.1s-0.2-0.3-0.2-0.4c0-0.1,0-0.2,0.1-0.2c-0.1-0.2-0.9-0.7-1.7-0.4c-0.1,0,0,0.2,0,0.3c0,0.1-0.3,0-0.4-0.1
	c-0.1-0.1-0.1-0.5,0.4-0.6c0.3-0.1,0.7-0.1,0.9-0.1c0.1-0.2-0.1-0.7-0.9-0.9c-0.5-0.1-0.8,0.1-1,0.3c0,0,0,0-0.1,0
	c-0.1,0-0.1-0.1-0.2-0.1c0,0,0-0.1,0-0.1c0,0,0-0.1,0.1-0.2c-0.1-0.3-0.4-0.5-0.8-0.5c-0.5-0.1-0.9,0.2-1.1,0.6c0,0,0,0,0,0.1
	c0,0-0.2,0-0.3-0.1c0,0,0-0.2,0.1-0.3c-0.4-0.4-1-0.6-1.9-0.4c-0.3,0.1-0.4,0.4-0.4,0.4c0,0,0,0.1,0,0.1c0,0-0.3,0-0.3,0
	c0,0,0,0,0-0.1c0-0.1,0-0.3,0.2-0.5c-0.5-0.2-1.3,0.3-1.6,0.6c0.4,0,0.8,0.2,0.9,0.3c0,0,0,0.1,0,0.1c0,0.1,0,0.2-0.1,0.2
	c0,0-0.1,0-0.1,0c-0.5-0.3-1.2-0.3-1.6,0.1c0,0,0.1,0.1,0.1,0.1c0,0,0,0,0,0.1c0,0,0,0.2,0,0.2c0,0,0,0.1,0,0
	c-0.3-0.1-0.9-0.2-1.5,0.1c-0.4,0.2-0.4,0.4-0.4,0.6c0,0.1,0,0.2-0.1,0.2C133.7,294.9,133.4,294.8,133.4,294.7
	C133.4,294.8,133.4,294.8,133.4,294.7"/>
<path id="path57" inkscape:connector-curvature="0" fill="#231F20" d="M168.1,304.1c-0.1,0.5,0,1,0.1,1.1c0.1,0,0.2-0.5,0.3-1
	c0.1-0.5,0.1-1-0.1-1C168.3,303.1,168.2,303.5,168.1,304.1 M168.6,302.5c0.3,0,0.6,0.5,0.4,1.7c-0.2,0.7-0.4,1.7-0.9,1.6
	c-0.4-0.1-0.4-0.9-0.2-1.8C167.9,303.2,168.2,302.5,168.6,302.5L168.6,302.5z"/>
<path id="path59" inkscape:connector-curvature="0" fill="#231F20" d="M168,300.9c0,0.4,0.1,0.7,0.2,0.7c0.1,0,0.1-0.3,0.1-0.7
	c0-0.4-0.1-0.7-0.1-0.7C168,300.2,168,300.4,168,300.9 M168.1,299.5c0.3,0,0.5,0.3,0.5,1.2c0,0.6-0.1,1.6-0.5,1.6
	c-0.3,0-0.5-0.8-0.4-1.5C167.7,299.9,167.8,299.5,168.1,299.5z"/>
<path id="path61" inkscape:connector-curvature="0" fill="#231F20" d="M168.7,298.1c0,0.5,0.1,0.9,0.4,0.9c0.2,0,0.3-0.4,0.3-0.9
	c0-0.5-0.2-0.8-0.4-0.8C168.8,297.3,168.7,297.6,168.7,298.1 M169,296.8c0.4,0,0.8,0.4,0.8,1.4c0,0.7-0.3,1.5-0.7,1.4
	c-0.5,0-0.7-0.6-0.8-1.5C168.3,297.3,168.6,296.8,169,296.8z"/>
<path id="path63" inkscape:connector-curvature="0" fill="#231F20" d="M169.3,300.6c-0.3,0.5-0.3,1-0.1,1.1c0.2,0.1,0.4-0.1,0.7-0.6
	c0.3-0.5,0.3-1.1,0.1-1.1C169.8,299.9,169.5,300.1,169.3,300.6 M170.3,299.7c0.4,0.2,0.3,1,0.1,1.5c-0.3,0.7-0.8,1.3-1.3,1.1
	c-0.5-0.2-0.4-1.2-0.1-1.9C169.4,299.7,169.9,299.4,170.3,299.7z"/>
<path id="path65" inkscape:connector-curvature="0" fill="#231F20" d="M167.5,295.8c0.1,0.2,0.5,0.7,0.7,0.6
	c0.1-0.1,0.1-0.5-0.2-0.9c-0.2-0.3-0.5-0.5-0.6-0.5C167.3,295.1,167.3,295.3,167.5,295.8 M167.2,294.5c0.3-0.2,0.9,0.3,1.2,0.8
	c0.3,0.5,0.5,1.3,0.1,1.5c-0.5,0.2-1-0.6-1.2-1C167,295.2,166.9,294.7,167.2,294.5z"/>
<path id="path67" inkscape:connector-curvature="0" fill="#231F20" d="M152.1,300.4c-0.1,0.3-0.1,0.8,0,0.8c0.1,0,0.3-0.1,0.4-0.7
	c0.1-0.4,0.1-0.6,0-0.7C152.3,299.8,152.2,300.1,152.1,300.4 M152.8,299.4c0.2,0.1,0.4,0.6,0.1,1.4c-0.3,0.7-0.7,1.2-1,1.1
	c-0.4-0.2-0.2-1,0-1.5C152.1,299.6,152.5,299.2,152.8,299.4L152.8,299.4z"/>
<path id="path69" inkscape:connector-curvature="0" fill="#231F20" d="M151.2,298c-0.1,0.6,0,0.9,0.1,0.9c0.1,0,0.2-0.2,0.4-0.7
	c0.1-0.5,0.1-0.9-0.1-0.9C151.5,297.2,151.3,297.5,151.2,298 M151.6,296.8c0.4,0.1,0.5,0.5,0.3,1.3c-0.2,0.8-0.5,1.4-0.8,1.3
	c-0.4-0.1-0.4-1.1-0.3-1.6C150.9,297.4,151.2,296.7,151.6,296.8L151.6,296.8z"/>
<path id="path71" inkscape:connector-curvature="0" fill="#231F20" d="M166.7,294.7c0-0.9-0.9-1.3-2-1.2c-0.1-0.1-0.4-0.3-0.5-0.4
	c-0.7-1.3-2-1.5-2.8-1.1c-0.8-0.1-1.5-0.2-2.1,0.5c-0.9-0.6-1.7-0.2-2.2,0.4c-0.9-0.3-1.7,0.1-2.1,0.8c-0.6-0.3-2.2,0-1.7,1.1
	c0.1,0.1,0.3,0,0.3,0c0,0,0,0,0-0.1c-0.2-0.3-0.1-0.5,0.3-0.7c0.4-0.2,1-0.1,1.1,0.2c-0.4,0.2-0.7,0.4-0.8,0.6
	c-1.5,0.1-2,1.4-1.7,1.5c0.2,0.1,0.4,0,0.5,0c0,0,0,0,0,0c-0.3-0.2,0-0.5,0.3-0.7c0.3-0.2,0.8-0.5,1-0.3c0.1,0,0,0.2,0,0.3
	c0,0.1,0.1,0.1,0.2,0.1c0.1,0,0.2-0.3,0.2-0.4c0-0.1,0-0.2-0.1-0.2c0.1-0.2,0.9-0.7,1.7-0.4c0.1,0,0,0.2,0,0.3c0,0.1,0.3,0,0.4-0.1
	c0.1-0.1,0.1-0.5-0.4-0.6c-0.3-0.1-0.7-0.1-0.9-0.1c-0.1-0.2,0.1-0.7,0.9-0.9c0.5-0.1,0.8,0.1,1,0.3c0,0,0,0,0.1,0
	c0.1,0,0.1-0.1,0.2-0.1c0,0,0-0.1,0-0.1c0,0,0-0.1-0.1-0.2c0.1-0.3,0.4-0.5,0.8-0.5c0.5-0.1,0.9,0.2,1.1,0.6c0,0,0,0,0,0.1
	c0,0,0.2,0,0.3-0.1c0,0,0-0.2-0.1-0.3c0.4-0.4,1-0.6,1.9-0.4c0.3,0.1,0.4,0.4,0.4,0.4c0,0,0,0.1,0,0.1c0,0,0.3,0,0.3,0
	c0,0,0,0,0-0.1c0-0.1,0-0.3-0.2-0.5c0.5-0.2,1.3,0.3,1.6,0.6c-0.4,0-0.8,0.2-0.9,0.3c0,0,0,0.1,0,0.1c0,0.1,0,0.2,0.1,0.2
	c0,0,0.1,0,0.1,0c0.5-0.3,1.2-0.3,1.6,0.1c0,0-0.1,0.1-0.1,0.1c0,0,0,0,0,0.1c0,0,0,0.2,0,0.2c0,0,0,0.1,0,0
	c0.3-0.1,0.9-0.2,1.5,0.1c0.4,0.2,0.4,0.4,0.4,0.6c0,0.1,0,0.2,0.1,0.2C166.4,294.9,166.6,294.8,166.7,294.7
	C166.6,294.8,166.7,294.8,166.7,294.7"/>
<g>
	<path fill="#231F20" d="M140.6,311.2c0,0-0.1,0.3-0.2,0.3c0.1-0.1,0.3-0.5,0.5-0.5c-1.9-1-3.9-1.6-6-1.2c-1.6,0.3-3.3,1.3-2.5,3.1
		c0.1,0.3,0.1,0.3,0.3,0.6c-0.8,0.2-1.6,0.8-1.9,1.2c0.7,0.1,1.6,0.5,1.8,0.8c-0.1,0.1-1,1.2-0.9,2c0.2-0.1,0.9-0.5,1.8-0.4
		c1.4,0.2,2.3,0.2,2.8-0.2c0.4-0.4,0.6-0.7,0.4-1.3c-0.4-1-0.5-1.2-0.6-2.3c0.9,0,1.9,0.2,2.5,0.4c0.1-0.1,0.7-0.2,0.7-0.3
		 M133.7,314.3c0.4-0.6,1.2-1,1.9-1c0.1,0.3,0.4,1.6,0.4,1.9c-0.5-0.2-2,0.4-2.3-0.2C133.6,314.8,133.4,314.6,133.7,314.3z"/>
</g>
<path id="path119" inkscape:connector-curvature="0" fill="#231F20" d="M145.2,291.5c-0.1-1.5-1.2-4.4-2.8-5.5
	c1.5-0.6,3.4-0.3,4,0.5c0.5,0.7,0.3,1.4,0.1,1.8c-0.1,0.1-0.1,0.2,0,0.2c0.4,0.4,1.5,0.3,1.7-0.3c0-0.1,0-0.1,0-0.2
	c-0.3-0.2-0.9-0.5-0.9-0.9c-0.1-1.1,1.7-2.5,2.7-3c1.1,0.5,2.8,1.9,2.7,3c0,0.3-0.6,0.7-0.9,0.9c-0.1,0-0.1,0.1-0.1,0.2
	c0.2,0.6,1.3,0.7,1.7,0.3c0.1-0.1,0.1-0.1,0-0.2c-0.3-0.4-0.4-1,0.1-1.8c0.6-0.8,2.4-1.1,4-0.5c-1.6,1.2-2.7,4-2.8,5.5
	c-1.6-0.6-2.4-0.8-4.8-0.8C147.6,290.8,146.8,290.9,145.2,291.5L145.2,291.5z"/>
<path id="path121" inkscape:connector-curvature="0" fill="#231F20" d="M136.1,284.2c-0.1-1.5-1.2-4.4-2.8-5.5
	c1.5-0.6,3.4-0.3,4,0.5c0.5,0.7,0.3,1.4,0.1,1.8c-0.1,0.1-0.1,0.2,0,0.2c0.4,0.4,1.5,0.3,1.7-0.3c0-0.1,0-0.1-0.1-0.2
	c-0.3-0.2-0.9-0.5-0.9-0.9c-0.1-1.1,1.7-2.5,2.7-3c1.1,0.5,2.8,1.9,2.7,3c0,0.3-0.6,0.7-0.9,0.9c-0.1,0-0.1,0.1-0.1,0.2
	c0.2,0.6,1.3,0.7,1.7,0.3c0.1-0.1,0.1-0.1,0-0.2c-0.3-0.4-0.4-1,0.1-1.8c0.6-0.8,2.4-1.1,4-0.5c-1.6,1.2-2.7,4-2.8,5.5
	c-1.6-0.6-2.4-0.8-4.8-0.8C138.5,283.4,137.6,283.5,136.1,284.2L136.1,284.2z"/>
<path id="path123" inkscape:connector-curvature="0" fill="#231F20" d="M154.4,284.2c-0.1-1.5-1.2-4.4-2.8-5.5
	c1.5-0.6,3.4-0.3,4,0.5c0.5,0.7,0.3,1.4,0.1,1.8c-0.1,0.1-0.1,0.2,0,0.2c0.4,0.4,1.5,0.3,1.7-0.3c0-0.1,0-0.1-0.1-0.2
	c-0.3-0.2-0.9-0.5-0.9-0.9c-0.1-1.1,1.7-2.5,2.7-3c1.1,0.5,2.8,1.9,2.7,3c0,0.3-0.6,0.7-0.9,0.9c-0.1,0-0.1,0.1-0.1,0.2
	c0.2,0.6,1.3,0.7,1.7,0.3c0.1-0.1,0.1-0.1,0-0.2c-0.3-0.4-0.4-1,0.1-1.8c0.6-0.8,2.4-1.1,4-0.5c-1.6,1.2-2.7,4-2.8,5.5
	c-1.6-0.6-2.4-0.8-4.8-0.8C156.8,283.4,155.9,283.5,154.4,284.2L154.4,284.2z"/>
<path id="path163" inkscape:connector-curvature="0" fill="#231F20" d="M145.4,314.7c0,0.3-0.1,0.5-0.4,0.6c-0.1,0.3,0,0.7,0,1
	c-0.1,0.1-0.4,0-0.4-0.3l0-0.9c0.2,0,0.5,0,0.5-0.3c0-0.1-0.1-0.4-0.3-0.2l-0.7,1.2c-0.2-0.1-0.3-0.2-0.3-0.2l0.9-1.5
	C145,314.2,145.4,314.3,145.4,314.7"/>
<polyline id="polyline165" fill="#231F20" points="162.5,310.3 162.5,312.1 162.8,312.1 162.8,310.3 162.5,310.3 "/>
<polyline id="polyline167" fill="#231F20" points="163.1,310.2 163.1,310.5 163.5,310.5 163.3,312 163.7,312 163.8,310.5 
	164.4,310.6 164.4,310.3 163.1,310.2 "/>
<path id="path169" inkscape:connector-curvature="0" fill="#231F20" d="M165.1,310.9l-0.4,0.5l0.3,0.1L165.1,310.9"/>
<path id="path171" inkscape:connector-curvature="0" fill="#231F20" d="M161.1,310.8l0.1,0.6c0,0,0.4-0.1,0.3-0.4
	C161.5,310.6,161.1,310.8,161.1,310.8"/>
<g>
	<path fill="#231F20" d="M159.5,295.5v0.8c2.5,0,5.7,0.6,6.8,1.7c0.5,0.4,0.4,0.6,0.3,0.9c-0.2,0.4-0.4,0.7-0.7,1
		c-0.1,0.1-0.2,0.3-0.2,0.4c-0.1,0.6-0.9,2.3-1.7,2.9c-0.1,0.1-0.3,0.2-0.3,0.4c-0.5,1.3-2.1,3.2-3.9,3.5c-0.2,0-0.3,0.1-0.5,0.2
		c-0.9,0.9-2.8,1.8-3.8,1.8c-0.1,0-0.1,0-0.1,0c0,0-0.1,0-0.1,0c-0.2,0-0.3,0-0.5,0.1c-0.8,0.5-2.2,1.1-3.3,1.1c-0.1,0-0.3,0-0.4,0
		c0,0-0.1,0-0.1,0c-0.2,0-0.4,0.1-0.6,0.2c-0.4,0.4-1.3,0.7-2.1,0.7c-0.1,0-0.2,0-0.3,0c0,0-0.1,0-0.1,0c-0.2,0-0.4,0.1-0.6,0.2
		c-0.5,0.5-1.8,1.1-2.6,1.1c-0.1,0-0.1,0-0.2,0c0,0-0.1,0-0.1,0c-0.2,0-0.5,0.1-0.6,0.3c-0.5,0.5-1.6,1.2-2.3,1.3
		c-0.3,0-0.5,0.2-0.6,0.5c-0.3,0.6-0.5,0.9-1,1.3c-0.2,0.1-0.3,0.3-0.4,0.6c0,0.2-0.2,0.7-0.7,1.5c-0.1,0.1-0.1,0.3-0.1,0.4
		c-0.1,1.4,0.4,3,1.9,3.3c0.1,0,0.1,0,0.2,0c0.2,0,0.4-0.1,0.6-0.2c0.2-0.2,0.3-0.5,0.2-0.8c-0.1-0.3,0-0.5,0.1-0.6
		c0.1-0.2,0.3-0.3,0.6-0.3c0.2,0,0.5,0.1,0.6,0.2c0.1,0.1,0.2,0.4,0.2,0.6c-0.1,0.8-1.1,1.5-2.1,1.5l-0.1,0
		c-1.3-0.1-2.1-0.8-2.2-1.5c0-0.1-0.1-0.2-0.2-0.3c-0.3-0.4-0.5-1.6-0.4-1.9c0.2-0.2,0.2-0.5,0.2-0.7c-0.2-0.7,0.1-1.3,0.3-1.5
		c0.2-0.1,0.3-0.3,0.3-0.6c0.1-0.9,0.6-1.7,1.1-1.9c0.2-0.1,0.4-0.3,0.5-0.5c0.2-0.7,1.1-1.4,1.7-1.5c0.3-0.1,0.5-0.2,0.6-0.5
		c0.3-0.7,1.5-1.5,2-1.5c0.2,0,0.4-0.1,0.5-0.2c0.7-0.7,1.8-1.3,2.4-1.3c0.2,0,0.5-0.1,0.6-0.3c0.6-0.7,1.5-1.2,2-1.3
		c0.2,0,0.4-0.1,0.5-0.3c0.7-0.8,1.3-1.4,1.9-1.7c0.2-0.1,0.4-0.3,0.4-0.5c0.2-0.8,0.7-1.6,1-1.8c0.1-0.1,0.3-0.3,0.3-0.5
		c0.3-1.2,0-2-0.4-2.9c-0.1-0.3-0.5-0.4-0.8-0.4c0,0-0.1,0-0.1,0c0,0,0,0,0,0c0.1-0.4,0.7-0.8,1.4-1.1c1.4-0.6,3.1-0.8,5-0.9
		L159.5,295.5 M159.5,295.5C159.5,295.5,159.4,295.5,159.5,295.5c-2.7,0-4.4,0.5-5.4,0.9c-0.9,0.4-2,1.1-2,2.1
		c0,0.4,0.5,0.6,0.9,0.6c0,0,0.1,0,0.1,0v0c0.4,0.7,0.6,1.4,0.4,2.3c-0.5,0.4-1.1,1.3-1.3,2.3c-0.7,0.4-1.5,1-2.2,1.9
		c-0.8,0.1-1.8,0.7-2.5,1.6c-0.9,0-2.1,0.7-3,1.5c-0.9,0-2.3,1-2.7,2c-0.8,0.2-2,1.1-2.3,2.1c-0.9,0.4-1.4,1.5-1.6,2.6
		c-0.5,0.4-0.8,1.4-0.6,2.4c-0.4,0.5-0.2,2.3,0.3,3c0.2,1,1.3,2,3,2.1c0.1,0,0.1,0,0.2,0c1.5,0,2.9-1,2.9-2.2
		c0.1-1.2-0.8-1.8-1.6-1.8c0,0-0.1,0-0.1,0c-0.7,0-1.6,0.7-1.4,1.9c-1-0.2-1.3-1.5-1.2-2.4c0.2-0.3,0.7-1.1,0.9-1.8
		c0.7-0.4,1-0.9,1.3-1.6c0.9-0.1,2.2-1,2.8-1.6c0.1,0,0.2,0,0.3,0c1,0,2.5-0.7,3.2-1.3c0.1,0,0.3,0,0.5,0c1,0,2.2-0.5,2.7-1
		c0.2,0,0.4,0,0.5,0c1.4,0,2.9-0.7,3.8-1.2c0.1,0,0.2,0,0.2,0c1.3,0,3.4-1,4.4-2c2.3-0.4,4.1-2.6,4.6-4c1-0.7,1.9-2.8,2-3.4
		c0.3-0.3,0.7-0.8,0.9-1.3c0.2-0.5,0.4-1.1-0.5-1.9C165.5,296.1,162.1,295.5,159.5,295.5L159.5,295.5z"/>
</g>
<g>
	<path fill="#231F20" d="M142.1,314.7c0,0-0.1,0-0.1,0C142,314.7,142.1,314.7,142.1,314.7z"/>
	<path fill="#231F20" d="M142.3,314.6c0,0-0.1,0-0.1,0C142.2,314.7,142.3,314.7,142.3,314.6z"/>
	<path fill="#231F20" d="M142.5,314.6c0,0-0.1,0-0.1,0C142.4,314.6,142.4,314.6,142.5,314.6z"/>
	<path fill="#231F20" d="M141.9,314.8c0,0-0.1,0-0.1,0C141.8,314.8,141.9,314.8,141.9,314.8z"/>
	<path fill="#231F20" d="M142.9,314.4C142.8,314.4,142.8,314.4,142.9,314.4C142.8,314.4,142.8,314.4,142.9,314.4z"/>
	<path fill="#231F20" d="M141.7,314.8c-0.1,0-0.1,0-0.2,0C141.6,314.8,141.7,314.8,141.7,314.8z"/>
	<path fill="#231F20" d="M142.7,314.5C142.6,314.5,142.6,314.5,142.7,314.5C142.6,314.5,142.6,314.5,142.7,314.5z"/>
	<path fill="#231F20" d="M143,314.3C143,314.3,143,314.3,143,314.3C143,314.3,143,314.3,143,314.3z"/>
	<path fill="#231F20" d="M144,313.6C144,313.6,144,313.6,144,313.6C144,313.6,144,313.6,144,313.6z"/>
	<path fill="#231F20" d="M144.2,313.5C144.2,313.5,144.2,313.5,144.2,313.5C144.2,313.5,144.2,313.5,144.2,313.5z"/>
	<path fill="#231F20" d="M143.7,313.8C143.7,313.8,143.7,313.8,143.7,313.8C143.7,313.8,143.7,313.8,143.7,313.8z"/>
	<path fill="#231F20" d="M143.9,313.7C143.9,313.7,143.9,313.7,143.9,313.7C143.9,313.7,143.9,313.7,143.9,313.7z"/>
	<path fill="#231F20" d="M143.2,314.2C143.2,314.2,143.2,314.2,143.2,314.2C143.2,314.2,143.2,314.2,143.2,314.2z"/>
	<path fill="#231F20" d="M143.4,314.1C143.4,314.1,143.4,314.1,143.4,314.1C143.4,314.1,143.4,314.1,143.4,314.1z"/>
	<path fill="#231F20" d="M143.6,313.9C143.6,314,143.5,314,143.6,313.9C143.5,314,143.6,314,143.6,313.9z"/>
	<g>
		<path fill="#231F20" d="M164.5,313.2c0.7,0,1.5,0.5,1.9,1c0.2,0.3,0.1,0.5,0,0.6c-0.3,0.6-1.8,0-2.3,0.2
			C164.1,314.8,164.4,313.5,164.5,313.2z M141.1,315c2.4,1.5,5.6,3.7,8.9,3.7c4.6,0,8.7-4.3,11.3-5.3c0.9-0.4,2-0.4,2.7-0.3
			c-0.2,1.1-0.3,1.4-0.7,2.4c-0.2,0.6-0.1,0.9,0.4,1.3c0.5,0.4,1.4,0.4,2.8,0.2c0.9-0.1,1.6,0.3,1.8,0.4c0-0.8-0.8-1.9-0.9-2
			c0.2-0.2,1.2-0.7,1.8-0.8c-0.3-0.4-1.2-1-1.9-1.2c0.1-0.3,0.1-0.3,0.3-0.6c0.8-1.8-1-2.8-2.5-3.2c-7.3-1.7-10.3,5.4-15.1,5.4l0,0
			c-1.7,0-3.4-0.8-5.2-1.8c-0.2,0-0.3,0-0.5,0c0,0-2.2,1-2.3,1L141.1,315z"/>
	</g>
</g>
</svg>
