<?xml version="1.0" encoding="utf-8"?>
<!-- Generator: Adobe Illustrator 18.0.0, SVG Export Plug-In . SVG Version: 6.00 Build 0)  -->
<!DOCTYPE svg PUBLIC "-//W3C//DTD SVG 1.1//EN" "http://www.w3.org/Graphics/SVG/1.1/DTD/svg11.dtd">
<svg version="1.1" id="Layer_1" xmlns="http://www.w3.org/2000/svg" xmlns:xlink="http://www.w3.org/1999/xlink" x="0px" y="0px"
	 width="48px" height="48px" viewBox="0 0 48 48" enable-background="new 0 0 48 48" xml:space="preserve">
<g>
	<path fill-rule="evenodd" clip-rule="evenodd" d="M43.1,34.3c0.4-0.6,0.7-1.3,1.1-1.9c0.4-0.7,0.2-1.5-0.5-1.9
		c-3.6-2.2-7.2-4.4-10.8-6.7c-0.2-0.1-0.3-0.1-0.5,0c-1.9,1.1-3.8,2.3-5.7,3.4c-0.1,0-0.1,0.1-0.2,0.2c0.1,0.1,0.2,0.1,0.3,0.2
		c2.4,1.3,4.8,2.7,7.3,4c0.2,0.1,0.3,0.3,0.5,0.4c0.8,1.1,0.2,2.3-0.5,2.7c-0.6,0.4-1.4,0.6-2.1,0.1c-2.4-1.3-4.7-2.6-7.1-3.9
		c-0.1,0-0.2-0.1-0.3-0.1c0,0.2,0,0.3,0,0.4c0,2,0,4.1,0,6.1c0,0.3,0.1,0.4,0.3,0.5c3.8,1.9,7.5,3.7,11.3,5.6c0.8,0.4,1.5,0.2,2-0.6
		c0.1-0.1,0.2-0.3,0.2-0.4c0.3-0.5,0.5-0.9,0.8-1.4c1.2,0.7,2.5,1.4,3.7,2.1c1.3-2.3,2.6-4.5,3.9-6.8C45.5,35.7,44.3,35,43.1,34.3z"
		/>
	<path fill-rule="evenodd" clip-rule="evenodd" d="M10.8,43.8c-0.5-0.2-0.9-0.6-1.1-1.1c-0.3-0.5-0.5-1-0.8-1.5
		c-1.2,0.7-2.5,1.4-3.7,2.1c-1.3-2.3-2.6-4.5-3.9-6.8c1.2-0.7,2.4-1.4,3.6-2.1c-0.4-0.6-0.7-1.2-1-1.8c-0.4-0.8-0.2-1.5,0.5-2
		c3.6-2.2,7.1-4.4,10.7-6.6c0.2-0.1,0.4-0.1,0.6,0c1.8,1.1,3.7,2.3,5.5,3.4c0.1,0,0.2,0.1,0.3,0.2c-1.3,0.7-2.5,1.4-3.7,2.1
		c-1.2,0.7-2.4,1.4-3.7,2.1c-0.9,0.5-1.2,1.5-0.7,2.5c0.5,0.9,1.2,1.2,2.2,1.1c0.1,0,0.2-0.1,0.3-0.1c2.4-1.3,4.8-2.6,7.2-3.9
		c0.1,0,0.2-0.1,0.3-0.2c0,0.2,0,0.3,0,0.4c0,2.1,0,4.1,0,6.2c0,0.2-0.1,0.3-0.2,0.4c-3.8,1.9-7.6,3.8-11.4,5.7
		c-0.1,0.1-0.3,0.1-0.4,0.2C11.2,43.8,11,43.8,10.8,43.8z"/>
	<path fill-rule="evenodd" clip-rule="evenodd" d="M28.1,4.2c0,0.8,0,1.5,0,2.3c0,0.6,0,1.3,0,1.9c0.3,0,0.5,0,0.7,0
		c0.4,0,0.9,0,1.3,0c0.9,0,1.5,0.5,1.5,1.5c0.1,2.8,0.2,5.6,0.3,8.4c0.1,1.4,0.1,2.8,0.2,4.2c0,0.2,0,0.3-0.2,0.5
		c-1.9,1-3.8,2.1-5.7,3.2c-0.1,0-0.2,0.1-0.3,0.1c0-0.1,0-0.3,0-0.4c0-2.7,0-5.4,0-8.1c0-0.9-0.7-1.8-1.7-1.9
		c-1-0.1-1.8,0.3-2.2,1.3c-0.1,0.1-0.1,0.3-0.1,0.4c0,1.7-0.1,3.4-0.1,5.2c0,1.1,0,2.2-0.1,3.3c0,0.1,0,0.1,0,0.2
		c-0.1-0.1-0.2-0.1-0.3-0.2c-1.8-1-3.5-2.1-5.3-3.1c-0.2-0.1-0.3-0.2-0.3-0.5c0.1-1.9,0.2-3.8,0.3-5.7c0.1-2.3,0.2-4.6,0.3-6.9
		c0-0.7,0.6-1.3,1.3-1.3c0.7,0,1.4,0,2,0c0.1,0,0.2,0,0.2-0.2c0-1.4,0-2.7,0-4.1C22.8,4.2,25.5,4.2,28.1,4.2z"/>
	<path fill-rule="evenodd" clip-rule="evenodd" d="M43.1,34.3c1.2,0.7,2.4,1.4,3.6,2.1c-1.3,2.3-2.6,4.5-3.9,6.8
		c-1.2-0.7-2.5-1.4-3.7-2.1c-0.3,0.5-0.5,1-0.8,1.4c-0.1,0.1-0.1,0.3-0.2,0.4c-0.5,0.8-1.2,1-2,0.6c-3.8-1.9-7.5-3.7-11.3-5.6
		c-0.2-0.1-0.3-0.2-0.3-0.5c0-2,0-4.1,0-6.1c0-0.1,0-0.2,0-0.4c0.1,0.1,0.2,0.1,0.3,0.1c2.4,1.3,4.7,2.6,7.1,3.9
		c0.8,0.4,1.5,0.3,2.1-0.1c0.7-0.5,1.3-1.7,0.5-2.7c-0.1-0.2-0.3-0.3-0.5-0.4c-2.4-1.4-4.8-2.7-7.3-4c-0.1-0.1-0.2-0.1-0.3-0.2
		c0.1-0.1,0.2-0.1,0.2-0.2c1.9-1.1,3.8-2.3,5.7-3.4c0.2-0.1,0.3-0.1,0.5,0c3.6,2.2,7.2,4.4,10.8,6.7c0.7,0.4,0.9,1.2,0.5,1.9
		C43.8,33,43.5,33.7,43.1,34.3z"/>
</g>
</svg>
